<svg width="370" height="85" viewBox="0 0 370 85" fill="none" xmlns="http://www.w3.org/2000/svg">
<g clip-path="url(#clip0_57_233)">
<path d="M42.3416 0C19.8676 0.28411 -0.0674737 18.7017 0.000171657 42.5083C0.0655622 65.0568 19.4121 84.011 42.4048 83.8983C64.1934 83.79 84.6493 65.9339 84.4531 41.5478C84.2615 17.8245 64.0378 0.254797 42.3416 0ZM39.4893 78.3807C31.1125 77.8034 23.9579 74.5249 17.8022 69.1358C9.92149 62.2337 5.86277 53.3609 5.53131 42.9232C4.83681 20.4311 24.5464 6.08808 39.4893 5.468V78.3807ZM44.8378 78.2837V5.41163C60.0151 6.07455 79.0077 20.4537 78.9761 41.868C78.9468 62.3961 61.6003 77.6862 44.8378 78.2837Z" fill="white"/>
<path d="M23.8767 66.6283C26.1677 68.0534 28.4834 69.4356 30.8059 70.8088C31.9333 71.4718 33.0788 72.0806 34.3257 72.7728V42.7676H23.2634C23.2121 42.8852 23.175 43.0086 23.1529 43.1351C23.1529 50.6392 23.1529 58.1411 23.198 65.643C23.198 65.979 23.5588 66.4299 23.8767 66.6283Z" fill="white"/>
<path d="M23.2724 38.3325H34.3211V11.0488C30.7269 13.218 27.286 15.2699 23.8857 17.3849C23.493 17.6813 23.2466 18.1322 23.2093 18.6229C23.1732 24.8147 23.1912 31.0042 23.2093 37.1938C23.1912 37.5478 23.2408 37.9108 23.2724 38.3325Z" fill="white"/>
<path d="M61.1989 42.7407H49.8683V73.012C53.4761 70.8699 56.8922 68.8022 60.3533 66.7999C61.0704 66.385 61.2981 65.9228 61.2936 65.1155C61.2575 58.0646 61.2688 51.0137 61.2598 43.9606C61.2598 43.5637 61.2215 43.1669 61.1989 42.7407Z" fill="white"/>
<path d="M61.2621 36.3885C61.2621 30.5259 61.2305 24.6768 61.2801 18.821C61.2801 17.8875 60.9532 17.3847 60.2023 16.954C57.2462 15.2561 54.3126 13.5221 51.3633 11.8084C50.9281 11.5559 50.4614 11.3575 49.9225 11.0688V38.3525H61.2621V36.3885Z" fill="white"/>
</g>
<path d="M103.013 37.3964C103.013 37.1145 103.048 36.8943 103.119 36.7358C103.207 36.5772 103.312 36.4803 103.436 36.4451L105.206 35.9694L104.81 36.3922V21.4882L105.233 21.9374L103.013 21.4353C103.013 21.1887 103.048 20.9949 103.119 20.854C103.189 20.713 103.321 20.5809 103.515 20.4576H108.827C108.827 20.7395 108.791 20.9597 108.721 21.1182C108.65 21.2768 108.545 21.3737 108.404 21.4089L106.528 21.8846L106.977 21.4353V28.4645L106.792 28.2267H115.75L115.565 28.4645V21.4882L115.988 21.9374L113.742 21.4353C113.742 21.1887 113.777 20.9949 113.847 20.854C113.918 20.713 114.05 20.5809 114.244 20.4576H119.661C119.661 20.7395 119.626 20.9597 119.555 21.1182C119.485 21.2768 119.379 21.3737 119.238 21.4089L117.362 21.8846L117.732 21.4353V36.3658L117.336 35.9166L119.661 36.4187C119.661 36.6477 119.626 36.8327 119.555 36.9736C119.503 37.1145 119.37 37.2555 119.159 37.3964H113.742C113.742 37.1145 113.777 36.8943 113.847 36.7358C113.936 36.5772 114.041 36.4803 114.165 36.4451L115.961 35.9694L115.565 36.3922V29.1516L115.75 29.3894H106.792L106.977 29.1516V36.3658L106.501 35.9166L108.827 36.4187C108.827 36.6477 108.791 36.8327 108.721 36.9736C108.668 37.1145 108.545 37.2555 108.351 37.3964H103.013ZM127.615 37.7135C126.541 37.7135 125.598 37.4757 124.788 37C123.995 36.5068 123.378 35.8285 122.938 34.9653C122.497 34.102 122.277 33.1067 122.277 31.9792C122.277 30.6931 122.541 29.5392 123.07 28.5174C123.616 27.4956 124.338 26.6852 125.237 26.0862C126.135 25.4873 127.113 25.1878 128.17 25.1878C129.086 25.1878 129.879 25.3992 130.548 25.822C131.236 26.2272 131.773 26.7997 132.16 27.5397C132.548 28.2796 132.742 29.134 132.742 30.1029C132.742 30.4377 132.68 30.6667 132.557 30.79C132.433 30.8957 132.293 30.9486 132.134 30.9486H123.81V30.1294L130.998 29.9444L130.707 30.2351C130.742 29.3894 130.637 28.6583 130.39 28.0417C130.161 27.4251 129.826 26.9495 129.386 26.6148C128.963 26.2624 128.461 26.0862 127.879 26.0862C126.911 26.0862 126.118 26.5355 125.501 27.434C124.885 28.3324 124.576 29.6009 124.576 31.2392C124.576 32.2963 124.726 33.2212 125.025 34.0139C125.343 34.7891 125.801 35.3969 126.4 35.8373C126.999 36.2777 127.721 36.4979 128.567 36.4979C129.271 36.4979 129.949 36.3218 130.601 35.9694C131.253 35.5995 131.834 35.0886 132.345 34.4367L132.689 35.0974C132.319 35.6259 131.861 36.0927 131.315 36.4979C130.769 36.8855 130.178 37.185 129.544 37.3964C128.928 37.6078 128.285 37.7135 127.615 37.7135ZM137.71 37.7135C136.882 37.7135 136.195 37.4757 135.649 37C135.102 36.5068 134.829 35.8549 134.829 35.0445C134.829 34.0404 135.147 33.2212 135.781 32.5869C136.433 31.9527 137.401 31.4859 138.688 31.1864L142.149 30.3936L141.806 30.6843V28.7024C141.806 27.7687 141.647 27.0904 141.33 26.6676C141.013 26.2272 140.52 26.007 139.85 26.007C139.04 26.007 138.414 26.2536 137.974 26.7469C137.534 27.2225 137.313 27.9184 137.313 28.8345C137.225 28.9226 137.102 28.9931 136.943 29.0459C136.785 29.0988 136.626 29.1252 136.468 29.1252C136.168 29.1252 135.93 29.0371 135.754 28.8609C135.578 28.6848 135.49 28.4469 135.49 28.1474C135.49 27.5661 135.693 27.0552 136.098 26.6148C136.503 26.1743 137.058 25.8308 137.763 25.5842C138.485 25.3199 139.287 25.1878 140.167 25.1878C141.471 25.1878 142.422 25.5137 143.021 26.1655C143.638 26.8174 143.946 27.8568 143.946 29.2837V35.4938C143.946 35.7933 144.008 36.0223 144.131 36.1808C144.255 36.3394 144.431 36.4187 144.66 36.4187C144.854 36.4187 145.065 36.3658 145.294 36.2601C145.541 36.1544 145.743 36.0399 145.902 35.9166L146.087 36.6301C145.805 36.9648 145.444 37.229 145.003 37.4228C144.563 37.6166 144.14 37.7135 143.735 37.7135C143.171 37.7135 142.731 37.5373 142.414 37.185C142.096 36.8151 141.938 36.2953 141.938 35.6259H141.832C141.339 36.2953 140.731 36.8151 140.009 37.185C139.287 37.5373 138.52 37.7135 137.71 37.7135ZM138.714 36.4715C139.348 36.4715 139.956 36.313 140.537 35.9959C141.119 35.6787 141.603 35.2383 141.991 34.6746L141.832 35.1238V31.16L142.176 31.2128L139.163 31.9263C138.406 32.1025 137.824 32.4108 137.419 32.8512C137.032 33.274 136.838 33.8113 136.838 34.4632C136.838 35.0798 137.005 35.573 137.34 35.943C137.675 36.2953 138.133 36.4715 138.714 36.4715ZM147.672 37.3964C147.672 37.0969 147.707 36.8767 147.778 36.7358C147.848 36.5948 147.954 36.4979 148.095 36.4451L149.681 35.943L149.39 36.313V19.1099L149.707 19.5063L148.069 19.2156C147.804 19.1627 147.672 18.8544 147.672 18.2907C148.254 18.2026 148.747 18.1321 149.152 18.0793C149.557 18.0264 149.945 18 150.315 18C151.125 18 151.53 18.5109 151.53 19.5327V36.2601L151.213 35.9166L153.354 36.4187C153.354 36.6829 153.319 36.8855 153.248 37.0265C153.195 37.1498 153.072 37.2731 152.878 37.3964H147.672ZM159.405 37.7135C158.56 37.7135 157.925 37.4493 157.503 36.9208C157.097 36.3922 156.895 35.5907 156.895 34.516V23.2058C157.053 23.0649 157.247 22.9416 157.476 22.8359C157.723 22.7126 157.978 22.6069 158.243 22.5188C158.524 22.4307 158.789 22.3778 159.035 22.3602V34.1989C159.035 34.886 159.132 35.3881 159.326 35.7052C159.537 36.0047 159.899 36.1544 160.409 36.1544C160.815 36.1544 161.246 36.0663 161.704 35.8902C162.18 35.714 162.638 35.4321 163.078 35.0445L163.448 35.7052C163.272 35.9518 162.973 36.2337 162.55 36.5508C162.145 36.8679 161.669 37.141 161.123 37.37C160.577 37.599 160.004 37.7135 159.405 37.7135ZM162.365 26.9319L155.098 26.7997C155.098 26.5531 155.124 26.3329 155.177 26.1391C155.248 25.9277 155.345 25.7779 155.468 25.6899L162.867 25.3992C162.902 25.4873 162.929 25.5753 162.946 25.6634C162.964 25.7339 162.973 25.8132 162.973 25.9013C162.973 26.1831 162.92 26.421 162.814 26.6148C162.708 26.7909 162.559 26.8966 162.365 26.9319ZM164.32 37.3964C164.32 36.8327 164.461 36.5156 164.743 36.4451L166.249 35.943L165.959 36.3922V19.1099L166.276 19.5063L164.717 19.2156C164.453 19.1627 164.32 18.8544 164.32 18.2907C164.99 18.185 165.492 18.1145 165.827 18.0793C166.179 18.0264 166.461 18 166.672 18C167.13 18 167.456 18.1145 167.65 18.3435C167.861 18.5726 167.967 18.9425 167.967 19.4534V27.9889L167.835 27.8303H168.099C168.786 27.0199 169.588 26.3769 170.504 25.9013C171.42 25.4256 172.31 25.1878 173.173 25.1878C175.217 25.1878 176.238 26.6059 176.238 29.4423V36.2601L175.948 35.9166L177.877 36.4187C177.877 36.6829 177.85 36.8855 177.797 37.0265C177.745 37.1498 177.63 37.2731 177.454 37.3964H172.644C172.644 36.8327 172.785 36.5156 173.067 36.4451L174.389 36.0487L174.124 36.4979V29.4951C174.124 27.6277 173.411 26.694 171.984 26.694C171.491 26.694 170.988 26.7909 170.478 26.9847C169.984 27.1785 169.526 27.4339 169.103 27.7511C168.681 28.0682 168.319 28.4117 168.02 28.7817L168.099 28.5174V36.3658L167.782 35.9959L169.553 36.4187C169.553 36.6829 169.517 36.8855 169.447 37.0265C169.394 37.1498 169.271 37.2731 169.077 37.3964H164.32ZM194.049 37.7135C192.499 37.7135 191.134 37.37 189.953 36.6829C188.773 35.9782 187.848 35.0181 187.179 33.8025C186.527 32.5693 186.201 31.1512 186.201 29.548C186.201 28.1915 186.43 26.9407 186.888 25.7956C187.346 24.6505 187.98 23.6551 188.791 22.8095C189.601 21.9462 190.561 21.2768 191.671 20.8011C192.781 20.3255 193.979 20.0876 195.265 20.0876C196.163 20.0876 197.027 20.2021 197.855 20.4312C198.683 20.6426 199.44 20.9597 200.127 21.3825L199.625 25.0821C199.343 25.0821 199.114 25.038 198.938 24.9499C198.762 24.8619 198.665 24.7562 198.647 24.6328L198.409 22.0167L198.832 22.6773C198.392 22.3074 197.793 22.0167 197.035 21.8053C196.278 21.5763 195.485 21.4618 194.657 21.4618C193.424 21.4618 192.349 21.7612 191.433 22.3602C190.517 22.9416 189.812 23.7784 189.319 24.8707C188.826 25.9629 188.579 27.2578 188.579 28.7552C188.579 30.2879 188.826 31.6268 189.319 32.7719C189.83 33.917 190.535 34.8067 191.433 35.4409C192.332 36.0751 193.371 36.3922 194.551 36.3922C195.467 36.3922 196.322 36.2073 197.115 35.8373C197.925 35.4673 198.524 34.9829 198.912 34.3839L198.436 35.4145L198.753 31.7942C199.141 31.7942 199.422 31.8294 199.599 31.8999C199.775 31.9703 199.889 32.0761 199.942 32.217L200.101 35.6523C199.396 36.2865 198.498 36.7886 197.405 37.1586C196.313 37.5285 195.194 37.7135 194.049 37.7135ZM208.134 37.7135C206.496 37.7135 205.201 37.2026 204.25 36.1808C203.298 35.159 202.823 33.7937 202.823 32.0849C202.823 30.7636 203.096 29.5832 203.642 28.5438C204.205 27.5044 204.972 26.6852 205.941 26.0862C206.91 25.4873 208.02 25.1878 209.27 25.1878C210.363 25.1878 211.305 25.4256 212.098 25.9013C212.891 26.3593 213.507 27.0111 213.948 27.8568C214.388 28.7024 214.608 29.6977 214.608 30.8429C214.608 32.1818 214.335 33.3709 213.789 34.4103C213.243 35.4321 212.477 36.2425 211.49 36.8415C210.521 37.4228 209.403 37.7135 208.134 37.7135ZM208.636 36.815C209.817 36.815 210.724 36.3394 211.358 35.3881C212.01 34.4367 212.336 33.1067 212.336 31.3978C212.336 29.6889 212.036 28.3765 211.437 27.4604C210.838 26.5443 209.966 26.0862 208.821 26.0862C207.641 26.0862 206.725 26.5619 206.073 27.5132C205.421 28.4469 205.095 29.7858 205.095 31.5299C205.095 33.2388 205.395 34.5513 205.994 35.4673C206.61 36.3658 207.491 36.815 208.636 36.815ZM216.881 37.3964C216.881 36.8327 217.022 36.5156 217.304 36.4451L218.81 35.943L218.519 36.313V26.5883L218.836 26.9847L217.277 26.694C217.013 26.6412 216.881 26.3329 216.881 25.7691C217.55 25.6634 218.053 25.593 218.387 25.5577C218.74 25.5049 219.03 25.4785 219.259 25.4785C219.717 25.4785 220.043 25.593 220.237 25.822C220.431 26.051 220.528 26.421 220.528 26.9319V27.9096L220.422 27.8303H220.66C221.329 27.0199 222.104 26.3769 222.985 25.9013C223.884 25.4256 224.738 25.1878 225.549 25.1878C226.535 25.1878 227.266 25.5401 227.742 26.2448C228.218 26.9495 228.455 28.0153 228.455 29.4423V36.3658L228.138 35.9959L229.935 36.4187C229.935 36.6829 229.9 36.8855 229.83 37.0265C229.777 37.1498 229.662 37.2731 229.486 37.3964H224.862C224.862 36.8327 225.002 36.5156 225.284 36.4451L226.606 36.0487L226.315 36.4187V29.4951C226.315 27.6277 225.654 26.694 224.333 26.694C223.84 26.694 223.346 26.7997 222.853 27.0111C222.36 27.2049 221.902 27.478 221.479 27.8303C221.074 28.1651 220.73 28.535 220.448 28.9402L220.66 28.4381V36.3658L220.343 35.9959L222.14 36.4187C222.14 36.6829 222.104 36.8855 222.034 37.0265C221.981 37.1498 221.858 37.2731 221.664 37.3964H216.881ZM232.657 37.3964C232.657 36.8327 232.798 36.5156 233.08 36.4451L234.401 36.0487L234.111 36.4187V29.4951C234.111 27.6277 233.45 26.694 232.129 26.694C231.406 26.694 230.693 26.9142 229.988 27.3547C229.301 27.7775 228.737 28.2972 228.297 28.9138L228.006 27.8303H228.403C229.09 27.0199 229.874 26.3769 230.754 25.9013C231.653 25.4256 232.507 25.1878 233.318 25.1878C234.322 25.1878 235.062 25.5401 235.537 26.2448C236.013 26.9495 236.251 28.0153 236.251 29.4423V36.2601L235.934 35.9166L237.889 36.4187C237.889 36.6829 237.854 36.8855 237.784 37.0265C237.731 37.1498 237.616 37.2731 237.44 37.3964H232.657ZM240.109 37.3964C240.109 36.8327 240.25 36.5156 240.532 36.4451L242.038 35.943L241.747 36.313V26.5883L242.065 26.9847L240.505 26.694C240.241 26.6412 240.109 26.3329 240.109 25.7691C240.779 25.6634 241.281 25.593 241.615 25.5577C241.968 25.5049 242.258 25.4785 242.487 25.4785C242.945 25.4785 243.271 25.593 243.465 25.822C243.659 26.051 243.756 26.421 243.756 26.9319V27.9096L243.65 27.8303H243.888C244.557 27.0199 245.333 26.3769 246.213 25.9013C247.112 25.4256 247.966 25.1878 248.777 25.1878C249.763 25.1878 250.494 25.5401 250.97 26.2448C251.446 26.9495 251.684 28.0153 251.684 29.4423V36.3658L251.366 35.9959L253.163 36.4187C253.163 36.6829 253.128 36.8855 253.058 37.0265C253.005 37.1498 252.89 37.2731 252.714 37.3964H248.09C248.09 36.8327 248.231 36.5156 248.512 36.4451L249.834 36.0487L249.543 36.4187V29.4951C249.543 27.6277 248.882 26.694 247.561 26.694C247.068 26.694 246.575 26.7997 246.081 27.0111C245.588 27.2049 245.13 27.478 244.707 27.8303C244.302 28.1651 243.958 28.535 243.677 28.9402L243.888 28.4381V36.3658L243.571 35.9959L245.368 36.4187C245.368 36.6829 245.333 36.8855 245.262 37.0265C245.209 37.1498 245.086 37.2731 244.892 37.3964H240.109ZM255.885 37.3964C255.885 36.8327 256.026 36.5156 256.308 36.4451L257.629 36.0487L257.339 36.4187V29.4951C257.339 27.6277 256.678 26.694 255.357 26.694C254.634 26.694 253.921 26.9142 253.216 27.3547C252.529 27.7775 251.965 28.2972 251.525 28.9138L251.234 27.8303H251.631C252.318 27.0199 253.102 26.3769 253.983 25.9013C254.881 25.4256 255.735 25.1878 256.546 25.1878C257.55 25.1878 258.29 25.5401 258.766 26.2448C259.241 26.9495 259.479 28.0153 259.479 29.4423V36.2601L259.162 35.9166L261.117 36.4187C261.117 36.6829 261.082 36.8855 261.012 37.0265C260.959 37.1498 260.844 37.2731 260.668 37.3964H255.885ZM267.697 37.7135C266.693 37.7135 265.918 37.3876 265.372 36.7358C264.826 36.0663 264.553 35.0181 264.553 33.5911V26.7205L264.949 27.1168L263.311 26.8262C263.188 26.8085 263.091 26.7293 263.02 26.5883C262.95 26.4298 262.914 26.2008 262.914 25.9013C263.584 25.8132 264.086 25.7515 264.421 25.7163C264.773 25.6634 265.055 25.637 265.266 25.637C265.742 25.637 266.094 25.7515 266.323 25.9805C266.57 26.2096 266.693 26.5707 266.693 27.064V33.5383C266.693 34.4896 266.878 35.1943 267.248 35.6523C267.636 36.0927 268.2 36.313 268.939 36.313C269.415 36.313 269.856 36.2337 270.261 36.0751C270.684 35.9166 271.054 35.7052 271.371 35.4409C271.705 35.159 271.987 34.8507 272.216 34.516L272.031 34.9653V26.7205L272.428 27.1168L270.763 26.8262C270.64 26.8085 270.543 26.7293 270.472 26.5883C270.419 26.4298 270.393 26.2008 270.393 25.9013C271.062 25.8132 271.564 25.7515 271.899 25.7163C272.251 25.6634 272.525 25.637 272.718 25.637C273.212 25.637 273.573 25.7515 273.802 25.9805C274.031 26.2096 274.145 26.5707 274.145 27.064V35.4938C274.145 35.7933 274.207 36.0223 274.33 36.1808C274.471 36.3394 274.656 36.4187 274.885 36.4187C275.079 36.4187 275.282 36.3746 275.493 36.2865C275.722 36.1808 275.925 36.0575 276.101 35.9166L276.312 36.6301C276.013 36.9648 275.643 37.229 275.202 37.4228C274.762 37.6166 274.339 37.7135 273.934 37.7135C273.388 37.7135 272.956 37.5373 272.639 37.185C272.322 36.8151 272.163 36.2953 272.163 35.6259H272.031C270.833 37.0176 269.389 37.7135 267.697 37.7135ZM278.373 37.3964C278.373 36.8327 278.514 36.5156 278.796 36.4451L280.303 35.943L280.012 36.3922V26.5883L280.329 26.9847L278.77 26.694C278.506 26.6412 278.373 26.3329 278.373 25.7691C279.043 25.6634 279.545 25.593 279.88 25.5577C280.232 25.5049 280.523 25.4785 280.752 25.4785C281.21 25.4785 281.536 25.593 281.729 25.822C281.923 26.051 282.02 26.421 282.02 26.9319V27.9096L281.862 27.8303H282.152C282.857 27.0199 283.659 26.3769 284.557 25.9013C285.473 25.4256 286.363 25.1878 287.226 25.1878C289.27 25.1878 290.291 26.6059 290.291 29.4423V36.2601L289.974 35.9166L291.93 36.4187C291.93 36.6829 291.903 36.8855 291.85 37.0265C291.798 37.1498 291.683 37.2731 291.507 37.3964H286.724C286.724 36.8327 286.865 36.5156 287.147 36.4451L288.442 36.0487L288.177 36.4979V29.4951C288.177 27.6277 287.473 26.694 286.063 26.694C285.535 26.694 285.006 26.7997 284.478 27.0111C283.967 27.2049 283.491 27.478 283.051 27.8303C282.61 28.1651 282.24 28.535 281.941 28.9402L282.152 28.4381V36.3658L281.835 35.9959L283.632 36.4187C283.632 36.6829 283.597 36.8855 283.526 37.0265C283.474 37.1498 283.35 37.2731 283.156 37.3964H278.373ZM294.15 37.3964C294.15 36.8327 294.29 36.5156 294.572 36.4451L296.158 35.943L295.867 36.313V26.4826L296.184 26.879L294.546 26.5883C294.282 26.5531 294.15 26.2448 294.15 25.6634C294.749 25.5753 295.242 25.5137 295.629 25.4785C296.035 25.4256 296.431 25.3992 296.819 25.3992C297.629 25.3992 298.034 25.9013 298.034 26.9054V36.2601L297.717 35.9166L299.831 36.4187C299.831 36.6829 299.796 36.8855 299.725 37.0265C299.672 37.1498 299.549 37.2731 299.355 37.3964H294.15ZM296.845 22.783C296.422 22.783 296.096 22.6685 295.867 22.4395C295.638 22.1929 295.524 21.8758 295.524 21.4882C295.524 21.1006 295.656 20.7835 295.92 20.5369C296.202 20.2902 296.51 20.1669 296.845 20.1669C297.268 20.1669 297.594 20.2902 297.823 20.5369C298.069 20.7659 298.193 21.083 298.193 21.4882C298.193 21.8581 298.052 22.1664 297.77 22.4131C297.506 22.6597 297.197 22.783 296.845 22.783ZM305.935 37.7135C305.09 37.7135 304.456 37.4493 304.033 36.9208C303.628 36.3922 303.425 35.5907 303.425 34.516V23.2058C303.583 23.0649 303.777 22.9416 304.006 22.8359C304.253 22.7126 304.508 22.6069 304.773 22.5188C305.055 22.4307 305.319 22.3778 305.565 22.3602V34.1989C305.565 34.886 305.662 35.3881 305.856 35.7052C306.067 36.0047 306.429 36.1544 306.94 36.1544C307.345 36.1544 307.776 36.0663 308.234 35.8902C308.71 35.714 309.168 35.4321 309.609 35.0445L309.978 35.7052C309.802 35.9518 309.503 36.2337 309.08 36.5508C308.675 36.8679 308.199 37.141 307.653 37.37C307.107 37.599 306.534 37.7135 305.935 37.7135ZM308.895 26.9319L301.628 26.7997C301.628 26.5531 301.654 26.3329 301.707 26.1391C301.778 25.9277 301.875 25.7779 301.998 25.6899L309.397 25.3992C309.432 25.4873 309.459 25.5753 309.476 25.6634C309.494 25.7339 309.503 25.8132 309.503 25.9013C309.503 26.1831 309.45 26.421 309.344 26.6148C309.239 26.7909 309.089 26.8966 308.895 26.9319ZM311.379 44.5313C310.886 44.5313 310.498 44.4256 310.216 44.2142C309.952 44.0204 309.82 43.7738 309.82 43.4743C309.82 43.3686 309.838 43.2453 309.873 43.1043C309.908 42.9634 309.961 42.8313 310.031 42.708H310.586C311.379 42.708 312.04 42.6111 312.568 42.4173C313.097 42.2411 313.555 41.9416 313.942 41.5188C314.33 41.096 314.691 40.5146 315.026 39.7747C315.378 39.0524 315.757 38.1451 316.162 37.0529L316.056 38.2949L311.432 26.7997L311.908 27.1433L309.926 26.6676C309.926 26.4033 309.961 26.2096 310.031 26.0862C310.102 25.9453 310.225 25.8132 310.401 25.6899H315.211C315.211 26.2536 315.07 26.5795 314.788 26.6676L313.202 27.1168L313.572 26.6676L317.245 35.8902H316.638L320.126 26.7997L320.284 27.1433L318.435 26.6676C318.435 26.3505 318.461 26.1303 318.514 26.007C318.584 25.866 318.717 25.7603 318.91 25.6899H322.901C322.901 25.9893 322.865 26.2184 322.795 26.3769C322.724 26.5179 322.619 26.6059 322.478 26.6412L320.972 27.1168L321.447 26.6412L317.219 37.6342C316.409 39.7307 315.493 41.4043 314.471 42.6551C313.449 43.9059 312.418 44.5313 311.379 44.5313ZM338.254 37.7135C336.704 37.7135 335.338 37.37 334.158 36.6829C332.978 35.9782 332.053 35.0181 331.383 33.8025C330.731 32.5693 330.405 31.1512 330.405 29.548C330.405 28.1915 330.634 26.9407 331.093 25.7956C331.551 24.6505 332.185 23.6551 332.995 22.8095C333.806 21.9462 334.766 21.2768 335.876 20.8011C336.985 20.3255 338.183 20.0876 339.469 20.0876C340.368 20.0876 341.231 20.2021 342.059 20.4312C342.887 20.6426 343.645 20.9597 344.332 21.3825L343.83 25.0821C343.548 25.0821 343.319 25.038 343.143 24.9499C342.966 24.8619 342.87 24.7562 342.852 24.6328L342.614 22.0167L343.037 22.6773C342.596 22.3074 341.998 22.0167 341.24 21.8053C340.482 21.5763 339.69 21.4618 338.862 21.4618C337.628 21.4618 336.554 21.7612 335.638 22.3602C334.722 22.9416 334.017 23.7784 333.524 24.8707C333.03 25.9629 332.784 27.2578 332.784 28.7552C332.784 30.2879 333.03 31.6268 333.524 32.7719C334.035 33.917 334.739 34.8067 335.638 35.4409C336.536 36.0751 337.576 36.3922 338.756 36.3922C339.672 36.3922 340.526 36.2073 341.319 35.8373C342.13 35.4673 342.729 34.9829 343.116 34.3839L342.641 35.4145L342.958 31.7942C343.345 31.7942 343.627 31.8294 343.803 31.8999C343.979 31.9703 344.094 32.0761 344.147 32.217L344.305 35.6523C343.601 36.2865 342.702 36.7886 341.61 37.1586C340.518 37.5285 339.399 37.7135 338.254 37.7135ZM352.339 37.7135C350.7 37.7135 349.405 37.2026 348.454 36.1808C347.503 35.159 347.027 33.7937 347.027 32.0849C347.027 30.7636 347.3 29.5832 347.846 28.5438C348.41 27.5044 349.176 26.6852 350.145 26.0862C351.114 25.4873 352.224 25.1878 353.475 25.1878C354.567 25.1878 355.51 25.4256 356.303 25.9013C357.095 26.3593 357.712 27.0111 358.152 27.8568C358.593 28.7024 358.813 29.6977 358.813 30.8429C358.813 32.1818 358.54 33.3709 357.994 34.4103C357.448 35.4321 356.681 36.2425 355.695 36.8415C354.726 37.4228 353.607 37.7135 352.339 37.7135ZM352.841 36.815C354.021 36.815 354.928 36.3394 355.563 35.3881C356.214 34.4367 356.54 33.1067 356.54 31.3978C356.54 29.6889 356.241 28.3765 355.642 27.4604C355.043 26.5443 354.171 26.0862 353.026 26.0862C351.845 26.0862 350.929 26.5619 350.278 27.5132C349.626 28.4469 349.3 29.7858 349.3 31.5299C349.3 33.2388 349.599 34.5513 350.198 35.4673C350.815 36.3658 351.696 36.815 352.841 36.815ZM362.169 37.7135C361.764 37.7135 361.447 37.599 361.218 37.37C360.989 37.1233 360.874 36.8062 360.874 36.4187C360.874 36.0487 361.006 35.7492 361.271 35.5202C361.535 35.2736 361.834 35.1502 362.169 35.1502C362.592 35.1502 362.918 35.2647 363.147 35.4938C363.376 35.7228 363.49 36.0311 363.49 36.4187C363.49 36.7886 363.358 37.0969 363.094 37.3436C362.83 37.5902 362.521 37.7135 362.169 37.7135Z" fill="white"/>
<path d="M101.315 63.1316C101.833 63.1316 102.327 63.0453 102.798 62.8727C103.273 62.6949 103.689 62.4752 104.045 62.2137C104.401 61.947 104.68 61.6777 104.884 61.4057L104.657 60.9585C104.285 61.3351 103.857 61.6489 103.37 61.8999C102.884 62.151 102.379 62.2765 101.856 62.2765C101.161 62.2765 100.543 62.1039 100.005 61.7587C99.466 61.4135 99.0423 60.9062 98.7338 60.2368C98.4304 59.5673 98.2788 58.7645 98.2788 57.8283C98.2788 56.9967 98.4147 56.2567 98.6867 55.6082C98.9587 54.9596 99.3274 54.4575 99.7929 54.1019C100.258 53.741 100.768 53.5606 101.323 53.5606C102.285 53.5606 102.986 53.8456 103.425 54.4157L103.708 56.2985L104.241 56.377L104.484 53.7489C103.804 53.2311 102.886 52.9722 101.731 52.9722C100.695 52.9722 99.8216 53.2389 99.1103 53.7724C98.399 54.3006 97.8682 54.9701 97.5178 55.7808C97.1726 56.5914 97 57.4099 97 58.2363C97 59.2352 97.1883 60.106 97.5648 60.8487C97.9466 61.5861 98.4644 62.151 99.1182 62.5432C99.7772 62.9355 100.509 63.1316 101.315 63.1316ZM108.689 63.1473C109.259 63.1473 109.785 62.993 110.266 62.6844C110.747 62.3759 111.129 61.9444 111.411 61.39C111.694 60.8356 111.835 60.2028 111.835 59.4915C111.835 58.822 111.715 58.218 111.474 57.6793C111.234 57.1406 110.888 56.7169 110.439 56.4084C109.994 56.0998 109.476 55.9455 108.885 55.9455C108.294 55.9455 107.748 56.0972 107.246 56.4005C106.744 56.7039 106.344 57.1406 106.045 57.7106C105.753 58.2755 105.606 58.9423 105.606 59.7112C105.606 60.3858 105.732 60.9847 105.983 61.5077C106.239 62.0255 106.6 62.4282 107.065 62.7158C107.536 63.0035 108.077 63.1473 108.689 63.1473ZM108.548 56.6123C109.013 56.6123 109.411 56.7771 109.74 57.1066C110.07 57.4308 110.316 57.8492 110.478 58.3618C110.645 58.8743 110.729 59.4052 110.729 59.9543C110.729 60.4198 110.658 60.8487 110.517 61.2409C110.376 61.628 110.172 61.9365 109.905 62.1667C109.638 62.3968 109.325 62.5119 108.964 62.5119C108.483 62.5119 108.072 62.3576 107.732 62.049C107.392 61.7352 107.136 61.322 106.963 60.8095C106.796 60.2969 106.712 59.7425 106.712 59.1463C106.712 58.6808 106.783 58.2546 106.924 57.8676C107.071 57.4805 107.282 57.1746 107.56 56.9497C107.837 56.7248 108.166 56.6123 108.548 56.6123ZM116.017 62.4805L114.871 62.2608V57.6793C115.185 57.3655 115.483 57.1432 115.766 57.0124C116.048 56.8765 116.372 56.8085 116.738 56.8085C117.131 56.8085 117.45 56.9471 117.695 57.2243C117.946 57.4962 118.072 57.9146 118.072 58.4795V62.2608L116.974 62.5275L116.911 62.9355H120.151L120.206 62.4805L119.1 62.2608V58.2284C119.1 57.4753 118.938 56.9078 118.613 56.526C118.289 56.1442 117.847 55.9533 117.287 55.9533C116.812 55.9533 116.351 56.0815 115.907 56.3378C115.462 56.594 115.109 56.8843 114.848 57.2086H114.785L114.863 56.173L114.769 56.0632L112.69 56.2985L112.635 56.7065L113.851 57.0124V62.2608L112.651 62.5275L112.588 62.9355H115.938L116.017 62.4805ZM124.411 62.4805L123.265 62.2608V57.6793C123.579 57.3655 123.877 57.1432 124.16 57.0124C124.442 56.8765 124.766 56.8085 125.133 56.8085C125.525 56.8085 125.844 56.9471 126.09 57.2243C126.341 57.4962 126.466 57.9146 126.466 58.4795V62.2608L125.368 62.5275L125.305 62.9355H128.545L128.6 62.4805L127.494 62.2608V58.2284C127.494 57.4753 127.332 56.9078 127.008 56.526C126.683 56.1442 126.241 55.9533 125.682 55.9533C125.206 55.9533 124.746 56.0815 124.301 56.3378C123.856 56.594 123.503 56.8843 123.242 57.2086H123.179L123.258 56.173L123.163 56.0632L121.084 56.2985L121.03 56.7065L122.246 57.0124V62.2608L121.045 62.5275L120.983 62.9355H124.332L124.411 62.4805ZM132.225 63.1708C132.727 63.1708 133.187 63.0767 133.605 62.8884C134.024 62.7001 134.371 62.4439 134.649 62.1196L134.5 61.7744C134.207 61.9732 133.927 62.1144 133.66 62.1981C133.393 62.2817 133.095 62.3236 132.766 62.3236C132.274 62.3236 131.861 62.1902 131.526 61.9235C131.192 61.6567 130.941 61.3063 130.773 60.8722C130.611 60.4381 130.525 59.9622 130.514 59.4444L134.311 59.3973C134.348 59.2614 134.379 59.0888 134.405 58.8796C134.432 58.6651 134.445 58.4952 134.445 58.3696C134.445 57.5747 134.267 56.9784 133.911 56.581C133.561 56.1835 133.085 55.9847 132.483 55.9847C131.966 55.9847 131.469 56.1312 130.993 56.4241C130.522 56.7117 130.14 57.1327 129.847 57.6871C129.555 58.2415 129.408 58.8926 129.408 59.6405C129.408 60.4041 129.536 61.0527 129.793 61.5861C130.049 62.1144 130.389 62.5119 130.812 62.7786C131.241 63.0401 131.712 63.1708 132.225 63.1708ZM132.099 56.5888C132.481 56.5888 132.782 56.73 133.001 57.0124C133.226 57.2949 133.339 57.674 133.339 58.15C133.339 58.4638 133.32 58.673 133.284 58.7776L130.53 58.958C130.54 58.4455 130.616 58.0114 130.758 57.6557C130.904 57.3001 131.092 57.0334 131.322 56.8555C131.558 56.6777 131.817 56.5888 132.099 56.5888ZM138.281 63.1708C138.605 63.1708 138.927 63.1212 139.246 63.0218C139.565 62.9276 139.85 62.8021 140.101 62.6452C140.352 62.4883 140.546 62.3183 140.682 62.1353L140.517 61.7744C140.01 62.1876 139.437 62.3942 138.799 62.3942C138.328 62.3942 137.92 62.2556 137.575 61.9784C137.23 61.696 136.966 61.3116 136.783 60.8252C136.599 60.3335 136.508 59.7818 136.508 59.1698C136.508 58.6311 136.581 58.1683 136.728 57.7813C136.874 57.389 137.073 57.0909 137.324 56.8869C137.575 56.6829 137.857 56.581 138.171 56.581C138.522 56.581 138.809 56.7065 139.034 56.9575C139.259 57.2086 139.453 57.5616 139.615 58.0166C140.111 57.9329 140.36 57.674 140.36 57.2399C140.36 57.0203 140.297 56.8137 140.172 56.6202C140.046 56.4267 139.847 56.2698 139.575 56.1495C139.309 56.0292 138.966 55.969 138.548 55.969C137.978 55.969 137.452 56.1259 136.971 56.4397C136.495 56.7483 136.116 57.1903 135.833 57.7656C135.551 58.3409 135.41 59.0051 135.41 59.7582C135.41 60.3911 135.525 60.9664 135.755 61.4841C135.985 62.0019 136.317 62.4125 136.751 62.7158C137.185 63.0192 137.695 63.1708 138.281 63.1708ZM142.282 60.9664C142.277 61.7195 142.4 62.2687 142.651 62.6138C142.907 62.9538 143.284 63.1238 143.78 63.1238C144.167 63.1238 144.536 63.0244 144.887 62.8257C145.242 62.6217 145.54 62.3471 145.781 62.0019L145.632 61.6567C145.632 61.662 145.561 61.7117 145.42 61.8058C145.284 61.8947 145.125 61.9784 144.941 62.0568C144.764 62.1301 144.588 62.1667 144.416 62.1667C144.16 62.1667 143.953 62.1196 143.796 62.0255C143.639 61.9261 143.521 61.7561 143.443 61.5155C143.37 61.2749 143.333 60.9376 143.333 60.5035L143.357 56.9104H145.522L145.585 56.3456H143.365V54.5569H142.996C142.792 55.0642 142.554 55.4853 142.282 55.82C142.015 56.1495 141.694 56.4005 141.317 56.5731V56.8869H142.313L142.282 60.9664ZM148.111 54.3608C148.32 54.3608 148.485 54.285 148.605 54.1333C148.725 53.9816 148.786 53.7802 148.786 53.5292C148.786 53.2886 148.723 53.0951 148.597 52.9487C148.472 52.8022 148.31 52.729 148.111 52.729C147.912 52.729 147.753 52.8022 147.632 52.9487C147.512 53.0951 147.452 53.2886 147.452 53.5292C147.452 53.775 147.509 53.9764 147.624 54.1333C147.745 54.285 147.907 54.3608 148.111 54.3608ZM149.931 62.9355L150.017 62.4883L148.762 62.253V56.1024L148.637 55.9769L146.605 56.1495L146.542 56.5496L147.734 56.8791V62.253L146.55 62.504L146.456 62.9355H149.931ZM154.269 62.4805L153.124 62.2608V57.6793C153.438 57.3655 153.736 57.1432 154.018 57.0124C154.301 56.8765 154.625 56.8085 154.991 56.8085C155.383 56.8085 155.702 56.9471 155.948 57.2243C156.199 57.4962 156.325 57.9146 156.325 58.4795V62.2608L155.226 62.5275L155.164 62.9355H158.404L158.459 62.4805L157.352 62.2608V58.2284C157.352 57.4753 157.19 56.9078 156.866 56.526C156.542 56.1442 156.1 55.9533 155.54 55.9533C155.064 55.9533 154.604 56.0815 154.159 56.3378C153.715 56.594 153.362 56.8843 153.1 57.2086H153.038L153.116 56.173L153.022 56.0632L150.943 56.2985L150.888 56.7065L152.104 57.0124V62.2608L150.904 62.5275L150.841 62.9355H154.191L154.269 62.4805ZM161.871 65.9715C162.473 65.9715 163.04 65.8486 163.574 65.6028C164.112 65.3622 164.544 65.038 164.868 64.63C165.198 64.2273 165.362 63.8011 165.362 63.3513C165.362 62.9433 165.279 62.6348 165.111 62.4256C164.944 62.2111 164.711 62.0699 164.413 62.0019C164.115 61.9339 163.73 61.8999 163.26 61.8999H162.052C161.591 61.8999 161.254 61.8503 161.04 61.7509C160.825 61.6515 160.718 61.4972 160.718 61.288C160.718 61.1677 160.76 61.0553 160.844 60.9507C160.927 60.8461 161.058 60.7075 161.236 60.5349C161.309 60.561 161.414 60.5872 161.55 60.6133C161.691 60.6395 161.829 60.6526 161.965 60.6526C162.352 60.6526 162.737 60.5506 163.119 60.3466C163.506 60.1426 163.822 59.8628 164.068 59.5072C164.314 59.1463 164.437 58.7514 164.437 58.3226C164.437 58.1081 164.397 57.8728 164.319 57.6165C164.24 57.355 164.165 57.1589 164.091 57.0281L164.115 56.9418L165.221 57.2635L165.315 57.2478L165.59 56.5025L165.464 56.3613C165.297 56.377 165.022 56.4005 164.641 56.4319C164.259 56.458 163.961 56.4764 163.746 56.4868C163.281 56.1573 162.781 55.9926 162.248 55.9926C161.808 55.9926 161.395 56.1024 161.008 56.3221C160.626 56.5417 160.32 56.8372 160.09 57.2086C159.86 57.5799 159.745 57.9774 159.745 58.401C159.745 58.7305 159.811 59.0365 159.941 59.3189C160.077 59.5961 160.237 59.8262 160.42 60.0093C160.608 60.1923 160.778 60.3126 160.93 60.3701V60.4094C160.621 60.5767 160.344 60.7833 160.098 61.0291C159.858 61.2697 159.737 61.4815 159.737 61.6646C159.737 61.879 159.805 62.0725 159.941 62.2451C160.083 62.4177 160.266 62.5563 160.49 62.6609V62.7158C160.114 62.9146 159.797 63.129 159.541 63.3591C159.285 63.5892 159.157 63.8795 159.157 64.2299C159.157 64.6065 159.274 64.9255 159.51 65.187C159.745 65.4485 160.067 65.6447 160.475 65.7754C160.883 65.9062 161.348 65.9715 161.871 65.9715ZM162.059 56.4633C162.326 56.4633 162.562 56.56 162.766 56.7535C162.975 56.9471 163.134 57.2007 163.244 57.5145C163.359 57.8283 163.417 58.1578 163.417 58.503C163.417 59.0312 163.302 59.434 163.072 59.7112C162.841 59.9831 162.543 60.1191 162.177 60.1191C161.921 60.1191 161.683 60.0328 161.463 59.8602C161.244 59.6876 161.068 59.4575 160.938 59.1698C160.807 58.877 160.742 58.5658 160.742 58.2363C160.742 57.6923 160.849 57.2609 161.063 56.9418C161.283 56.6228 161.615 56.4633 162.059 56.4633ZM162.624 62.8021C163.1 62.8021 163.461 62.8361 163.707 62.9041C163.958 62.9669 164.128 63.0662 164.217 63.2022C164.311 63.3382 164.358 63.5291 164.358 63.7749C164.358 64.1096 164.267 64.3895 164.084 64.6143C163.906 64.8392 163.665 65.0066 163.362 65.1164C163.064 65.2263 162.739 65.2812 162.389 65.2812C160.945 65.2812 160.224 64.8026 160.224 63.8455C160.224 63.6102 160.279 63.414 160.388 63.2571C160.498 63.1055 160.621 62.9878 160.757 62.9041C160.893 62.8204 160.961 62.7864 160.961 62.8021H162.624ZM166.508 65.2733C167.334 65.0327 167.907 64.6902 168.226 64.2456C168.545 63.8011 168.704 63.3408 168.704 62.8649C168.704 62.504 168.642 62.2007 168.516 61.9549C168.396 61.709 168.239 61.526 168.045 61.4057C167.857 61.2854 167.661 61.2253 167.457 61.2253C167.232 61.2253 167.033 61.3011 166.861 61.4528C166.693 61.5992 166.61 61.8006 166.61 62.0568C166.61 62.1457 166.631 62.253 166.672 62.3785C166.74 62.3628 166.816 62.355 166.9 62.355C167.151 62.355 167.36 62.4491 167.528 62.6374C167.695 62.8204 167.779 63.0506 167.779 63.3277C167.779 64.0129 167.308 64.5097 166.366 64.8183L166.508 65.2733ZM173.451 53.9058V62.1824L172.125 62.4805L172.078 62.9355H179.687L179.923 60.48L179.436 60.3937L178.762 62.3471H174.612V58.2755H176.989L177.185 59.7347L177.703 59.6484L177.962 56.5966L177.397 56.6829L177.083 57.695H174.612V53.7332H178.558L178.793 55.6082L179.319 55.6788L179.562 53.1762H172.101L172.031 53.639L173.451 53.9058ZM184.065 62.4805L182.943 62.2608V57.7106C183.163 57.4387 183.435 57.2216 183.759 57.0595C184.083 56.8921 184.421 56.8085 184.771 56.8085C185.189 56.8085 185.519 56.9575 185.76 57.2556C186.005 57.5537 186.128 57.9486 186.128 58.4402V62.2608L185.085 62.5119L185.022 62.9355H188.144L188.207 62.4805L187.117 62.2608V57.7577C187.363 57.4962 187.629 57.2739 187.917 57.0909C188.205 56.9078 188.524 56.8163 188.874 56.8163C189.319 56.8163 189.659 56.9575 189.894 57.2399C190.135 57.5224 190.255 57.9225 190.255 58.4402V62.2608L189.235 62.5119L189.188 62.9198H192.302L192.404 62.4648L191.29 62.253V58.252C191.29 57.5302 191.147 56.9732 190.859 56.581C190.571 56.1887 190.098 55.9926 189.439 55.9926C188.979 55.9926 188.537 56.1181 188.113 56.3691C187.695 56.6149 187.35 56.9131 187.078 57.2635H186.991C186.897 56.8398 186.698 56.5182 186.395 56.2985C186.092 56.0736 185.733 55.9612 185.32 55.9612C184.86 55.9612 184.413 56.0867 183.979 56.3378C183.55 56.5836 183.194 56.8791 182.912 57.2243H182.849L182.935 56.1809L182.841 56.071L180.731 56.3064L180.684 56.7143L181.915 57.0281V62.2608L180.723 62.5119L180.652 62.9355H183.987L184.065 62.4805ZM196.594 65.3832L195.37 65.1792V57.742C195.637 57.4648 195.901 57.2399 196.162 57.0673C196.429 56.8948 196.724 56.8085 197.049 56.8085C197.64 56.8085 198.079 57.0647 198.367 57.5773C198.66 58.0898 198.806 58.8194 198.806 59.7661C198.806 60.3152 198.725 60.7912 198.563 61.1939C198.401 61.5966 198.176 61.9052 197.888 62.1196C197.6 62.3288 197.274 62.4334 196.907 62.4334C196.599 62.4334 196.356 62.4203 196.178 62.3942C196 62.368 195.822 62.321 195.644 62.253L195.684 63.0061C196.003 63.0636 196.269 63.0924 196.484 63.0924C197.138 63.0924 197.726 62.9329 198.249 62.6138C198.772 62.2948 199.18 61.8476 199.473 61.2723C199.771 60.697 199.92 60.0433 199.92 59.3111C199.92 58.5527 199.818 57.9277 199.614 57.4361C199.415 56.9392 199.138 56.5731 198.782 56.3378C198.432 56.1024 198.027 55.9847 197.566 55.9847C197.101 55.9847 196.68 56.1129 196.303 56.3691C195.932 56.6254 195.621 56.9261 195.37 57.2713H195.315L195.386 56.1965L195.284 56.0867L193.205 56.3064L193.142 56.7222L194.35 57.0203V65.1713L193.158 65.4067L193.11 65.8617H196.515L196.594 65.3832ZM203.788 63.1473C204.358 63.1473 204.883 62.993 205.364 62.6844C205.846 62.3759 206.227 61.9444 206.51 61.39C206.792 60.8356 206.934 60.2028 206.934 59.4915C206.934 58.822 206.813 58.218 206.573 57.6793C206.332 57.1406 205.987 56.7169 205.537 56.4084C205.093 56.0998 204.575 55.9455 203.984 55.9455C203.393 55.9455 202.846 56.0972 202.344 56.4005C201.842 56.7039 201.442 57.1406 201.144 57.7106C200.851 58.2755 200.704 58.9423 200.704 59.7112C200.704 60.3858 200.83 60.9847 201.081 61.5077C201.337 62.0255 201.698 62.4282 202.164 62.7158C202.634 63.0035 203.176 63.1473 203.788 63.1473ZM203.646 56.6123C204.112 56.6123 204.509 56.7771 204.839 57.1066C205.168 57.4308 205.414 57.8492 205.576 58.3618C205.744 58.8743 205.827 59.4052 205.827 59.9543C205.827 60.4198 205.757 60.8487 205.616 61.2409C205.474 61.628 205.27 61.9365 205.004 62.1667C204.737 62.3968 204.423 62.5119 204.062 62.5119C203.581 62.5119 203.17 62.3576 202.831 62.049C202.491 61.7352 202.234 61.322 202.062 60.8095C201.894 60.2969 201.811 59.7425 201.811 59.1463C201.811 58.6808 201.881 58.2546 202.022 57.8676C202.169 57.4805 202.381 57.1746 202.658 56.9497C202.935 56.7248 203.265 56.6123 203.646 56.6123ZM208.55 56.8555L210.409 63.1316L211.091 63.0061L212.441 57.9931L213.939 63.1316L214.606 63.0061L216.348 56.8398L217.195 56.5888L217.258 56.1652H214.465L214.41 56.5966L215.595 56.8555L214.331 61.4214L214.08 60.2289L212.998 56.526L212.103 56.6751L210.825 61.3429L210.534 60.1113L209.585 56.8398L210.644 56.5888L210.699 56.1652H207.694L207.64 56.5966L208.55 56.8555ZM220.819 63.1708C221.321 63.1708 221.782 63.0767 222.2 62.8884C222.619 62.7001 222.966 62.4439 223.243 62.1196L223.094 61.7744C222.802 61.9732 222.522 62.1144 222.255 62.1981C221.988 62.2817 221.69 62.3236 221.361 62.3236C220.869 62.3236 220.456 62.1902 220.121 61.9235C219.786 61.6567 219.535 61.3063 219.368 60.8722C219.206 60.4381 219.12 59.9622 219.109 59.4444L222.906 59.3973C222.943 59.2614 222.974 59.0888 223 58.8796C223.026 58.6651 223.04 58.4952 223.04 58.3696C223.04 57.5747 222.862 56.9784 222.506 56.581C222.156 56.1835 221.68 55.9847 221.078 55.9847C220.56 55.9847 220.064 56.1312 219.588 56.4241C219.117 56.7117 218.735 57.1327 218.442 57.6871C218.149 58.2415 218.003 58.8926 218.003 59.6405C218.003 60.4041 218.131 61.0527 218.387 61.5861C218.644 62.1144 218.984 62.5119 219.407 62.7786C219.836 63.0401 220.307 63.1708 220.819 63.1708ZM220.694 56.5888C221.076 56.5888 221.376 56.73 221.596 57.0124C221.821 57.2949 221.933 57.674 221.933 58.15C221.933 58.4638 221.915 58.673 221.878 58.7776L219.125 58.958C219.135 58.4455 219.211 58.0114 219.352 57.6557C219.499 57.3001 219.687 57.0334 219.917 56.8555C220.153 56.6777 220.411 56.5888 220.694 56.5888ZM228.076 62.4569L226.272 62.2451V59.2954C226.329 58.8717 226.426 58.4873 226.562 58.1421C226.698 57.7917 226.86 57.5145 227.048 57.3105C227.242 57.1066 227.443 57.0046 227.652 57.0046C227.945 57.0046 228.225 57.1406 228.492 57.4125C228.644 57.3079 228.761 57.1903 228.845 57.0595C228.934 56.9288 228.978 56.798 228.978 56.6672C228.978 56.458 228.9 56.2802 228.743 56.1338C228.586 55.9873 228.374 55.9141 228.107 55.9141C227.856 55.9141 227.608 56.003 227.362 56.1809C227.122 56.3587 226.902 56.6149 226.703 56.9497C226.51 57.2792 226.35 57.6662 226.225 58.1107H226.115L226.225 56.1887L226.099 56.0553L224.067 56.2828L223.997 56.6908L225.252 56.9967V62.2608L224.036 62.5275L223.973 62.9355H228.013L228.076 62.4569ZM231.355 54.3608C231.565 54.3608 231.729 54.285 231.85 54.1333C231.97 53.9816 232.03 53.7802 232.03 53.5292C232.03 53.2886 231.967 53.0951 231.842 52.9487C231.716 52.8022 231.554 52.729 231.355 52.729C231.157 52.729 230.997 52.8022 230.877 52.9487C230.757 53.0951 230.696 53.2886 230.696 53.5292C230.696 53.775 230.754 53.9764 230.869 54.1333C230.989 54.285 231.151 54.3608 231.355 54.3608ZM233.175 62.9355L233.262 62.4883L232.006 62.253V56.1024L231.881 55.9769L229.849 56.1495L229.786 56.5496L230.979 56.8791V62.253L229.794 62.504L229.7 62.9355H233.175ZM237.514 62.4805L236.368 62.2608V57.6793C236.682 57.3655 236.98 57.1432 237.263 57.0124C237.545 56.8765 237.869 56.8085 238.236 56.8085C238.628 56.8085 238.947 56.9471 239.193 57.2243C239.444 57.4962 239.569 57.9146 239.569 58.4795V62.2608L238.471 62.5275L238.408 62.9355H241.648L241.703 62.4805L240.597 62.2608V58.2284C240.597 57.4753 240.435 56.9078 240.11 56.526C239.786 56.1442 239.344 55.9533 238.785 55.9533C238.309 55.9533 237.848 56.0815 237.404 56.3378C236.959 56.594 236.606 56.8843 236.345 57.2086H236.282L236.361 56.173L236.266 56.0632L234.187 56.2985L234.133 56.7065L235.349 57.0124V62.2608L234.148 62.5275L234.085 62.9355H237.435L237.514 62.4805ZM245.116 65.9715C245.717 65.9715 246.285 65.8486 246.818 65.6028C247.357 65.3622 247.788 65.038 248.113 64.63C248.442 64.2273 248.607 63.8011 248.607 63.3513C248.607 62.9433 248.523 62.6348 248.356 62.4256C248.188 62.2111 247.956 62.0699 247.657 62.0019C247.359 61.9339 246.975 61.8999 246.504 61.8999H245.296C244.836 61.8999 244.499 61.8503 244.284 61.7509C244.07 61.6515 243.962 61.4972 243.962 61.288C243.962 61.1677 244.004 61.0553 244.088 60.9507C244.172 60.8461 244.302 60.7075 244.48 60.5349C244.553 60.561 244.658 60.5872 244.794 60.6133C244.935 60.6395 245.074 60.6526 245.21 60.6526C245.597 60.6526 245.981 60.5506 246.363 60.3466C246.75 60.1426 247.066 59.8628 247.312 59.5072C247.558 59.1463 247.681 58.7514 247.681 58.3226C247.681 58.1081 247.642 57.8728 247.563 57.6165C247.485 57.355 247.409 57.1589 247.336 57.0281L247.359 56.9418L248.466 57.2635L248.56 57.2478L248.834 56.5025L248.709 56.3613C248.541 56.377 248.267 56.4005 247.885 56.4319C247.503 56.458 247.205 56.4764 246.991 56.4868C246.525 56.1573 246.026 55.9926 245.492 55.9926C245.053 55.9926 244.64 56.1024 244.253 56.3221C243.871 56.5417 243.565 56.8372 243.335 57.2086C243.105 57.5799 242.99 57.9774 242.99 58.401C242.99 58.7305 243.055 59.0365 243.186 59.3189C243.322 59.5961 243.481 59.8262 243.664 60.0093C243.853 60.1923 244.023 60.3126 244.174 60.3701V60.4094C243.866 60.5767 243.588 60.7833 243.343 61.0291C243.102 61.2697 242.982 61.4815 242.982 61.6646C242.982 61.879 243.05 62.0725 243.186 62.2451C243.327 62.4177 243.51 62.5563 243.735 62.6609V62.7158C243.358 62.9146 243.042 63.129 242.786 63.3591C242.529 63.5892 242.401 63.8795 242.401 64.2299C242.401 64.6065 242.519 64.9255 242.754 65.187C242.99 65.4485 243.311 65.6447 243.719 65.7754C244.127 65.9062 244.593 65.9715 245.116 65.9715ZM245.304 56.4633C245.571 56.4633 245.806 56.56 246.01 56.7535C246.219 56.9471 246.379 57.2007 246.489 57.5145C246.604 57.8283 246.661 58.1578 246.661 58.503C246.661 59.0312 246.546 59.434 246.316 59.7112C246.086 59.9831 245.788 60.1191 245.422 60.1191C245.165 60.1191 244.927 60.0328 244.708 59.8602C244.488 59.6876 244.313 59.4575 244.182 59.1698C244.051 58.877 243.986 58.5658 243.986 58.2363C243.986 57.6923 244.093 57.2609 244.308 56.9418C244.527 56.6228 244.859 56.4633 245.304 56.4633ZM245.869 62.8021C246.345 62.8021 246.706 62.8361 246.951 62.9041C247.202 62.9669 247.372 63.0662 247.461 63.2022C247.555 63.3382 247.603 63.5291 247.603 63.7749C247.603 64.1096 247.511 64.3895 247.328 64.6143C247.15 64.8392 246.91 65.0066 246.606 65.1164C246.308 65.2263 245.984 65.2812 245.633 65.2812C244.19 65.2812 243.468 64.8026 243.468 63.8455C243.468 63.6102 243.523 63.414 243.633 63.2571C243.743 63.1055 243.866 62.9878 244.002 62.9041C244.138 62.8204 244.206 62.7864 244.206 62.8021H245.869ZM253.447 53.8822V62.1824L252.129 62.4805L252.082 62.9355H255.981L256.075 62.4412L254.616 62.2294V58.299L259.896 58.2912V62.1824L258.601 62.4805L258.523 62.9355H262.438L262.5 62.4412L261.073 62.2294V53.8665L262.383 53.6233L262.453 53.1762H258.531L258.46 53.6233L259.896 53.8822V57.6636H254.616V53.8665L255.942 53.6233L256.005 53.1762H252.074L252.019 53.6233L253.447 53.8822ZM266.141 63.1708C266.643 63.1708 267.103 63.0767 267.521 62.8884C267.94 62.7001 268.288 62.4439 268.565 62.1196L268.416 61.7744C268.123 61.9732 267.843 62.1144 267.576 62.1981C267.309 62.2817 267.011 62.3236 266.682 62.3236C266.19 62.3236 265.777 62.1902 265.442 61.9235C265.108 61.6567 264.857 61.3063 264.689 60.8722C264.527 60.4381 264.441 59.9622 264.43 59.4444L268.227 59.3973C268.264 59.2614 268.295 59.0888 268.322 58.8796C268.348 58.6651 268.361 58.4952 268.361 58.3696C268.361 57.5747 268.183 56.9784 267.827 56.581C267.477 56.1835 267.001 55.9847 266.399 55.9847C265.882 55.9847 265.385 56.1312 264.909 56.4241C264.438 56.7117 264.056 57.1327 263.763 57.6871C263.471 58.2415 263.324 58.8926 263.324 59.6405C263.324 60.4041 263.452 61.0527 263.709 61.5861C263.965 62.1144 264.305 62.5119 264.728 62.7786C265.157 63.0401 265.628 63.1708 266.141 63.1708ZM266.015 56.5888C266.397 56.5888 266.698 56.73 266.917 57.0124C267.142 57.2949 267.255 57.674 267.255 58.15C267.255 58.4638 267.236 58.673 267.2 58.7776L264.446 58.958C264.456 58.4455 264.532 58.0114 264.674 57.6557C264.82 57.3001 265.008 57.0334 265.238 56.8555C265.474 56.6777 265.733 56.5888 266.015 56.5888ZM270.895 63.1316C271.271 63.1316 271.609 63.0662 271.907 62.9355C272.21 62.7995 272.458 62.64 272.652 62.4569C272.846 62.2687 272.987 62.0882 273.076 61.9156H273.138V62.0255C273.138 62.3131 273.23 62.5615 273.413 62.7707C273.601 62.9747 273.876 63.0767 274.237 63.0767C274.378 63.0767 274.503 63.0662 274.613 63.0453C274.723 63.0296 274.856 63.0009 275.013 62.959L275.17 62.9198L275.241 62.4491L274.786 62.3628C274.556 62.3262 274.383 62.2582 274.268 62.1588C274.158 62.0595 274.085 61.9313 274.048 61.7744C274.017 61.6175 274.001 61.4031 274.001 61.1311V58.3775C274.001 57.5564 273.847 56.9549 273.538 56.5731C273.23 56.1861 272.738 55.9926 272.064 55.9926C271.687 55.9926 271.305 56.0684 270.918 56.2201C270.531 56.3717 270.212 56.5731 269.961 56.8242C269.71 57.07 269.585 57.3262 269.585 57.593C269.585 57.8597 269.671 58.0454 269.843 58.15C270.016 58.2493 270.225 58.299 270.471 58.299C270.497 57.8702 270.539 57.5354 270.597 57.2949C270.654 57.0543 270.751 56.8712 270.887 56.7457C271.028 56.6202 271.232 56.5574 271.499 56.5574C272.037 56.5574 272.422 56.7509 272.652 57.138C272.887 57.525 273.005 58.0768 273.005 58.7933V59.3189C272.184 59.3555 271.494 59.4784 270.934 59.6876C270.38 59.8916 269.964 60.1662 269.687 60.5114C269.415 60.8513 269.279 61.2436 269.279 61.6881C269.279 61.981 269.352 62.2373 269.498 62.4569C269.65 62.6766 269.849 62.844 270.094 62.959C270.34 63.0741 270.607 63.1316 270.895 63.1316ZM273.005 61.4685C272.864 61.7195 272.649 61.9339 272.362 62.1118C272.074 62.2896 271.758 62.3785 271.412 62.3785C271.203 62.3785 271.02 62.3314 270.863 62.2373C270.706 62.1431 270.586 62.0202 270.502 61.8686C270.424 61.7117 270.385 61.5521 270.385 61.39C270.385 60.4643 271.258 59.9073 273.005 59.719V61.4685ZM279.187 62.9355L279.281 62.4883L278.018 62.253V52.8624L277.885 52.7368L275.829 52.9016L275.782 53.3095L277.006 53.6312V62.253L275.798 62.504L275.719 62.9355H279.187ZM280.905 60.9664C280.9 61.7195 281.023 62.2687 281.274 62.6138C281.53 62.9538 281.907 63.1238 282.403 63.1238C282.79 63.1238 283.159 63.0244 283.51 62.8257C283.865 62.6217 284.163 62.3471 284.404 62.0019L284.255 61.6567C284.255 61.662 284.184 61.7117 284.043 61.8058C283.907 61.8947 283.748 61.9784 283.565 62.0568C283.387 62.1301 283.212 62.1667 283.039 62.1667C282.783 62.1667 282.576 62.1196 282.419 62.0255C282.262 61.9261 282.145 61.7561 282.066 61.5155C281.993 61.2749 281.956 60.9376 281.956 60.5035L281.98 56.9104H284.145L284.208 56.3456H281.988V54.5569H281.619C281.415 55.0642 281.177 55.4853 280.905 55.82C280.638 56.1495 280.317 56.4005 279.94 56.5731V56.8869H280.936L280.905 60.9664ZM288.554 62.4805L287.416 62.253V57.6793C287.699 57.3707 287.981 57.1458 288.264 57.0046C288.546 56.8634 288.863 56.7928 289.213 56.7928C289.611 56.7928 289.937 56.9261 290.194 57.1929C290.45 57.4596 290.578 57.8885 290.578 58.4795V58.5344L290.555 62.2608L289.48 62.5119L289.409 62.9355H292.633L292.704 62.4805L291.59 62.2608V58.3226C291.59 57.4701 291.431 56.8608 291.112 56.4947C290.798 56.1286 290.348 55.9455 289.762 55.9455C289.339 55.9455 288.918 56.0606 288.499 56.2907C288.086 56.5208 287.712 56.8189 287.377 57.185H287.315L287.416 56.3534V52.8624L287.291 52.729L285.22 52.8938L285.149 53.3174L286.381 53.6469V62.253L285.173 62.4883L285.087 62.9355H288.476L288.554 62.4805ZM300.259 63.1316C300.777 63.1316 301.271 63.0453 301.742 62.8727C302.218 62.6949 302.633 62.4752 302.989 62.2137C303.345 61.947 303.624 61.6777 303.828 61.4057L303.601 60.9585C303.23 61.3351 302.801 61.6489 302.314 61.8999C301.828 62.151 301.323 62.2765 300.8 62.2765C300.105 62.2765 299.488 62.1039 298.949 61.7587C298.41 61.4135 297.986 60.9062 297.678 60.2368C297.375 59.5673 297.223 58.7645 297.223 57.8283C297.223 56.9967 297.359 56.2567 297.631 55.6082C297.903 54.9596 298.272 54.4575 298.737 54.1019C299.202 53.741 299.712 53.5606 300.267 53.5606C301.229 53.5606 301.93 53.8456 302.369 54.4157L302.652 56.2985L303.185 56.377L303.428 53.7489C302.748 53.2311 301.831 52.9722 300.675 52.9722C299.639 52.9722 298.766 53.2389 298.054 53.7724C297.343 54.3006 296.812 54.9701 296.462 55.7808C296.117 56.5914 295.944 57.4099 295.944 58.2363C295.944 59.2352 296.132 60.106 296.509 60.8487C296.891 61.5861 297.409 62.151 298.062 62.5432C298.721 62.9355 299.454 63.1316 300.259 63.1316ZM307.633 63.1473C308.203 63.1473 308.729 62.993 309.21 62.6844C309.691 62.3759 310.073 61.9444 310.356 61.39C310.638 60.8356 310.779 60.2028 310.779 59.4915C310.779 58.822 310.659 58.218 310.418 57.6793C310.178 57.1406 309.833 56.7169 309.383 56.4084C308.938 56.0998 308.42 55.9455 307.829 55.9455C307.238 55.9455 306.692 56.0972 306.19 56.4005C305.688 56.7039 305.288 57.1406 304.99 57.7106C304.697 58.2755 304.55 58.9423 304.55 59.7112C304.55 60.3858 304.676 60.9847 304.927 61.5077C305.183 62.0255 305.544 62.4282 306.009 62.7158C306.48 63.0035 307.021 63.1473 307.633 63.1473ZM307.492 56.6123C307.958 56.6123 308.355 56.7771 308.685 57.1066C309.014 57.4308 309.26 57.8492 309.422 58.3618C309.589 58.8743 309.673 59.4052 309.673 59.9543C309.673 60.4198 309.602 60.8487 309.461 61.2409C309.32 61.628 309.116 61.9365 308.849 62.1667C308.583 62.3968 308.269 62.5119 307.908 62.5119C307.427 62.5119 307.016 62.3576 306.676 62.049C306.336 61.7352 306.08 61.322 305.907 60.8095C305.74 60.2969 305.656 59.7425 305.656 59.1463C305.656 58.6808 305.727 58.2546 305.868 57.8676C306.015 57.4805 306.226 57.1746 306.504 56.9497C306.781 56.7248 307.11 56.6123 307.492 56.6123ZM314.945 62.4805L313.823 62.2608V57.7106C314.043 57.4387 314.315 57.2216 314.639 57.0595C314.963 56.8921 315.301 56.8085 315.651 56.8085C316.069 56.8085 316.399 56.9575 316.64 57.2556C316.885 57.5537 317.008 57.9486 317.008 58.4402V62.2608L315.965 62.5119L315.902 62.9355H319.024L319.087 62.4805L317.997 62.2608V57.7577C318.243 57.4962 318.509 57.2739 318.797 57.0909C319.085 56.9078 319.404 56.8163 319.754 56.8163C320.199 56.8163 320.539 56.9575 320.774 57.2399C321.014 57.5224 321.135 57.9225 321.135 58.4402V62.2608L320.115 62.5119L320.068 62.9198H323.182L323.284 62.4648L322.17 62.253V58.252C322.17 57.5302 322.027 56.9732 321.739 56.581C321.451 56.1887 320.978 55.9926 320.319 55.9926C319.859 55.9926 319.417 56.1181 318.993 56.3691C318.575 56.6149 318.229 56.9131 317.958 57.2635H317.871C317.777 56.8398 317.578 56.5182 317.275 56.2985C316.972 56.0736 316.613 55.9612 316.2 55.9612C315.74 55.9612 315.293 56.0867 314.859 56.3378C314.43 56.5836 314.074 56.8791 313.792 57.2243H313.729L313.815 56.1809L313.721 56.071L311.611 56.3064L311.564 56.7143L312.795 57.0281V62.2608L311.603 62.5119L311.532 62.9355H314.867L314.945 62.4805ZM327.466 62.4805L326.344 62.2608V57.7106C326.564 57.4387 326.836 57.2216 327.16 57.0595C327.484 56.8921 327.821 56.8085 328.172 56.8085C328.59 56.8085 328.92 56.9575 329.16 57.2556C329.406 57.5537 329.529 57.9486 329.529 58.4402V62.2608L328.486 62.5119L328.423 62.9355H331.545L331.608 62.4805L330.518 62.2608V57.7577C330.763 57.4962 331.03 57.2739 331.318 57.0909C331.605 56.9078 331.924 56.8163 332.275 56.8163C332.719 56.8163 333.059 56.9575 333.295 57.2399C333.535 57.5224 333.656 57.9225 333.656 58.4402V62.2608L332.636 62.5119L332.589 62.9198H335.703L335.805 62.4648L334.691 62.253V58.252C334.691 57.5302 334.547 56.9732 334.26 56.581C333.972 56.1887 333.499 55.9926 332.84 55.9926C332.379 55.9926 331.937 56.1181 331.514 56.3691C331.095 56.6149 330.75 56.9131 330.478 57.2635H330.392C330.298 56.8398 330.099 56.5182 329.796 56.2985C329.492 56.0736 329.134 55.9612 328.721 55.9612C328.261 55.9612 327.814 56.0867 327.379 56.3378C326.951 56.5836 326.595 56.8791 326.313 57.2243H326.25L326.336 56.1809L326.242 56.071L324.132 56.3064L324.085 56.7143L325.316 57.0281V62.2608L324.124 62.5119L324.053 62.9355H327.387L327.466 62.4805ZM337.657 60.7781C337.657 62.3419 338.253 63.1238 339.445 63.1238C339.874 63.1238 340.277 63.0192 340.653 62.81C341.035 62.6008 341.359 62.2974 341.626 61.8999H341.72V61.9941C341.72 62.3131 341.814 62.5772 342.003 62.7864C342.191 62.9956 342.455 63.1002 342.795 63.1002C342.978 63.1002 343.143 63.0872 343.289 63.061C343.436 63.0349 343.601 62.9956 343.784 62.9433L343.839 62.4805L343.415 62.3863C343.117 62.3288 342.913 62.2137 342.803 62.0411C342.693 61.8633 342.638 61.5783 342.638 61.186V56.2122L342.528 56.0789L340.442 56.2671L340.395 56.7379L341.626 57.0203V61.4685C341.422 61.6933 341.182 61.8816 340.904 62.0333C340.632 62.185 340.334 62.2608 340.01 62.2608C339.111 62.2608 338.661 61.6567 338.661 60.4486V56.2122L338.535 56.0789L336.582 56.2436L336.519 56.6594L337.657 56.9967V60.7781ZM348.051 62.4805L346.906 62.2608V57.6793C347.22 57.3655 347.518 57.1432 347.8 57.0124C348.083 56.8765 348.407 56.8085 348.773 56.8085C349.165 56.8085 349.484 56.9471 349.73 57.2243C349.981 57.4962 350.107 57.9146 350.107 58.4795V62.2608L349.008 62.5275L348.946 62.9355H352.186L352.241 62.4805L351.134 62.2608V58.2284C351.134 57.4753 350.972 56.9078 350.648 56.526C350.324 56.1442 349.882 55.9533 349.322 55.9533C348.846 55.9533 348.386 56.0815 347.942 56.3378C347.497 56.594 347.144 56.8843 346.882 57.2086H346.82L346.898 56.173L346.804 56.0632L344.725 56.2985L344.67 56.7065L345.886 57.0124V62.2608L344.686 62.5275L344.623 62.9355H347.973L348.051 62.4805ZM354.649 54.3608C354.858 54.3608 355.023 54.285 355.143 54.1333C355.264 53.9816 355.324 53.7802 355.324 53.5292C355.324 53.2886 355.261 53.0951 355.135 52.9487C355.01 52.8022 354.848 52.729 354.649 52.729C354.45 52.729 354.291 52.8022 354.171 52.9487C354.05 53.0951 353.99 53.2886 353.99 53.5292C353.99 53.775 354.048 53.9764 354.163 54.1333C354.283 54.285 354.445 54.3608 354.649 54.3608ZM356.469 62.9355L356.555 62.4883L355.3 62.253V56.1024L355.175 55.9769L353.143 56.1495L353.08 56.5496L354.273 56.8791V62.253L353.088 62.504L352.994 62.9355H356.469ZM358.281 60.9664C358.276 61.7195 358.399 62.2687 358.65 62.6138C358.906 62.9538 359.283 63.1238 359.78 63.1238C360.167 63.1238 360.536 63.0244 360.886 62.8257C361.242 62.6217 361.54 62.3471 361.78 62.0019L361.631 61.6567C361.631 61.662 361.561 61.7117 361.419 61.8058C361.283 61.8947 361.124 61.9784 360.941 62.0568C360.763 62.1301 360.588 62.1667 360.415 62.1667C360.159 62.1667 359.952 62.1196 359.795 62.0255C359.639 61.9261 359.521 61.7561 359.442 61.5155C359.369 61.2749 359.333 60.9376 359.333 60.5035L359.356 56.9104H361.521L361.584 56.3456H359.364V54.5569H358.995C358.791 55.0642 358.553 55.4853 358.281 55.82C358.015 56.1495 357.693 56.4005 357.316 56.5731V56.8869H358.313L358.281 60.9664ZM363.553 65.9088C363.956 65.9088 364.301 65.8225 364.589 65.6499C364.882 65.4825 365.146 65.2158 365.381 64.8497C365.622 64.4836 365.868 63.9841 366.119 63.3513L368.708 56.8791L369.5 56.5966L369.539 56.1809H367.052L366.966 56.6123L367.986 56.8869L366.181 61.4057L364.495 56.8555L365.491 56.5966L365.538 56.1809H362.533L362.463 56.6202L363.436 56.8791L365.617 62.8413L365.436 63.3199C365.065 64.2613 364.589 64.732 364.008 64.732C363.747 64.732 363.522 64.698 363.334 64.63C363.145 64.5673 362.957 64.4627 362.769 64.3162C362.533 64.5202 362.416 64.7765 362.416 65.0851C362.416 65.2367 362.465 65.3753 362.565 65.5008C362.664 65.6264 362.8 65.7257 362.973 65.799C363.145 65.8722 363.339 65.9088 363.553 65.9088Z" fill="white"/>
<defs>
<clipPath id="clip0_57_233">
<rect width="84.4545" height="84.0323" fill="white"/>
</clipPath>
</defs>
</svg>
