<svg width="83" height="34" viewBox="0 0 83 34" fill="none" xmlns="http://www.w3.org/2000/svg">
<path d="M9.67931 0V31.1497C6.78662 29.7651 4.3395 27.5643 2.62507 24.8057C0.910638 22.047 0 18.8448 0 15.5749C0 12.3048 0.910638 9.10265 2.62507 6.34399C4.3395 3.58532 6.78662 1.38459 9.67931 0ZM19.3323 16.8434C18.3658 16.8523 17.4012 16.755 16.4549 16.5534V4.3248L19.0791 4.27271C23.5955 4.27271 25.855 6.31948 25.8576 10.413C25.8592 14.6999 23.6848 16.8434 19.3346 16.8434H19.3323Z" fill="white"/>
<path d="M33.2172 15.5745C33.2172 20.1126 31.4576 24.4649 28.3251 27.6748C25.1926 30.8847 20.9437 32.6893 16.5124 32.692H16.4164V22.5489C17.1871 22.6187 18.0102 22.6537 18.8857 22.6537C23.3419 22.6537 26.8505 21.4147 29.4115 18.9368C31.3047 17.0867 32.5216 14.6281 32.8594 11.9707C33.1019 13.1558 33.2218 14.3637 33.2172 15.5745Z" fill="white"/>
<path d="M38.8505 19.2585V7.64746H43.1167C44.0574 7.64746 44.8376 7.7835 45.4573 8.0555C46.077 8.31614 46.5418 8.74114 46.8517 9.3305C47.1726 9.91978 47.3331 10.7075 47.3331 11.6935C47.3331 12.6795 47.1726 13.4841 46.8517 14.1075C46.5418 14.7195 46.077 15.1728 45.4573 15.4675C44.8376 15.7508 44.0574 15.8925 43.1167 15.8925H41.1413V19.2585H38.8505ZM41.1413 13.9715H43.0503C43.7475 13.9715 44.2455 13.7845 44.5443 13.4105C44.8431 13.0251 44.9925 12.4585 44.9925 11.7105C44.9925 10.9398 44.8431 10.3901 44.5443 10.0615C44.2455 9.73278 43.7475 9.5685 43.0503 9.5685H41.1413V13.9715ZM52.9568 19.4455C52.0272 19.4455 51.2359 19.3208 50.583 19.0715C49.9411 18.8221 49.4542 18.4085 49.1222 17.8305C48.7902 17.2411 48.6242 16.4591 48.6242 15.4845V7.64746H50.915V15.5695C50.915 16.2381 51.0865 16.7198 51.4296 17.0145C51.7837 17.3091 52.2928 17.4565 52.9568 17.4565C53.654 17.4565 54.1796 17.3091 54.5338 17.0145C54.8879 16.7198 55.065 16.2381 55.065 15.5695V7.64746H57.3558V15.4505C57.3558 16.4251 57.1842 17.2071 56.8412 17.7965C56.5092 18.3858 56.0167 18.8108 55.3638 19.0715C54.7219 19.3208 53.9196 19.4455 52.9568 19.4455ZM59.3573 19.2585V7.64746H61.6482V19.2585H59.3573ZM68.0167 19.4455C67.0871 19.4455 66.2958 19.3208 65.6429 19.0715C65.001 18.8221 64.5141 18.4085 64.1821 17.8305C63.8501 17.2411 63.6841 16.4591 63.6841 15.4845V7.64746H65.9749V15.5695C65.9749 16.2381 66.1464 16.7198 66.4895 17.0145C66.8436 17.3091 67.3527 17.4565 68.0167 17.4565C68.7139 17.4565 69.2396 17.3091 69.5937 17.0145C69.9478 16.7198 70.1249 16.2381 70.1249 15.5695V7.64746H72.4157V15.4505C72.4157 16.4251 72.2442 17.2071 71.9011 17.7965C71.5691 18.3858 71.0766 18.8108 70.4237 19.0715C69.7818 19.3208 68.9795 19.4455 68.0167 19.4455ZM73.5043 19.2585L76.5917 13.6145L73.5043 7.64746H75.9277L78.0857 11.9145L80.3599 7.64746H82.7005L79.5963 13.3935L82.6341 19.2585H80.1939L78.0691 15.1105L75.8779 19.2585H73.5043Z" fill="white"/>
<path d="M39.8989 27.0454L39.189 23.4309H39.6129L40.2054 26.6792H40.3484L41.0635 23.457H41.5436L42.2587 26.6792H42.4017L42.9942 23.4309H43.4181L42.703 27.0454H41.9676L41.2678 23.7918H41.3393L40.6396 27.0454H39.8989ZM44.687 27.0977C44.4316 27.0977 44.229 27.0471 44.0792 26.946C43.9328 26.8448 43.8272 26.6949 43.7625 26.4961C43.6978 26.2974 43.6655 26.0498 43.6655 25.7534C43.6655 25.4221 43.7097 25.157 43.7983 24.9583C43.8868 24.756 44.0111 24.6096 44.1712 24.5189C44.3312 24.4247 44.5201 24.3777 44.738 24.3777C45.0786 24.3777 45.3356 24.4753 45.5093 24.6706C45.683 24.8624 45.7698 25.1727 45.7698 25.6017L45.7494 25.9103H44.069C44.0724 26.1823 44.1217 26.388 44.2171 26.5275C44.3124 26.667 44.4844 26.7367 44.733 26.7367C44.8283 26.7367 44.9322 26.735 45.0445 26.7315C45.1603 26.7245 45.2744 26.7176 45.3867 26.7106C45.4992 26.7036 45.5945 26.6966 45.6728 26.6897L45.683 27.0087C45.6012 27.0227 45.5008 27.0366 45.3817 27.0506C45.2658 27.0645 45.1467 27.075 45.0241 27.082C44.9016 27.0924 44.7891 27.0977 44.687 27.0977ZM44.069 25.5807H45.3714C45.3714 25.2599 45.3203 25.0367 45.2182 24.9112C45.1195 24.7822 44.9594 24.7177 44.738 24.7177C44.5951 24.7177 44.4742 24.7473 44.3754 24.8066C44.2767 24.8624 44.2001 24.953 44.1456 25.0786C44.0945 25.2041 44.069 25.3715 44.069 25.5807ZM47.2198 27.0977C47.1449 27.0977 47.0546 27.0942 46.9491 27.0872C46.8469 27.0837 46.7431 27.0767 46.6375 27.0663C46.532 27.0558 46.4383 27.0471 46.3566 27.0401V23.2949H46.755V24.5555C46.8095 24.5276 46.8776 24.5015 46.9593 24.477C47.0411 24.4491 47.1278 24.4265 47.2198 24.409C47.3152 24.3881 47.4054 24.3777 47.4906 24.3777C47.722 24.3777 47.9059 24.423 48.0421 24.5137C48.1818 24.6008 48.2805 24.7421 48.3384 24.9374C48.3997 25.1291 48.4303 25.382 48.4303 25.6958C48.4303 26.0445 48.3929 26.3218 48.318 26.5275C48.2465 26.7298 48.1222 26.8762 47.9451 26.9669C47.7715 27.0541 47.5297 27.0977 47.2198 27.0977ZM47.2147 26.7315C47.4463 26.7315 47.6182 26.6966 47.7306 26.6269C47.8464 26.5537 47.923 26.4403 47.9604 26.2869C48.0013 26.1335 48.0217 25.9364 48.0217 25.6958C48.0217 25.4726 48.0047 25.2913 47.9707 25.1518C47.9366 25.0123 47.877 24.9095 47.7918 24.8432C47.7101 24.7769 47.5961 24.7438 47.4497 24.7438C47.3679 24.7438 47.2828 24.7525 47.1942 24.77C47.1057 24.7839 47.0224 24.8031 46.944 24.8275C46.8691 24.8484 46.8061 24.8694 46.755 24.8903V26.7054C46.8266 26.7123 46.9083 26.7193 47.0002 26.7263C47.0955 26.7298 47.167 26.7315 47.2147 26.7315ZM49.1386 27.1238L48.7811 26.993L50.2215 23.3367L50.579 23.4727L49.1386 27.1238ZM50.6655 27.0454L51.6308 23.4309H52.5145L53.4747 27.0454H53.0661L52.8158 26.13H51.3244L51.0741 27.0454H50.6655ZM51.4112 25.7586H52.729L52.2029 23.7866H51.9373L51.4112 25.7586ZM53.9584 28.2014V24.43H54.3517V24.6183C54.4062 24.5834 54.4743 24.5485 54.556 24.5137C54.6411 24.4753 54.7314 24.4439 54.8267 24.4195C54.9221 24.3916 55.014 24.3777 55.1026 24.3777C55.3205 24.3777 55.4976 24.4247 55.6338 24.5189C55.77 24.6096 55.8704 24.7525 55.9351 24.9478C56.0032 25.1431 56.0372 25.3959 56.0372 25.7063C56.0372 26.048 55.9981 26.3218 55.9198 26.5275C55.8449 26.7298 55.724 26.8762 55.5571 26.9669C55.3937 27.0541 55.1809 27.0977 54.9187 27.0977C54.8131 27.0977 54.7058 27.0907 54.5969 27.0767C54.4913 27.0628 54.4096 27.0506 54.3517 27.0401V28.2014H53.9584ZM54.8982 26.742C55.0821 26.742 55.2268 26.7071 55.3324 26.6374C55.4413 26.5676 55.5179 26.4578 55.5622 26.3078C55.6065 26.1544 55.6286 25.9539 55.6286 25.7063C55.6286 25.3541 55.5775 25.1065 55.4754 24.9635C55.3732 24.817 55.2302 24.7438 55.0463 24.7438C54.9646 24.7438 54.8795 24.7543 54.791 24.7752C54.7058 24.7961 54.6241 24.8223 54.5458 24.8537C54.4675 24.8816 54.4028 24.9112 54.3517 24.9426V26.6897C54.4062 26.6966 54.4862 26.7071 54.5918 26.721C54.6974 26.735 54.7995 26.742 54.8982 26.742ZM56.6569 28.2014V24.43H57.0502V24.6183C57.1047 24.5834 57.1728 24.5485 57.2545 24.5137C57.3396 24.4753 57.4299 24.4439 57.5253 24.4195C57.6206 24.3916 57.7125 24.3777 57.801 24.3777C58.019 24.3777 58.196 24.4247 58.3322 24.5189C58.4684 24.6096 58.5689 24.7525 58.6336 24.9478C58.7017 25.1431 58.7358 25.3959 58.7358 25.7063C58.7358 26.048 58.6966 26.3218 58.6183 26.5275C58.5434 26.7298 58.4225 26.8762 58.2557 26.9669C58.0921 27.0541 57.8794 27.0977 57.6172 27.0977C57.5116 27.0977 57.4044 27.0907 57.2953 27.0767C57.1899 27.0628 57.1081 27.0506 57.0502 27.0401V28.2014H56.6569ZM57.5967 26.742C57.7806 26.742 57.9253 26.7071 58.0309 26.6374C58.1398 26.5676 58.2165 26.4578 58.2607 26.3078C58.305 26.1544 58.3271 25.9539 58.3271 25.7063C58.3271 25.3541 58.276 25.1065 58.1739 24.9635C58.0718 24.817 57.9287 24.7438 57.7448 24.7438C57.6631 24.7438 57.578 24.7543 57.4895 24.7752C57.4044 24.7961 57.3227 24.8223 57.2443 24.8537C57.166 24.8816 57.1013 24.9112 57.0502 24.9426V26.6897C57.1047 26.6966 57.1847 26.7071 57.2903 26.721C57.3958 26.735 57.498 26.742 57.5967 26.742ZM60.1522 27.0977C60.0739 27.0977 59.9786 27.0924 59.8662 27.082C59.7572 27.0715 59.6482 27.0593 59.5393 27.0454C59.4303 27.0279 59.3333 27.0122 59.2482 26.9983L59.2686 26.6478C59.3537 26.6583 59.449 26.6705 59.5546 26.6844C59.6636 26.6984 59.7691 26.7106 59.8713 26.721C59.9734 26.728 60.0552 26.7315 60.1164 26.7315C60.2561 26.7315 60.3718 26.7193 60.4638 26.6949C60.5557 26.667 60.6255 26.6217 60.6732 26.5589C60.7209 26.4961 60.7447 26.4072 60.7447 26.2921C60.7447 26.2049 60.726 26.1369 60.6885 26.0881C60.6545 26.0393 60.5881 25.9992 60.4893 25.9678C60.394 25.9364 60.2544 25.9068 60.0705 25.8789C59.8798 25.8475 59.7198 25.8091 59.5904 25.7638C59.4644 25.715 59.3707 25.6435 59.3095 25.5494C59.2482 25.4552 59.2175 25.3209 59.2175 25.1466C59.2175 24.9513 59.2618 24.7979 59.3503 24.6863C59.4389 24.5747 59.5529 24.4962 59.6925 24.4509C59.8355 24.4021 59.9836 24.3777 60.1369 24.3777C60.2323 24.3777 60.3361 24.3829 60.4484 24.3934C60.5643 24.4038 60.6766 24.4178 60.7856 24.4352C60.8945 24.4491 60.9882 24.4631 61.0665 24.477L61.0563 24.8275C60.9746 24.8136 60.8792 24.8014 60.7702 24.7909C60.6613 24.7769 60.5523 24.7665 60.4434 24.7595C60.3344 24.749 60.239 24.7438 60.1573 24.7438C60.0552 24.7438 59.9633 24.756 59.8815 24.7804C59.7997 24.8014 59.7351 24.8397 59.6874 24.8955C59.6397 24.9513 59.6159 25.0298 59.6159 25.1309C59.6159 25.2076 59.6329 25.2704 59.667 25.3192C59.7011 25.3645 59.7657 25.4029 59.8611 25.4343C59.9564 25.4657 60.0943 25.497 60.2748 25.5284C60.4859 25.5633 60.6545 25.6069 60.7804 25.6592C60.9098 25.7115 61.0035 25.7847 61.0614 25.8789C61.1193 25.973 61.1482 26.1056 61.1482 26.2764C61.1482 26.4787 61.1074 26.6408 61.0257 26.7629C60.9473 26.8815 60.8333 26.9669 60.6834 27.0192C60.537 27.0715 60.3599 27.0977 60.1522 27.0977ZM63.8837 27.0924C63.7815 27.0924 63.6623 27.0855 63.5261 27.0715C63.3899 27.061 63.2537 27.0471 63.1175 27.0297C62.9847 27.0087 62.8672 26.9913 62.765 26.9774L62.8059 26.6321C62.9046 26.6426 63.0187 26.6548 63.1481 26.6687C63.2809 26.6827 63.4103 26.6949 63.5363 26.7054C63.6657 26.7158 63.7746 26.721 63.8632 26.721C64.03 26.721 64.168 26.6966 64.2769 26.6478C64.3859 26.5955 64.4676 26.517 64.5221 26.4124C64.5765 26.3078 64.6038 26.1736 64.6038 26.0097C64.6038 25.8771 64.5783 25.7725 64.5272 25.6958C64.4795 25.6156 64.3978 25.5528 64.2821 25.5075C64.1696 25.4587 64.0181 25.4151 63.8274 25.3767C63.6436 25.3384 63.4835 25.2948 63.3473 25.246C63.2111 25.1971 63.097 25.1361 63.0051 25.0629C62.9132 24.9862 62.845 24.8903 62.8008 24.7752C62.7565 24.6601 62.7344 24.5171 62.7344 24.3463C62.7344 24.1126 62.7804 23.9243 62.8723 23.7814C62.9676 23.6384 63.1004 23.5338 63.2707 23.4675C63.4444 23.4012 63.6453 23.3681 63.8734 23.3681C63.9756 23.3681 64.0913 23.3751 64.2207 23.389C64.3535 23.3995 64.4829 23.4135 64.6089 23.4309C64.7383 23.4448 64.8489 23.4605 64.9409 23.478L64.9052 23.8284C64.8064 23.8145 64.6924 23.8023 64.563 23.7918C64.4336 23.7779 64.3093 23.7657 64.1901 23.7552C64.0709 23.7447 63.9756 23.7395 63.904 23.7395C63.7406 23.7395 63.6027 23.7604 63.4903 23.8023C63.378 23.8441 63.2928 23.9086 63.235 23.9958C63.177 24.0795 63.1481 24.1876 63.1481 24.3201C63.1481 24.4736 63.1754 24.5904 63.2298 24.6706C63.2877 24.7508 63.3797 24.8136 63.5056 24.8589C63.6316 24.9042 63.7968 24.9513 64.0011 25.0001C64.1782 25.042 64.3297 25.0873 64.4557 25.1361C64.5851 25.1849 64.6906 25.246 64.7724 25.3192C64.8575 25.3889 64.9188 25.4779 64.9562 25.586C64.9971 25.6906 65.0175 25.8214 65.0175 25.9783C65.0175 26.2433 64.9716 26.4578 64.8797 26.6217C64.7877 26.7856 64.6566 26.9059 64.4863 26.9826C64.3161 27.0558 64.1151 27.0924 63.8837 27.0924ZM66.606 27.0977C66.3199 27.0977 66.0969 27.0471 65.9368 26.946C65.7802 26.8448 65.6696 26.6914 65.6048 26.4857C65.5436 26.2799 65.5129 26.0201 65.5129 25.7063C65.5129 25.4064 65.547 25.1588 65.6151 24.9635C65.6866 24.7682 65.8024 24.6218 65.9624 24.5241C66.1225 24.4265 66.337 24.3777 66.606 24.3777C66.8784 24.3777 67.0946 24.4265 67.2547 24.5241C67.4147 24.6218 67.5288 24.7682 67.5968 24.9635C67.6684 25.1588 67.7041 25.4064 67.7041 25.7063C67.7041 26.0201 67.6718 26.2799 67.6071 26.4857C67.5458 26.6914 67.4352 26.8448 67.2751 26.946C67.1185 27.0471 66.8954 27.0977 66.606 27.0977ZM66.606 26.7472C66.8034 26.7472 66.9516 26.7123 67.0503 26.6426C67.1491 26.5694 67.2138 26.456 67.2445 26.3026C67.2785 26.1491 67.2956 25.9504 67.2956 25.7063C67.2956 25.4657 67.2751 25.2739 67.2342 25.1309C67.1934 24.9879 67.1236 24.885 67.0248 24.8223C66.9261 24.7595 66.7865 24.7281 66.606 24.7281C66.4289 24.7281 66.2893 24.7595 66.1871 24.8223C66.0884 24.885 66.0186 24.9879 65.9777 25.1309C65.9368 25.2739 65.9165 25.4657 65.9165 25.7063C65.9165 25.9504 65.9318 26.1491 65.9624 26.3026C65.9965 26.456 66.0629 26.5694 66.1616 26.6426C66.2604 26.7123 66.4085 26.7472 66.606 26.7472ZM68.3595 27.0454V23.2949H68.7527V27.0454H68.3595ZM70.2973 27.0977C70.0794 27.0977 69.9125 27.0523 69.7967 26.9617C69.681 26.871 69.6009 26.7298 69.5567 26.538C69.5158 26.3462 69.4954 26.0986 69.4954 25.7952V24.43H69.8887V25.7952C69.8887 26.0254 69.8989 26.2084 69.9193 26.3444C69.9432 26.4804 69.9925 26.5798 70.0675 26.6426C70.1424 26.7019 70.2547 26.7315 70.4046 26.7315C70.5544 26.7315 70.6906 26.7106 70.8132 26.6687C70.9358 26.6269 71.0345 26.585 71.1094 26.5432V24.43H71.5027V27.0454H71.1094V26.8623C71.0005 26.925 70.8812 26.9808 70.7519 27.0297C70.6259 27.075 70.4744 27.0977 70.2973 27.0977ZM73.077 27.1029C72.8999 27.1029 72.7586 27.075 72.6531 27.0192C72.551 26.9634 72.4777 26.8675 72.4335 26.7315C72.3892 26.592 72.3671 26.3967 72.3671 26.1457V24.7804H72.0045V24.43H72.3671V23.6297H72.7604V24.43H73.5623V24.7804H72.7604V26.0254C72.7604 26.2102 72.7671 26.3549 72.7808 26.4595C72.7978 26.5606 72.8319 26.6321 72.883 26.674C72.934 26.7158 73.014 26.7367 73.123 26.7367C73.157 26.7367 73.2013 26.735 73.2558 26.7315C73.3103 26.728 73.3647 26.7245 73.4192 26.721C73.4771 26.7141 73.5282 26.7088 73.5725 26.7054L73.598 27.0454C73.5504 27.0523 73.4941 27.0593 73.4295 27.0663C73.3647 27.0767 73.3001 27.0855 73.2353 27.0924C73.1741 27.0994 73.1213 27.1029 73.077 27.1029ZM74.03 27.0454V24.43H74.4234V27.0454H74.03ZM74.03 23.8546V23.3838H74.4234V23.8546H74.03ZM76.1378 27.0977C75.8518 27.0977 75.6292 27.0471 75.4692 26.946C75.3123 26.8448 75.2016 26.6914 75.1369 26.4857C75.0756 26.2799 75.045 26.0201 75.045 25.7063C75.045 25.4064 75.079 25.1588 75.1471 24.9635C75.2187 24.7682 75.3344 24.6218 75.4941 24.5241C75.6541 24.4265 75.8692 24.3777 76.1378 24.3777C76.4102 24.3777 76.6267 24.4265 76.7867 24.5241C76.9466 24.6218 77.0606 24.7682 77.1292 24.9635C77.2002 25.1588 77.2364 25.4064 77.2364 25.7063C77.2364 26.0201 77.2039 26.2799 77.1391 26.4857C77.0779 26.6914 76.967 26.8448 76.8071 26.946C76.6501 27.0471 76.4275 27.0977 76.1378 27.0977ZM76.1378 26.7472C76.3355 26.7472 76.4834 26.7123 76.5822 26.6426C76.681 26.5694 76.7459 26.456 76.7761 26.3026C76.8108 26.1491 76.8274 25.9504 76.8274 25.7063C76.8274 25.4657 76.8071 25.2739 76.7663 25.1309C76.7256 24.9879 76.6554 24.885 76.5565 24.8223C76.4585 24.7595 76.3181 24.7281 76.1378 24.7281C75.9612 24.7281 75.8216 24.7595 75.719 24.8223C75.6202 24.885 75.5507 24.9879 75.51 25.1309C75.4692 25.2739 75.4485 25.4657 75.4485 25.7063C75.4485 25.9504 75.464 26.1491 75.4941 26.3026C75.5289 26.456 75.5953 26.5694 75.6933 26.6426C75.7922 26.7123 75.9408 26.7472 76.1378 26.7472ZM77.8612 27.0454V24.43H78.2543V24.613C78.3124 24.5782 78.3833 24.5433 78.4686 24.5084C78.5569 24.4736 78.6512 24.4439 78.7493 24.4195C78.8481 24.3916 78.9439 24.3777 79.0352 24.3777C79.2125 24.3777 79.3574 24.4021 79.4698 24.4509C79.5823 24.4962 79.669 24.5712 79.7302 24.6758C79.7951 24.7769 79.8396 24.9095 79.863 25.0734C79.8901 25.2338 79.9037 25.429 79.9037 25.6592V27.0454H79.5053V25.6749C79.5053 25.4482 79.4917 25.2669 79.4646 25.1309C79.4412 24.9949 79.3899 24.8972 79.3114 24.838C79.2367 24.7752 79.1205 24.7438 78.9643 24.7438C78.879 24.7438 78.7908 24.7543 78.6987 24.7752C78.6097 24.7926 78.5267 24.817 78.4482 24.8484C78.3697 24.8763 78.3048 24.9042 78.2543 24.9321V27.0454H77.8612ZM81.406 27.0977C81.3275 27.0977 81.2325 27.0924 81.12 27.082C81.0106 27.0715 80.902 27.0593 80.7933 27.0454C80.6839 27.0279 80.5873 27.0122 80.5021 26.9983L80.5224 26.6478C80.6077 26.6583 80.7028 26.6705 80.8084 26.6844C80.9171 26.6984 81.0227 26.7106 81.1253 26.721C81.2272 26.728 81.3087 26.7315 81.3705 26.7315C81.5101 26.7315 81.6256 26.7193 81.7176 26.6949C81.8097 26.667 81.8791 26.6217 81.9266 26.5589C81.9749 26.4961 81.9983 26.4072 81.9983 26.2921C81.9983 26.2049 81.9795 26.1369 81.9425 26.0881C81.9085 26.0393 81.8421 25.9992 81.7433 25.9678C81.6475 25.9364 81.5079 25.9068 81.3245 25.8789C81.1336 25.8475 80.9737 25.8091 80.8439 25.7638C80.7179 25.715 80.6243 25.6435 80.5632 25.5494C80.5021 25.4552 80.4711 25.3209 80.4711 25.1466C80.4711 24.9513 80.5156 24.7979 80.6039 24.6863C80.693 24.5747 80.8069 24.4962 80.9465 24.4509C81.0891 24.4021 81.2377 24.3777 81.3909 24.3777C81.486 24.3777 81.5901 24.3829 81.7025 24.3934C81.818 24.4038 81.9304 24.4178 82.0391 24.4352C82.1485 24.4491 82.242 24.4631 82.3205 24.477L82.31 24.8275C82.2285 24.8136 82.1326 24.8014 82.024 24.7909C81.9153 24.7769 81.8059 24.7665 81.6973 24.7595C81.5879 24.749 81.4928 24.7438 81.4113 24.7438C81.3087 24.7438 81.2174 24.756 81.1351 24.7804C81.0536 24.8014 80.9888 24.8397 80.9412 24.8955C80.8937 24.9513 80.8695 25.0298 80.8695 25.1309C80.8695 25.2076 80.8869 25.2704 80.9208 25.3192C80.9548 25.3645 81.0197 25.4029 81.1148 25.4343C81.2098 25.4657 81.3479 25.497 81.5282 25.5284C81.7395 25.5633 81.9085 25.6069 82.0345 25.6592C82.1636 25.7115 82.2571 25.7847 82.3152 25.8789C82.3733 25.973 82.402 26.1056 82.402 26.2764C82.402 26.4787 82.3613 26.6408 82.2798 26.7629C82.2013 26.8815 82.0874 26.9669 81.9372 27.0192C81.7908 27.0715 81.6135 27.0977 81.406 27.0977Z" fill="white"/>
</svg>
