<svg width="47" height="46" viewBox="0 0 47 46" fill="none" xmlns="http://www.w3.org/2000/svg">
<path d="M34.3179 37.3543C34.0212 37.2619 33.718 37.1695 33.4127 37.0729C33.5675 36.4154 33.7116 35.6957 33.8427 34.9372C34.4727 34.5054 35.1027 34.0606 35.7219 33.6051C35.7541 33.9983 35.7756 34.3786 35.795 34.7546C35.3134 35.6871 34.821 36.5615 34.3179 37.3543ZM17.4337 7.83139C17.7927 7.55423 18.1518 7.2964 18.5022 7.04932C18.5173 6.8667 18.5345 6.69482 18.5517 6.52723C18.9021 6.39187 19.2483 6.25866 19.5902 6.1362C20.0008 6.67763 20.4738 7.35227 20.9877 8.13433C20.8243 8.30406 20.6609 8.47809 20.4953 8.65642C19.9406 8.84549 19.3773 9.04316 18.8161 9.24297C18.8806 8.63494 18.9516 8.06987 19.0312 7.56067C18.814 7.90873 18.5947 8.27828 18.3711 8.66502C17.9862 8.67791 17.6014 8.69295 17.2208 8.70799C17.2896 8.40075 17.3606 8.10855 17.4337 7.83139ZM46.2592 22.6627C45.7109 23.3309 45.0659 24.0377 44.3435 24.7747C44.3306 25.2173 44.3156 25.6642 44.2984 26.1068C44.0253 26.4892 43.7437 26.8738 43.4469 27.2648C43.1653 26.1111 42.8449 24.9122 42.4751 23.6897C42.0645 23.0387 41.6237 22.3748 41.1572 21.7001C40.0692 21.4294 38.891 21.1544 37.6483 20.8708C37.2806 20.5184 36.9022 20.1682 36.5195 19.8137C36.3346 19.9255 36.154 20.035 35.9691 20.1446C36.2594 20.845 36.541 21.5454 36.8119 22.248C37.2312 22.0203 37.6483 21.7904 38.0482 21.5669C38.5943 22.0353 39.1211 22.4972 39.6263 22.9484C38.1299 23.9948 36.4787 25.0948 34.7393 26.2056C33.9115 24.3901 33.0021 22.4972 32.0453 20.6173C31.8475 20.6474 31.6497 20.6796 31.4519 20.7118C32.4366 22.9506 33.3826 25.2087 34.2039 27.3508C35.1091 26.8931 35.9928 26.4376 36.8463 25.9886C36.5539 27.0006 36.24 28.0082 35.9089 28.9944C35.0059 29.8409 34.0728 30.6745 33.1332 31.4888C33.1784 32.6362 33.202 33.7298 33.1977 34.7417C32.6753 35.1005 32.155 35.4486 31.6304 35.7859C30.5596 37.2211 29.5018 38.4651 28.4978 39.4234C27.6549 39.5351 26.8164 39.6339 25.9844 39.7306C25.3587 38.7509 24.6169 37.4123 23.8085 35.8224C23.9999 35.0941 24.2041 34.3163 24.4105 33.4934C23.901 32.0625 23.3613 30.5005 22.8152 28.8741C20.9855 28.9858 19.1752 29.0825 17.4057 29.162C16.3823 28.1994 15.3718 27.2176 14.3871 26.2314C14.5161 24.6501 14.6773 23.0344 14.8644 21.4273C15.8254 20.2284 16.8188 19.0295 17.8164 17.8521C19.6998 17.5041 21.6241 17.1667 23.5355 16.8466C23.6559 17.3386 23.7741 17.8349 23.8945 18.3334C24.6793 18.834 25.4662 19.3454 26.2553 19.8567C26.5563 19.4377 26.8508 19.0209 27.1454 18.6127C28.3408 18.9221 29.5255 19.2358 30.6908 19.5516C30.9875 19.3711 31.282 19.1928 31.5745 19.0166C31.6949 18.5783 31.8067 18.1465 31.9206 17.7189C31.1315 17.5728 30.3296 17.4224 29.5212 17.2763C29.2481 16.8316 28.9729 16.3868 28.6999 15.9485C28.5042 15.8561 28.3129 15.7616 28.1215 15.6649C27.971 16.2085 27.8183 16.7628 27.6592 17.3236C27.2894 16.8724 26.9218 16.4277 26.552 15.9872C26.5713 15.622 26.5907 15.261 26.6036 14.9043C26.1198 14.5412 25.6382 14.1867 25.1609 13.8387C24.8749 13.7055 24.5911 13.5744 24.3073 13.4455C24.3353 13.7871 24.3568 14.1352 24.3847 14.4875C24.9803 14.8657 25.5845 15.2503 26.1886 15.6434C25.8833 15.9786 25.5759 16.3224 25.2641 16.6726C24.8212 16.1118 24.3847 15.5618 23.9569 15.0247C23.6451 14.6873 23.3398 14.3543 23.0324 14.0277C22.3186 14.3565 21.5983 14.6981 20.878 15.0419C20.362 15.7852 19.8396 16.5501 19.3193 17.33C18.5581 17.2226 17.8056 17.1195 17.0596 17.0185C17.0488 16.0925 17.0467 15.188 17.0531 14.3221C17.9927 14.3608 18.943 14.4037 19.9062 14.4553C19.6181 13.9998 19.3343 13.5529 19.0548 13.1189C18.8914 12.7644 18.7301 12.4163 18.571 12.0812C19.2892 11.862 20.0094 11.645 20.7254 11.4388C21.1339 10.9811 21.5338 10.5407 21.9315 10.1196C22.2455 10.1002 22.5615 10.0787 22.8733 10.0594C22.8131 9.82522 22.7507 9.59533 22.6905 9.37403C22.8969 9.16348 23.0947 8.96581 23.2925 8.766C23.443 9.09257 23.5957 9.43419 23.7483 9.7887C24.6212 9.80589 25.4942 9.83167 26.3649 9.8596C26.5885 9.36544 26.7971 8.89706 26.9992 8.45876C27.3303 8.5447 27.6614 8.63279 27.9925 8.71873C27.8549 8.40934 27.7173 8.11499 27.5818 7.83354C28.0634 7.7347 28.5322 7.64017 29.0009 7.54993C28.831 7.42317 28.6612 7.30285 28.4935 7.18468C28.0763 7.25129 27.6506 7.32433 27.2206 7.39953C27.04 7.1503 26.8616 6.91397 26.6874 6.69052C26.6638 6.69052 26.6423 6.68837 26.6186 6.68837C26.6272 6.67118 26.6358 6.65614 26.6466 6.63895C26.5756 6.54657 26.5004 6.45633 26.4273 6.37254C26.5885 6.30593 26.7498 6.23933 26.9067 6.17917C27.0336 5.96432 27.1368 5.80533 27.2507 5.63129C27.0938 5.6184 26.9347 5.60336 26.7777 5.59047C26.5541 5.72583 26.3241 5.88052 26.0897 6.04166C25.9005 6.2866 25.7027 6.56376 25.4963 6.86025C25.7543 7.02999 26.0145 7.20187 26.2768 7.38235C26.0596 7.82065 25.836 8.30621 25.5952 8.82616C25.2061 8.93788 24.8147 9.0496 24.417 9.16562C24.1934 8.62634 23.9719 8.12574 23.7591 7.6638C23.314 7.83783 22.8582 8.01616 22.4003 8.20523C22.1874 8.1107 21.9788 8.02261 21.7703 7.93237C21.8176 7.47473 21.8692 7.05147 21.9208 6.67548C22.3035 6.4993 22.6776 6.33816 23.0431 6.18561C23.357 5.78384 23.658 5.45297 23.9375 5.19729C24.647 5.05334 25.3286 4.93517 25.9779 4.83849C27.627 4.91369 29.3492 5.034 31.0928 5.1801C33.5095 5.09846 36.44 4.99318 37.7322 4.93087C33.8169 1.85203 28.8848 0 23.5161 0C18.0378 0 13.0132 1.92079 9.06144 5.1135C9.32589 5.15002 9.5882 5.1887 9.8548 5.22952C10.0118 5.6227 10.1902 6.04811 10.4009 6.52508C10.4697 6.76787 10.545 7.02784 10.6267 7.2964C10.2096 7.69388 9.7989 8.12359 9.39899 8.58122C9.31514 8.80682 9.23344 9.03456 9.15389 9.2709C8.84859 9.44278 8.55188 9.61896 8.25518 9.79514C8.06167 10.4376 7.88322 11.1165 7.71767 11.8212C7.35431 11.7696 6.99525 11.7202 6.6491 11.673C6.40615 10.2678 6.26639 9.06035 6.15459 7.93022C5.08602 9.15703 4.13356 10.4891 3.3402 11.9265C3.45845 11.8277 3.5681 11.731 3.6885 11.6343C3.99596 13.1877 4.36576 14.8915 4.86887 16.7456C3.85835 17.3966 2.95104 18.0433 2.16843 18.6664C1.59867 19.1928 1.10846 19.7106 0.684903 20.2069C0.575251 21.1222 0.5 22.0525 0.5 22.9979C0.5 24.9595 0.773054 26.8545 1.23316 28.6743C1.64167 28.8225 2.08673 28.9686 2.58123 29.1126C3.33375 29.972 4.19161 30.8443 5.13548 31.7058C5.34188 32.3225 5.56118 32.9284 5.79124 33.5235C7.01676 34.2862 8.35623 35.0253 9.7516 35.7193C9.33019 37.0256 9.00554 38.1622 8.76258 39.144C8.21863 39.1591 7.69187 39.172 7.17156 39.1827C11.3383 43.3917 17.1219 46 23.5183 46C36.0143 46 46.1624 36.0394 46.5 23.6317C46.4161 23.3072 46.3495 22.9914 46.2592 22.6627Z" fill="#B8D4D2"/>
</svg>
