<svg width="122" height="94" viewBox="0 0 122 94" fill="none" xmlns="http://www.w3.org/2000/svg">
<g clip-path="url(#clip0_8_23)">
<path d="M61.4511 0C45.948 0.195987 32.1962 12.9009 32.2429 29.3234C32.288 44.8779 45.6337 57.9531 61.4947 57.8753C76.525 57.8006 90.6361 45.483 90.5008 28.6608C90.3686 12.2959 76.4177 0.175766 61.4511 0ZM59.4835 54.0691C53.705 53.6709 48.7695 51.4093 44.5232 47.6917C39.0868 42.9305 36.287 36.8098 36.0584 29.6096C35.5793 14.094 49.1755 4.19972 59.4835 3.77197V54.0691ZM63.173 54.0022V3.73309C73.6428 4.19039 86.7444 14.1095 86.7226 28.8816C86.7024 43.0425 74.7363 53.59 63.173 54.0022Z" fill="#076A60"/>
<path d="M48.7135 45.9621C50.2939 46.9452 51.8913 47.8986 53.4934 48.8459C54.2712 49.3032 55.0613 49.7232 55.9215 50.2007V29.5023H48.2905C48.255 29.5835 48.2294 29.6686 48.2142 29.7558C48.2142 34.9324 48.2142 40.1074 48.2453 45.2824C48.2453 45.5141 48.4942 45.8252 48.7135 45.9621Z" fill="#076A60"/>
<path d="M48.2967 26.4427H55.9184V7.62172C53.439 9.11807 51.0654 10.5335 48.7198 11.9925C48.4488 12.197 48.2789 12.508 48.2531 12.8465C48.2283 17.1178 48.2407 21.3875 48.2531 25.6572C48.2407 25.9014 48.2749 26.1518 48.2967 26.4427Z" fill="#076A60"/>
<path d="M74.4594 29.4836H66.6432V50.3656C69.132 48.8879 71.4885 47.4616 73.8761 46.0803C74.3707 45.7941 74.5278 45.4752 74.5247 44.9184C74.4998 40.0545 74.5076 35.1906 74.5014 30.3251C74.5014 30.0514 74.475 29.7776 74.4594 29.4836Z" fill="#076A60"/>
<path d="M74.503 25.1019C74.503 21.0577 74.4813 17.0229 74.5155 12.9834C74.5155 12.3394 74.2899 11.9925 73.772 11.6955C71.7328 10.5242 69.7091 9.32806 67.6746 8.14591C67.3744 7.9717 67.0524 7.83482 66.6807 7.63573V26.4567H74.503V25.1019Z" fill="#076A60"/>
</g>
<path d="M3.40845 81.1607C3.40845 81.0353 3.42412 80.9373 3.45548 80.8667C3.49467 80.7962 3.54171 80.7531 3.59658 80.7374L4.38437 80.5258L4.208 80.7139V74.0823L4.39613 74.2822L3.40845 74.0588C3.40845 73.949 3.42412 73.8628 3.45548 73.8001C3.48683 73.7374 3.54563 73.6786 3.63185 73.6237H5.99524C5.99524 73.7491 5.97956 73.8471 5.94821 73.9177C5.91685 73.9882 5.86982 74.0313 5.80711 74.047L4.97228 74.2587L5.17217 74.0588V77.1864L5.08986 77.0806H9.07588L8.99357 77.1864V74.0823L9.1817 74.2822L8.18226 74.0588C8.18226 73.949 8.19794 73.8628 8.22929 73.8001C8.26065 73.7374 8.31944 73.6786 8.40567 73.6237H10.8161C10.8161 73.7491 10.8004 73.8471 10.7691 73.9177C10.7377 73.9882 10.6907 74.0313 10.628 74.047L9.79313 74.2587L9.95774 74.0588V80.7021L9.78137 80.5022L10.8161 80.7256C10.8161 80.8276 10.8004 80.9099 10.7691 80.9726C10.7455 81.0353 10.6867 81.098 10.5927 81.1607H8.18226C8.18226 81.0353 8.19794 80.9373 8.22929 80.8667C8.26849 80.7962 8.31552 80.7531 8.37039 80.7374L9.16995 80.5258L8.99357 80.7139V77.4922L9.07588 77.598H5.08986L5.17217 77.4922V80.7021L4.96052 80.5022L5.99524 80.7256C5.99524 80.8276 5.97956 80.9099 5.94821 80.9726C5.92469 81.0353 5.86982 81.098 5.7836 81.1607H3.40845ZM14.3553 81.3018C13.8771 81.3018 13.4578 81.196 13.0972 80.9843C12.7444 80.7648 12.4701 80.4631 12.2741 80.079C12.0781 79.6949 11.9801 79.252 11.9801 78.7503C11.9801 78.178 12.0977 77.6646 12.3329 77.21C12.5759 76.7553 12.8973 76.3947 13.2971 76.1282C13.6968 75.8617 14.1319 75.7284 14.6022 75.7284C15.0098 75.7284 15.3626 75.8225 15.6604 76.0106C15.9662 76.1909 16.2052 76.4457 16.3777 76.7749C16.5501 77.1041 16.6364 77.4843 16.6364 77.9154C16.6364 78.0644 16.6089 78.1663 16.5541 78.2212C16.4992 78.2682 16.4365 78.2917 16.3659 78.2917H12.6621V77.9272L15.8603 77.8449L15.731 77.9742C15.7467 77.598 15.6996 77.2727 15.5899 76.9983C15.488 76.724 15.3391 76.5123 15.1431 76.3634C14.955 76.2066 14.7316 76.1282 14.4729 76.1282C14.0417 76.1282 13.689 76.3281 13.4146 76.7279C13.1403 77.1277 13.0031 77.692 13.0031 78.421C13.0031 78.8914 13.0697 79.3029 13.203 79.6557C13.3441 80.0006 13.5479 80.271 13.8144 80.467C14.0809 80.6629 14.4023 80.7609 14.7786 80.7609C15.0921 80.7609 15.3939 80.6825 15.684 80.5258C15.974 80.3611 16.2327 80.1338 16.46 79.8438L16.6129 80.1377C16.4482 80.3729 16.2444 80.5806 16.0014 80.7609C15.7584 80.9334 15.4958 81.0666 15.2136 81.1607C14.9393 81.2548 14.6532 81.3018 14.3553 81.3018ZM18.8469 81.3018C18.4785 81.3018 18.1728 81.196 17.9298 80.9843C17.6868 80.7648 17.5653 80.4748 17.5653 80.1142C17.5653 79.6674 17.7064 79.3029 17.9886 79.0207C18.2786 78.7385 18.7097 78.5308 19.282 78.3975L20.8223 78.0448L20.6694 78.1741V77.2923C20.6694 76.8768 20.5989 76.575 20.4578 76.3869C20.3167 76.1909 20.0972 76.0929 19.7993 76.0929C19.4387 76.0929 19.1605 76.2027 18.9645 76.4222C18.7685 76.6338 18.6705 76.9434 18.6705 77.3511C18.6313 77.3903 18.5765 77.4216 18.5059 77.4451C18.4354 77.4686 18.3648 77.4804 18.2943 77.4804C18.161 77.4804 18.0552 77.4412 17.9768 77.3628C17.8984 77.2844 17.8592 77.1786 17.8592 77.0453C17.8592 76.7867 17.9494 76.5593 18.1297 76.3634C18.31 76.1674 18.5569 76.0145 18.8704 75.9048C19.1918 75.7872 19.5485 75.7284 19.9404 75.7284C20.5205 75.7284 20.9438 75.8734 21.2103 76.1635C21.4847 76.4535 21.6218 76.916 21.6218 77.5509V80.3141C21.6218 80.4474 21.6493 80.5493 21.7041 80.6198C21.759 80.6904 21.8374 80.7256 21.9393 80.7256C22.0255 80.7256 22.1196 80.7021 22.2215 80.6551C22.3312 80.6081 22.4214 80.5571 22.4919 80.5022L22.5742 80.8197C22.4488 80.9687 22.2881 81.0862 22.0922 81.1725C21.8962 81.2587 21.7081 81.3018 21.5278 81.3018C21.2769 81.3018 21.081 81.2234 20.9399 81.0666C20.7988 80.902 20.7282 80.6708 20.7282 80.3729H20.6812C20.4617 80.6708 20.1913 80.902 19.8699 81.0666C19.5485 81.2234 19.2075 81.3018 18.8469 81.3018ZM19.2937 80.7492C19.5759 80.7492 19.8464 80.6786 20.105 80.5375C20.3637 80.3964 20.5793 80.2005 20.7517 79.9496L20.6812 80.1495V78.3858L20.834 78.4093L19.4936 78.7268C19.1565 78.8052 18.8979 78.9423 18.7176 79.1383C18.5451 79.3264 18.4589 79.5655 18.4589 79.8555C18.4589 80.1299 18.5334 80.3494 18.6823 80.514C18.8312 80.6708 19.035 80.7492 19.2937 80.7492ZM23.2797 81.1607C23.2797 81.0274 23.2954 80.9295 23.3268 80.8667C23.3581 80.804 23.4052 80.7609 23.4679 80.7374L24.1734 80.514L24.044 80.6786V73.0241L24.1851 73.2004L23.4561 73.0711C23.3385 73.0476 23.2797 72.9104 23.2797 72.6596C23.5384 72.6204 23.7579 72.589 23.9382 72.5655C24.1185 72.542 24.2909 72.5302 24.4556 72.5302C24.8161 72.5302 24.9964 72.7575 24.9964 73.2122V80.6551L24.8553 80.5022L25.8077 80.7256C25.8077 80.8432 25.7921 80.9334 25.7607 80.9961C25.7372 81.051 25.6823 81.1058 25.5961 81.1607H23.2797ZM28.5004 81.3018C28.1241 81.3018 27.8419 81.1842 27.6538 80.9491C27.4735 80.7139 27.3833 80.3572 27.3833 79.8791V74.8466C27.4539 74.7839 27.5401 74.729 27.642 74.682C27.7518 74.6271 27.8654 74.5801 27.983 74.5409C28.1084 74.5017 28.226 74.4781 28.3357 74.4703V79.738C28.3357 80.0437 28.3789 80.2671 28.4651 80.4082C28.5592 80.5414 28.7198 80.6081 28.9472 80.6081C29.1275 80.6081 29.3195 80.5689 29.5233 80.4905C29.735 80.4121 29.9388 80.2867 30.1347 80.1142L30.2994 80.4082C30.221 80.5179 30.0877 80.6433 29.8996 80.7844C29.7193 80.9255 29.5076 81.047 29.2646 81.1489C29.0216 81.2508 28.7669 81.3018 28.5004 81.3018ZM29.8173 76.5045L26.5838 76.4457C26.5838 76.3359 26.5955 76.238 26.6191 76.1517C26.6504 76.0577 26.6935 75.991 26.7484 75.9518L30.0407 75.8225C30.0564 75.8617 30.0681 75.9009 30.076 75.9401C30.0838 75.9714 30.0877 76.0067 30.0877 76.0459C30.0877 76.1713 30.0642 76.2771 30.0172 76.3634C29.9701 76.4418 29.9035 76.4888 29.8173 76.5045ZM30.6874 81.1607C30.6874 80.9099 30.7501 80.7688 30.8755 80.7374L31.5457 80.514L31.4164 80.7139V73.0241L31.5575 73.2004L30.8637 73.0711C30.7462 73.0476 30.6874 72.9104 30.6874 72.6596C30.9852 72.6125 31.2086 72.5812 31.3576 72.5655C31.5144 72.542 31.6398 72.5302 31.7338 72.5302C31.9377 72.5302 32.0827 72.5812 32.1689 72.6831C32.263 72.785 32.31 72.9496 32.31 73.1769V76.9748L32.2512 76.9042H32.3688C32.6745 76.5437 33.0312 76.2575 33.4388 76.0459C33.8464 75.8343 34.2423 75.7284 34.6264 75.7284C35.5356 75.7284 35.9903 76.3595 35.9903 77.6215V80.6551L35.861 80.5022L36.7193 80.7256C36.7193 80.8432 36.7075 80.9334 36.684 80.9961C36.6605 81.051 36.6096 81.1058 36.5312 81.1607H34.3912C34.3912 80.9099 34.4539 80.7688 34.5793 80.7374L35.1672 80.561L35.0496 80.7609V77.645C35.0496 76.8141 34.7322 76.3986 34.0972 76.3986C33.8777 76.3986 33.6543 76.4418 33.427 76.528C33.2075 76.6142 33.0037 76.7279 32.8156 76.869C32.6275 77.0101 32.4668 77.1629 32.3335 77.3275L32.3688 77.21V80.7021L32.2277 80.5375L33.0155 80.7256C33.0155 80.8432 32.9998 80.9334 32.9685 80.9961C32.9449 81.051 32.8901 81.1058 32.8038 81.1607H30.6874ZM43.9153 81.3018C43.2255 81.3018 42.618 81.1489 42.0928 80.8432C41.5676 80.5297 41.1561 80.1025 40.8582 79.5616C40.5682 79.0129 40.4231 78.3819 40.4231 77.6685C40.4231 77.0649 40.525 76.5084 40.7289 75.9989C40.9327 75.4893 41.2149 75.0465 41.5754 74.6702C41.936 74.2861 42.3632 73.9882 42.8571 73.7766C43.3509 73.5649 43.884 73.4591 44.4562 73.4591C44.856 73.4591 45.2401 73.5101 45.6085 73.612C45.9769 73.706 46.314 73.8471 46.6197 74.0353L46.3963 75.6814C46.2709 75.6814 46.169 75.6618 46.0906 75.6226C46.0122 75.5834 45.9691 75.5364 45.9612 75.4815L45.8554 74.3175L46.0435 74.6114C45.8476 74.4468 45.5811 74.3175 45.244 74.2234C44.9069 74.1215 44.5542 74.0705 44.1857 74.0705C43.637 74.0705 43.1589 74.2038 42.7513 74.4703C42.3436 74.729 42.0301 75.1013 41.8106 75.5873C41.5911 76.0733 41.4814 76.6495 41.4814 77.3158C41.4814 77.9978 41.5911 78.5935 41.8106 79.103C42.0379 79.6125 42.3515 80.0084 42.7513 80.2906C43.151 80.5728 43.6135 80.7139 44.1387 80.7139C44.5463 80.7139 44.9265 80.6316 45.2793 80.467C45.6398 80.3024 45.9064 80.0868 46.0788 79.8203L45.8672 80.2788L46.0083 78.668C46.1807 78.668 46.3061 78.6836 46.3845 78.715C46.4629 78.7464 46.5139 78.7934 46.5374 78.8561L46.6079 80.3847C46.2944 80.6669 45.8946 80.8903 45.4086 81.0549C44.9226 81.2195 44.4248 81.3018 43.9153 81.3018ZM50.1824 81.3018C49.4534 81.3018 48.8772 81.0745 48.454 80.6198C48.0307 80.1652 47.819 79.5577 47.819 78.7973C47.819 78.2094 47.9405 77.6842 48.1835 77.2217C48.4344 76.7592 48.7753 76.3947 49.2065 76.1282C49.6376 75.8617 50.1315 75.7284 50.688 75.7284C51.174 75.7284 51.5934 75.8343 51.9461 76.0459C52.2989 76.2497 52.5732 76.5397 52.7692 76.916C52.9652 77.2923 53.0632 77.7352 53.0632 78.2447C53.0632 78.8404 52.9417 79.3695 52.6987 79.832C52.4557 80.2867 52.1147 80.6473 51.6757 80.9138C51.2446 81.1725 50.7468 81.3018 50.1824 81.3018ZM50.4058 80.902C50.931 80.902 51.3347 80.6904 51.6169 80.2671C51.9069 79.8438 52.052 79.252 52.052 78.4916C52.052 77.7312 51.9187 77.1472 51.6522 76.7396C51.3857 76.332 50.9976 76.1282 50.4881 76.1282C49.9629 76.1282 49.5553 76.3399 49.2653 76.7631C48.9752 77.1786 48.8302 77.7744 48.8302 78.5504C48.8302 79.3108 48.9635 79.8947 49.23 80.3024C49.5044 80.7021 49.8963 80.902 50.4058 80.902ZM54.0744 81.1607C54.0744 80.9099 54.1371 80.7688 54.2625 80.7374L54.9327 80.514L54.8034 80.6786V76.3516L54.9445 76.528L54.2507 76.3986C54.1332 76.3751 54.0744 76.238 54.0744 75.9871C54.3722 75.9401 54.5956 75.9087 54.7446 75.893C54.9013 75.8695 55.0307 75.8578 55.1326 75.8578C55.3364 75.8578 55.4814 75.9087 55.5676 76.0106C55.6539 76.1125 55.697 76.2771 55.697 76.5045V76.9395L55.65 76.9042H55.7558C56.0536 76.5437 56.3986 76.2575 56.7905 76.0459C57.1903 75.8343 57.5705 75.7284 57.931 75.7284C58.37 75.7284 58.6953 75.8852 58.907 76.1988C59.1186 76.5123 59.2244 76.9866 59.2244 77.6215V80.7021L59.0833 80.5375L59.8829 80.7256C59.8829 80.8432 59.8672 80.9334 59.8359 80.9961C59.8123 81.051 59.7614 81.1058 59.683 81.1607H57.6253C57.6253 80.9099 57.688 80.7688 57.8135 80.7374L58.4014 80.561L58.272 80.7256V77.645C58.272 76.8141 57.9781 76.3986 57.3902 76.3986C57.1707 76.3986 56.9512 76.4457 56.7317 76.5397C56.5122 76.626 56.3084 76.7475 56.1203 76.9042C55.94 77.0532 55.7871 77.2178 55.6617 77.3981L55.7558 77.1747V80.7021L55.6147 80.5375L56.4142 80.7256C56.4142 80.8432 56.3986 80.9334 56.3672 80.9961C56.3437 81.051 56.2888 81.1058 56.2026 81.1607H54.0744ZM61.094 81.1607C61.094 80.9099 61.1567 80.7688 61.2821 80.7374L61.87 80.561L61.7407 80.7256V77.645C61.7407 76.8141 61.4467 76.3986 60.8588 76.3986C60.5374 76.3986 60.22 76.4966 59.9064 76.6926C59.6007 76.8807 59.3499 77.112 59.1539 77.3863L59.0245 76.9042H59.2009C59.5066 76.5437 59.8555 76.2575 60.2474 76.0459C60.6472 75.8343 61.0274 75.7284 61.3879 75.7284C61.8347 75.7284 62.164 75.8852 62.3756 76.1988C62.5873 76.5123 62.6931 76.9866 62.6931 77.6215V80.6551L62.552 80.5022L63.4221 80.7256C63.4221 80.8432 63.4064 80.9334 63.3751 80.9961C63.3515 81.051 63.3006 81.1058 63.2222 81.1607H61.094ZM64.4098 81.1607C64.4098 80.9099 64.4725 80.7688 64.5979 80.7374L65.2681 80.514L65.1388 80.6786V76.3516L65.2799 76.528L64.5862 76.3986C64.4686 76.3751 64.4098 76.238 64.4098 75.9871C64.7077 75.9401 64.9311 75.9087 65.08 75.893C65.2368 75.8695 65.3661 75.8578 65.468 75.8578C65.6718 75.8578 65.8168 75.9087 65.9031 76.0106C65.9893 76.1125 66.0324 76.2771 66.0324 76.5045V76.9395L65.9854 76.9042H66.0912C66.3891 76.5437 66.734 76.2575 67.1259 76.0459C67.5257 75.8343 67.9059 75.7284 68.2665 75.7284C68.7054 75.7284 69.0307 75.8852 69.2424 76.1988C69.454 76.5123 69.5599 76.9866 69.5599 77.6215V80.7021L69.4188 80.5375L70.2183 80.7256C70.2183 80.8432 70.2026 80.9334 70.1713 80.9961C70.1478 81.051 70.0968 81.1058 70.0184 81.1607H67.9607C67.9607 80.9099 68.0235 80.7688 68.1489 80.7374L68.7368 80.561L68.6074 80.7256V77.645C68.6074 76.8141 68.3135 76.3986 67.7256 76.3986C67.5061 76.3986 67.2866 76.4457 67.0671 76.5397C66.8476 76.626 66.6438 76.7475 66.4557 76.9042C66.2754 77.0532 66.1226 77.2178 65.9971 77.3981L66.0912 77.1747V80.7021L65.9501 80.5375L66.7497 80.7256C66.7497 80.8432 66.734 80.9334 66.7026 80.9961C66.6791 81.051 66.6242 81.1058 66.538 81.1607H64.4098ZM71.4294 81.1607C71.4294 80.9099 71.4921 80.7688 71.6175 80.7374L72.2054 80.561L72.0761 80.7256V77.645C72.0761 76.8141 71.7821 76.3986 71.1942 76.3986C70.8728 76.3986 70.5554 76.4966 70.2418 76.6926C69.9361 76.8807 69.6853 77.112 69.4893 77.3863L69.36 76.9042H69.5363C69.842 76.5437 70.1909 76.2575 70.5828 76.0459C70.9826 75.8343 71.3628 75.7284 71.7234 75.7284C72.1702 75.7284 72.4994 75.8852 72.711 76.1988C72.9227 76.5123 73.0285 76.9866 73.0285 77.6215V80.6551L72.8874 80.5022L73.7575 80.7256C73.7575 80.8432 73.7418 80.9334 73.7105 80.9961C73.687 81.051 73.636 81.1058 73.5576 81.1607H71.4294ZM76.6853 81.3018C76.2385 81.3018 75.8936 81.1568 75.6506 80.8667C75.4076 80.5689 75.2861 80.1025 75.2861 79.4675V76.4104L75.4624 76.5868L74.7334 76.4574C74.6786 76.4496 74.6355 76.4143 74.6041 76.3516C74.5727 76.2811 74.5571 76.1792 74.5571 76.0459C74.8549 76.0067 75.0783 75.9793 75.2273 75.9636C75.3841 75.9401 75.5095 75.9283 75.6035 75.9283C75.8152 75.9283 75.972 75.9793 76.0739 76.0812C76.1836 76.1831 76.2385 76.3438 76.2385 76.5633V79.444C76.2385 79.8673 76.3208 80.1809 76.4854 80.3847C76.6579 80.5806 76.9087 80.6786 77.2379 80.6786C77.4496 80.6786 77.6455 80.6433 77.8258 80.5728C78.014 80.5022 78.1786 80.4082 78.3197 80.2906C78.4686 80.1652 78.594 80.028 78.6959 79.8791L78.6136 80.079V76.4104L78.79 76.5868L78.0492 76.4574C77.9944 76.4496 77.9513 76.4143 77.9199 76.3516C77.8964 76.2811 77.8846 76.1792 77.8846 76.0459C78.1825 76.0067 78.4059 75.9793 78.5548 75.9636C78.7116 75.9401 78.8331 75.9283 78.9193 75.9283C79.1388 75.9283 79.2995 75.9793 79.4014 76.0812C79.5033 76.1831 79.5543 76.3438 79.5543 76.5633V80.3141C79.5543 80.4474 79.5817 80.5493 79.6366 80.6198C79.6993 80.6904 79.7816 80.7256 79.8835 80.7256C79.9697 80.7256 80.0599 80.7061 80.154 80.6669C80.2559 80.6198 80.346 80.565 80.4244 80.5022L80.5185 80.8197C80.3852 80.9687 80.2206 81.0862 80.0246 81.1725C79.8286 81.2587 79.6405 81.3018 79.4602 81.3018C79.2172 81.3018 79.0252 81.2234 78.8841 81.0666C78.743 80.902 78.6724 80.6708 78.6724 80.3729H78.6136C78.0806 80.9922 77.4378 81.3018 76.6853 81.3018ZM81.4356 81.1607C81.4356 80.9099 81.4983 80.7688 81.6237 80.7374L82.2939 80.514L82.1646 80.7139V76.3516L82.3057 76.528L81.612 76.3986C81.4944 76.3751 81.4356 76.238 81.4356 75.9871C81.7335 75.9401 81.9569 75.9087 82.1058 75.893C82.2626 75.8695 82.3919 75.8578 82.4938 75.8578C82.6976 75.8578 82.8427 75.9087 82.9289 76.0106C83.0151 76.1125 83.0582 76.2771 83.0582 76.5045V76.9395L82.9877 76.9042H83.117C83.4306 76.5437 83.7872 76.2575 84.187 76.0459C84.5946 75.8343 84.9905 75.7284 85.3746 75.7284C86.2839 75.7284 86.7385 76.3595 86.7385 77.6215V80.6551L86.5974 80.5022L87.4675 80.7256C87.4675 80.8432 87.4558 80.9334 87.4323 80.9961C87.4087 81.051 87.3578 81.1058 87.2794 81.1607H85.1512C85.1512 80.9099 85.2139 80.7688 85.3393 80.7374L85.9154 80.561L85.7979 80.7609V77.645C85.7979 76.8141 85.4843 76.3986 84.8572 76.3986C84.622 76.3986 84.3869 76.4457 84.1517 76.5397C83.9244 76.626 83.7128 76.7475 83.5168 76.9042C83.3208 77.0532 83.1562 77.2178 83.0229 77.3981L83.117 77.1747V80.7021L82.9759 80.5375L83.7755 80.7256C83.7755 80.8432 83.7598 80.9334 83.7284 80.9961C83.7049 81.051 83.65 81.1058 83.5638 81.1607H81.4356ZM88.4552 81.1607C88.4552 80.9099 88.5179 80.7688 88.6433 80.7374L89.3488 80.514L89.2195 80.6786V76.3046L89.3606 76.481L88.6316 76.3516C88.514 76.3359 88.4552 76.1988 88.4552 75.9401C88.7217 75.9009 88.9412 75.8734 89.1137 75.8578C89.294 75.8343 89.4703 75.8225 89.6428 75.8225C90.0034 75.8225 90.1837 76.0459 90.1837 76.4927V80.6551L90.0426 80.5022L90.9832 80.7256C90.9832 80.8432 90.9675 80.9334 90.9362 80.9961C90.9127 81.051 90.8578 81.1058 90.7716 81.1607H88.4552ZM89.6545 74.6584C89.4664 74.6584 89.3214 74.6075 89.2195 74.5056C89.1176 74.3958 89.0666 74.2547 89.0666 74.0823C89.0666 73.9098 89.1254 73.7687 89.243 73.659C89.3684 73.5493 89.5056 73.4944 89.6545 73.4944C89.8427 73.4944 89.9877 73.5493 90.0896 73.659C90.1993 73.7609 90.2542 73.902 90.2542 74.0823C90.2542 74.2469 90.1915 74.3841 90.0661 74.4938C89.9485 74.6036 89.8113 74.6584 89.6545 74.6584ZM93.6993 81.3018C93.3231 81.3018 93.0409 81.1842 92.8528 80.9491C92.6725 80.7139 92.5823 80.3572 92.5823 79.8791V74.8466C92.6529 74.7839 92.7391 74.729 92.841 74.682C92.9507 74.6271 93.0644 74.5801 93.182 74.5409C93.3074 74.5017 93.425 74.4781 93.5347 74.4703V79.738C93.5347 80.0437 93.5778 80.2671 93.6641 80.4082C93.7581 80.5414 93.9188 80.6081 94.1462 80.6081C94.3264 80.6081 94.5185 80.5689 94.7223 80.4905C94.934 80.4121 95.1378 80.2867 95.3337 80.1142L95.4983 80.4082C95.42 80.5179 95.2867 80.6433 95.0986 80.7844C94.9183 80.9255 94.7066 81.047 94.4636 81.1489C94.2206 81.2508 93.9659 81.3018 93.6993 81.3018ZM95.0163 76.5045L91.7828 76.4457C91.7828 76.3359 91.7945 76.238 91.818 76.1517C91.8494 76.0577 91.8925 75.991 91.9474 75.9518L95.2397 75.8225C95.2553 75.8617 95.2671 75.9009 95.2749 75.9401C95.2828 75.9714 95.2867 76.0067 95.2867 76.0459C95.2867 76.1713 95.2632 76.2771 95.2162 76.3634C95.1691 76.4418 95.1025 76.4888 95.0163 76.5045ZM96.1215 84.3354C95.902 84.3354 95.7296 84.2884 95.6042 84.1943C95.4866 84.1081 95.4278 83.9983 95.4278 83.8651C95.4278 83.818 95.4356 83.7632 95.4513 83.7005C95.467 83.6378 95.4905 83.579 95.5219 83.5241H95.7688C96.1215 83.5241 96.4155 83.481 96.6506 83.3948C96.8858 83.3164 97.0896 83.1831 97.2621 82.995C97.4345 82.8068 97.5952 82.5482 97.7441 82.2189C97.9009 81.8975 98.0695 81.4938 98.2498 81.0078L98.2027 81.5605L96.145 76.4457L96.3567 76.5985L95.4748 76.3869C95.4748 76.2693 95.4905 76.1831 95.5219 76.1282C95.5532 76.0655 95.6081 76.0067 95.6865 75.9518H97.8265C97.8265 76.2027 97.7637 76.3477 97.6383 76.3869L96.9328 76.5868L97.0975 76.3869L98.7318 80.4905H98.4614L100.013 76.4457L100.084 76.5985L99.2609 76.3869C99.2609 76.2458 99.2727 76.1478 99.2962 76.0929C99.3276 76.0302 99.3864 75.9832 99.4726 75.9518H101.248C101.248 76.0851 101.232 76.187 101.201 76.2575C101.17 76.3203 101.123 76.3595 101.06 76.3751L100.39 76.5868L100.601 76.3751L98.7201 81.2665C98.3595 82.1993 97.9519 82.944 97.4972 83.5006C97.0426 84.0571 96.584 84.3354 96.1215 84.3354ZM108.08 81.3018C107.39 81.3018 106.782 81.1489 106.257 80.8432C105.732 80.5297 105.32 80.1025 105.022 79.5616C104.732 79.0129 104.587 78.3819 104.587 77.6685C104.587 77.0649 104.689 76.5084 104.893 75.9989C105.097 75.4893 105.379 75.0465 105.74 74.6702C106.1 74.2861 106.527 73.9882 107.021 73.7766C107.515 73.5649 108.048 73.4591 108.62 73.4591C109.02 73.4591 109.404 73.5101 109.773 73.612C110.141 73.706 110.478 73.8471 110.784 74.0353L110.561 75.6814C110.435 75.6814 110.333 75.6618 110.255 75.6226C110.176 75.5834 110.133 75.5364 110.125 75.4815L110.02 74.3175L110.208 74.6114C110.012 74.4468 109.745 74.3175 109.408 74.2234C109.071 74.1215 108.718 74.0705 108.35 74.0705C107.801 74.0705 107.323 74.2038 106.916 74.4703C106.508 74.729 106.194 75.1013 105.975 75.5873C105.755 76.0733 105.646 76.6495 105.646 77.3158C105.646 77.9978 105.755 78.5935 105.975 79.103C106.202 79.6125 106.516 80.0084 106.916 80.2906C107.315 80.5728 107.778 80.7139 108.303 80.7139C108.711 80.7139 109.091 80.6316 109.444 80.467C109.804 80.3024 110.071 80.0868 110.243 79.8203L110.031 80.2788L110.173 78.668C110.345 78.668 110.47 78.6836 110.549 78.715C110.627 78.7464 110.678 78.7934 110.702 78.8561L110.772 80.3847C110.459 80.6669 110.059 80.8903 109.573 81.0549C109.087 81.2195 108.589 81.3018 108.08 81.3018ZM114.347 81.3018C113.618 81.3018 113.042 81.0745 112.618 80.6198C112.195 80.1652 111.983 79.5577 111.983 78.7973C111.983 78.2094 112.105 77.6842 112.348 77.2217C112.599 76.7592 112.94 76.3947 113.371 76.1282C113.802 75.8617 114.296 75.7284 114.852 75.7284C115.338 75.7284 115.758 75.8343 116.11 76.0459C116.463 76.2497 116.737 76.5397 116.933 76.916C117.129 77.2923 117.227 77.7352 117.227 78.2447C117.227 78.8404 117.106 79.3695 116.863 79.832C116.62 80.2867 116.279 80.6473 115.84 80.9138C115.409 81.1725 114.911 81.3018 114.347 81.3018ZM114.57 80.902C115.095 80.902 115.499 80.6904 115.781 80.2671C116.071 79.8438 116.216 79.252 116.216 78.4916C116.216 77.7312 116.083 77.1472 115.816 76.7396C115.55 76.332 115.162 76.1282 114.652 76.1282C114.127 76.1282 113.72 76.3399 113.43 76.7631C113.139 77.1786 112.994 77.7744 112.994 78.5504C112.994 79.3108 113.128 79.8947 113.394 80.3024C113.669 80.7021 114.061 80.902 114.57 80.902ZM118.721 81.3018C118.54 81.3018 118.399 81.2508 118.297 81.1489C118.196 81.0392 118.145 80.8981 118.145 80.7256C118.145 80.561 118.203 80.4278 118.321 80.3259C118.438 80.2161 118.572 80.1613 118.721 80.1613C118.909 80.1613 119.054 80.2122 119.156 80.3141C119.258 80.416 119.309 80.5532 119.309 80.7256C119.309 80.8903 119.25 81.0274 119.132 81.1372C119.015 81.2469 118.877 81.3018 118.721 81.3018Z" fill="#076A60"/>
<path d="M2.65286 92.6117C2.88324 92.6117 3.10316 92.5733 3.3126 92.4965C3.52437 92.4173 3.70938 92.3196 3.86762 92.2032C4.02587 92.0846 4.15037 91.9647 4.24113 91.8437L4.1399 91.6447C3.97467 91.8123 3.78385 91.9519 3.56742 92.0636C3.351 92.1753 3.12643 92.2312 2.89372 92.2312C2.58421 92.2312 2.30961 92.1544 2.06991 92.0008C1.83022 91.8472 1.64172 91.6215 1.50442 91.3236C1.36944 91.0257 1.30196 90.6685 1.30196 90.2519C1.30196 89.8819 1.36246 89.5526 1.48347 89.2641C1.60448 88.9755 1.76855 88.7521 1.97566 88.5939C2.18278 88.4333 2.40967 88.353 2.65635 88.353C3.08454 88.353 3.39638 88.4798 3.59186 88.7335L3.71752 89.5713L3.95489 89.6062L4.0631 88.4368C3.76057 88.2064 3.35216 88.0912 2.83787 88.0912C2.37709 88.0912 1.98846 88.2099 1.67197 88.4473C1.35548 88.6823 1.11928 88.9802 0.963358 89.3409C0.809767 89.7016 0.732971 90.0658 0.732971 90.4335C0.732971 90.8779 0.816748 91.2654 0.984302 91.5959C1.15418 91.924 1.38457 92.1753 1.67546 92.3499C1.96868 92.5244 2.29448 92.6117 2.65286 92.6117ZM5.93412 92.6186C6.18778 92.6186 6.42165 92.55 6.63575 92.4127C6.84985 92.2754 7.01973 92.0834 7.14539 91.8367C7.27106 91.59 7.33389 91.3085 7.33389 90.992C7.33389 90.6941 7.28037 90.4253 7.17332 90.1856C7.06627 89.9459 6.91268 89.7574 6.71255 89.6201C6.51474 89.4828 6.28435 89.4142 6.02139 89.4142C5.75842 89.4142 5.51524 89.4817 5.29183 89.6166C5.06843 89.7516 4.8904 89.9459 4.75775 90.1996C4.62743 90.4509 4.56227 90.7476 4.56227 91.0897C4.56227 91.3899 4.61812 91.6564 4.72983 91.8891C4.84386 92.1195 5.00443 92.2987 5.21154 92.4267C5.42099 92.5546 5.66184 92.6186 5.93412 92.6186ZM5.87129 89.7109C6.0784 89.7109 6.25526 89.7842 6.40187 89.9308C6.54848 90.0751 6.65786 90.2613 6.73 90.4893C6.80447 90.7174 6.8417 90.9536 6.8417 91.1979C6.8417 91.405 6.81029 91.5959 6.74745 91.7704C6.68462 91.9426 6.59386 92.0799 6.47518 92.1823C6.35649 92.2847 6.21687 92.3359 6.05629 92.3359C5.8422 92.3359 5.65952 92.2672 5.50825 92.1299C5.35699 91.9903 5.24296 91.8065 5.16616 91.5784C5.0917 91.3504 5.05446 91.1037 5.05446 90.8384C5.05446 90.6313 5.08588 90.4416 5.14871 90.2694C5.21387 90.0972 5.30812 89.9611 5.43146 89.861C5.5548 89.7609 5.70141 89.7109 5.87129 89.7109ZM9.19444 92.3219L8.68479 92.2242V90.1856C8.82442 90.046 8.95707 89.9471 9.08273 89.8889C9.2084 89.8284 9.35268 89.7982 9.51558 89.7982C9.69012 89.7982 9.83207 89.8598 9.94145 89.9832C10.0531 90.1042 10.109 90.2903 10.109 90.5417V92.2242L9.6203 92.3429L9.59238 92.5244H11.034L11.0585 92.3219L10.5663 92.2242V90.43C10.5663 90.0949 10.4941 89.8424 10.3499 89.6725C10.2056 89.5026 10.0089 89.4177 9.75993 89.4177C9.54816 89.4177 9.34337 89.4747 9.14557 89.5887C8.94776 89.7027 8.79068 89.8319 8.67432 89.9762H8.6464L8.6813 89.5154L8.63941 89.4665L7.71438 89.5713L7.68994 89.7528L8.231 89.8889V92.2242L7.69692 92.3429L7.669 92.5244H9.15953L9.19444 92.3219ZM12.9295 92.3219L12.4198 92.2242V90.1856C12.5595 90.046 12.6921 89.9471 12.8178 89.8889C12.9435 89.8284 13.0877 89.7982 13.2506 89.7982C13.4252 89.7982 13.5671 89.8598 13.6765 89.9832C13.7882 90.1042 13.8441 90.2903 13.8441 90.5417V92.2242L13.3554 92.3429L13.3274 92.5244H14.7691L14.7935 92.3219L14.3013 92.2242V90.43C14.3013 90.0949 14.2292 89.8424 14.0849 89.6725C13.9406 89.5026 13.744 89.4177 13.495 89.4177C13.2832 89.4177 13.0784 89.4747 12.8806 89.5887C12.6828 89.7027 12.5257 89.8319 12.4094 89.9762H12.3814L12.4164 89.5154L12.3745 89.4665L11.4494 89.5713L11.425 89.7528L11.9661 89.8889V92.2242L11.432 92.3429L11.4041 92.5244H12.8946L12.9295 92.3219ZM16.4062 92.6291C16.6296 92.6291 16.8344 92.5872 17.0206 92.5034C17.2068 92.4197 17.3615 92.3056 17.4849 92.1614L17.4185 92.0078C17.2882 92.0962 17.1637 92.159 17.045 92.1963C16.9263 92.2335 16.7937 92.2521 16.6471 92.2521C16.4283 92.2521 16.2445 92.1928 16.0956 92.0741C15.9466 91.9554 15.8349 91.7995 15.7605 91.6063C15.6883 91.4132 15.6499 91.2014 15.6453 90.971L17.3348 90.9501C17.351 90.8896 17.365 90.8128 17.3766 90.7197C17.3883 90.6243 17.3941 90.5487 17.3941 90.4928C17.3941 90.1391 17.315 89.8738 17.1567 89.6969C17.0008 89.5201 16.789 89.4316 16.5214 89.4316C16.291 89.4316 16.07 89.4968 15.8582 89.6271C15.6487 89.7551 15.4789 89.9424 15.3485 90.1891C15.2182 90.4358 15.1531 90.7255 15.1531 91.0583C15.1531 91.3981 15.2101 91.6866 15.3241 91.924C15.4381 92.159 15.5894 92.3359 15.7779 92.4546C15.9687 92.5709 16.1782 92.6291 16.4062 92.6291ZM16.3504 89.7004C16.5203 89.7004 16.6541 89.7632 16.7518 89.8889C16.8519 90.0146 16.9019 90.1833 16.9019 90.3951C16.9019 90.5347 16.8938 90.6278 16.8775 90.6743L15.6522 90.7546C15.6569 90.5265 15.6906 90.3334 15.7535 90.1751C15.8186 90.0169 15.9024 89.8982 16.0048 89.8191C16.1095 89.74 16.2247 89.7004 16.3504 89.7004ZM19.1011 92.6291C19.2453 92.6291 19.3885 92.607 19.5304 92.5628C19.6724 92.5209 19.7992 92.465 19.9109 92.3952C20.0226 92.3254 20.1087 92.2498 20.1692 92.1683L20.0959 92.0078C19.8702 92.1916 19.6154 92.2835 19.3314 92.2835C19.122 92.2835 18.9405 92.2219 18.7869 92.0985C18.6333 91.9729 18.5158 91.8018 18.4343 91.5854C18.3529 91.3666 18.3122 91.1211 18.3122 90.8489C18.3122 90.6092 18.3447 90.4032 18.4099 90.231C18.4751 90.0565 18.5635 89.9238 18.6752 89.8331C18.7869 89.7423 18.9126 89.6969 19.0522 89.6969C19.2081 89.6969 19.3361 89.7528 19.4362 89.8645C19.5362 89.9762 19.6223 90.1333 19.6945 90.3357C19.9156 90.2985 20.0261 90.1833 20.0261 89.9901C20.0261 89.8924 19.9982 89.8005 19.9423 89.7144C19.8865 89.6283 19.798 89.5585 19.677 89.5049C19.5583 89.4514 19.4059 89.4246 19.2197 89.4246C18.9661 89.4246 18.7322 89.4945 18.5181 89.6341C18.3063 89.7714 18.1376 89.968 18.012 90.224C17.8863 90.48 17.8235 90.7755 17.8235 91.1107C17.8235 91.3922 17.8747 91.6482 17.977 91.8786C18.0794 92.109 18.2272 92.2917 18.4204 92.4267C18.6135 92.5616 18.8404 92.6291 19.1011 92.6291ZM20.8813 91.6482C20.879 91.9833 20.9337 92.2277 21.0454 92.3813C21.1594 92.5325 21.327 92.6082 21.548 92.6082C21.7202 92.6082 21.8843 92.564 22.0402 92.4755C22.1985 92.3848 22.3311 92.2626 22.4382 92.109L22.3718 91.9554C22.3718 91.9577 22.3404 91.9798 22.2776 92.0217C22.2171 92.0613 22.1461 92.0985 22.0647 92.1334C21.9855 92.166 21.9076 92.1823 21.8308 92.1823C21.7168 92.1823 21.6248 92.1614 21.555 92.1195C21.4852 92.0753 21.4328 91.9996 21.3979 91.8926C21.3654 91.7855 21.3491 91.6354 21.3491 91.4423L21.3595 89.8435H22.323L22.3509 89.5922H21.363V88.7963H21.199C21.1082 89.0221 21.0023 89.2094 20.8813 89.3583C20.7626 89.5049 20.6195 89.6166 20.452 89.6934V89.8331H20.8953L20.8813 91.6482ZM23.4749 88.7091C23.568 88.7091 23.6413 88.6753 23.6948 88.6078C23.7483 88.5403 23.7751 88.4507 23.7751 88.339C23.7751 88.232 23.7472 88.1459 23.6913 88.0807C23.6355 88.0156 23.5633 87.983 23.4749 87.983C23.3865 87.983 23.3155 88.0156 23.262 88.0807C23.2084 88.1459 23.1817 88.232 23.1817 88.339C23.1817 88.4484 23.2073 88.538 23.2585 88.6078C23.312 88.6753 23.3841 88.7091 23.4749 88.7091ZM24.2847 92.5244L24.3231 92.3254L23.7646 92.2207V89.484L23.7088 89.4281L22.8047 89.5049L22.7768 89.683L23.3074 89.8296V92.2207L22.7803 92.3324L22.7384 92.5244H24.2847ZM26.2151 92.3219L25.7055 92.2242V90.1856C25.8451 90.046 25.9777 89.9471 26.1034 89.8889C26.2291 89.8284 26.3734 89.7982 26.5363 89.7982C26.7108 89.7982 26.8527 89.8598 26.9621 89.9832C27.0738 90.1042 27.1297 90.2903 27.1297 90.5417V92.2242L26.641 92.3429L26.613 92.5244H28.0547L28.0791 92.3219L27.587 92.2242V90.43C27.587 90.0949 27.5148 89.8424 27.3705 89.6725C27.2262 89.5026 27.0296 89.4177 26.7806 89.4177C26.5688 89.4177 26.364 89.4747 26.1662 89.5887C25.9684 89.7027 25.8113 89.8319 25.695 89.9762H25.6671L25.702 89.5154L25.6601 89.4665L24.735 89.5713L24.7106 89.7528L25.2517 89.8889V92.2242L24.7176 92.3429L24.6897 92.5244H26.1802L26.2151 92.3219ZM29.5976 93.8753C29.8652 93.8753 30.1177 93.8206 30.3551 93.7112C30.5948 93.6042 30.7868 93.4599 30.931 93.2784C31.0777 93.0992 31.151 92.9095 31.151 92.7094C31.151 92.5279 31.1137 92.3906 31.0393 92.2975C30.9648 92.2021 30.8612 92.1393 30.7286 92.109C30.5959 92.0787 30.4249 92.0636 30.2155 92.0636H29.6779C29.4731 92.0636 29.323 92.0415 29.2276 91.9973C29.1322 91.9531 29.0845 91.8844 29.0845 91.7913C29.0845 91.7378 29.1031 91.6878 29.1403 91.6412C29.1776 91.5947 29.2357 91.533 29.3149 91.4562C29.3474 91.4679 29.394 91.4795 29.4545 91.4911C29.5173 91.5028 29.579 91.5086 29.6395 91.5086C29.8117 91.5086 29.9827 91.4632 30.1526 91.3725C30.3248 91.2817 30.4656 91.1572 30.575 90.999C30.6844 90.8384 30.7391 90.6627 30.7391 90.4719C30.7391 90.3764 30.7216 90.2717 30.6867 90.1577C30.6518 90.0413 30.618 89.9541 30.5855 89.8959L30.5959 89.8575L31.0881 90.0006L31.13 89.9936L31.2522 89.662L31.1963 89.5992C31.1219 89.6062 30.9997 89.6166 30.8298 89.6306C30.6599 89.6422 30.5273 89.6504 30.4319 89.655C30.2248 89.5084 30.0025 89.4351 29.7652 89.4351C29.5697 89.4351 29.3858 89.484 29.2136 89.5817C29.0437 89.6795 28.9076 89.811 28.8052 89.9762C28.7028 90.1414 28.6516 90.3183 28.6516 90.5068C28.6516 90.6534 28.6807 90.7895 28.7389 90.9152C28.7994 91.0385 28.8704 91.1409 28.9518 91.2224C29.0356 91.3038 29.1112 91.3573 29.1787 91.3829V91.4004C29.0414 91.4749 28.9181 91.5668 28.8087 91.6762C28.7017 91.7832 28.6481 91.8774 28.6481 91.9589C28.6481 92.0543 28.6784 92.1404 28.7389 92.2172C28.8017 92.294 28.8832 92.3557 28.9832 92.4022V92.4267C28.8157 92.5151 28.6749 92.6105 28.5609 92.7129C28.4468 92.8153 28.3898 92.9444 28.3898 93.1004C28.3898 93.2679 28.4422 93.4099 28.5469 93.5262C28.6516 93.6426 28.7947 93.7298 28.9763 93.788C29.1578 93.8462 29.3649 93.8753 29.5976 93.8753ZM29.6814 89.6446C29.8001 89.6446 29.9048 89.6876 29.9955 89.7737C30.0886 89.8598 30.1596 89.9727 30.2085 90.1123C30.2597 90.2519 30.2853 90.3986 30.2853 90.5521C30.2853 90.7872 30.2341 90.9664 30.1317 91.0897C30.0293 91.2107 29.8966 91.2712 29.7337 91.2712C29.6197 91.2712 29.5138 91.2328 29.4161 91.156C29.3183 91.0792 29.2404 90.9768 29.1822 90.8489C29.124 90.7185 29.0949 90.5801 29.0949 90.4335C29.0949 90.1914 29.1426 89.9994 29.2381 89.8575C29.3358 89.7155 29.4836 89.6446 29.6814 89.6446ZM29.9327 92.465C30.1445 92.465 30.305 92.4802 30.4144 92.5104C30.5261 92.5384 30.6018 92.5826 30.6413 92.6431C30.6832 92.7036 30.7042 92.7885 30.7042 92.8979C30.7042 93.0468 30.6634 93.1713 30.582 93.2714C30.5029 93.3715 30.3958 93.4459 30.2608 93.4948C30.1282 93.5437 29.9839 93.5681 29.828 93.5681C29.1857 93.5681 28.8646 93.3552 28.8646 92.9293C28.8646 92.8246 28.889 92.7373 28.9379 92.6675C28.9867 92.6 29.0414 92.5477 29.1019 92.5104C29.1624 92.4732 29.1927 92.4581 29.1927 92.465H29.9327ZM31.6606 93.5646C32.0283 93.4576 32.2831 93.3051 32.4251 93.1073C32.567 92.9095 32.638 92.7047 32.638 92.493C32.638 92.3324 32.6101 92.1974 32.5542 92.0881C32.5007 91.9787 32.4309 91.8972 32.3448 91.8437C32.261 91.7902 32.1737 91.7634 32.083 91.7634C31.9829 91.7634 31.8945 91.7972 31.8177 91.8646C31.7432 91.9298 31.706 92.0194 31.706 92.1334C31.706 92.173 31.7153 92.2207 31.7339 92.2766C31.7642 92.2696 31.7979 92.2661 31.8351 92.2661C31.9468 92.2661 32.0399 92.308 32.1144 92.3917C32.1889 92.4732 32.2261 92.5756 32.2261 92.6989C32.2261 93.0038 32.0167 93.2249 31.5978 93.3622L31.6606 93.5646ZM34.7499 88.5066V92.1893L34.16 92.3219L34.139 92.5244H37.525L37.6297 91.4318L37.4133 91.3934L37.1131 92.2626H35.2665V90.4509H36.3242L36.4115 91.1002L36.6418 91.0618L36.757 89.7039L36.5057 89.7423L36.3661 90.1926H35.2665V88.4298H37.0223L37.127 89.2641L37.3609 89.2955L37.4691 88.182H34.1495L34.1181 88.3879L34.7499 88.5066ZM39.4728 92.3219L38.9736 92.2242V90.1996C39.0714 90.0786 39.1924 89.982 39.3367 89.9099C39.4809 89.8354 39.631 89.7982 39.787 89.7982C39.9731 89.7982 40.1197 89.8645 40.2268 89.9971C40.3362 90.1298 40.3909 90.3055 40.3909 90.5242V92.2242L39.9266 92.3359L39.8987 92.5244H41.288L41.3159 92.3219L40.8307 92.2242V90.2205C40.9401 90.1042 41.0587 90.0053 41.1867 89.9238C41.3147 89.8424 41.4567 89.8016 41.6126 89.8016C41.8104 89.8016 41.9617 89.8645 42.0664 89.9901C42.1734 90.1158 42.227 90.2938 42.227 90.5242V92.2242L41.7732 92.3359L41.7522 92.5174H43.138L43.1834 92.3149L42.6877 92.2207V90.4404C42.6877 90.1193 42.6237 89.8715 42.4958 89.6969C42.3678 89.5224 42.1572 89.4351 41.8639 89.4351C41.6591 89.4351 41.4625 89.491 41.274 89.6027C41.0878 89.712 40.9342 89.8447 40.8132 90.0006H40.7748C40.7329 89.8121 40.6445 89.669 40.5095 89.5713C40.3746 89.4712 40.2152 89.4212 40.0313 89.4212C39.8265 89.4212 39.6276 89.477 39.4344 89.5887C39.2436 89.6981 39.0853 89.8296 38.9597 89.9832H38.9317L38.9701 89.5189L38.9282 89.47L37.9893 89.5747L37.9683 89.7563L38.5163 89.8959V92.2242L37.9858 92.3359L37.9543 92.5244H39.4379L39.4728 92.3219ZM45.0475 93.6135L44.5029 93.5227V90.2135C44.6216 90.0902 44.7391 89.9901 44.8555 89.9133C44.9741 89.8366 45.1056 89.7982 45.2499 89.7982C45.5129 89.7982 45.7084 89.9122 45.8364 90.1402C45.9667 90.3683 46.0318 90.6929 46.0318 91.1141C46.0318 91.3585 45.9958 91.5703 45.9236 91.7495C45.8515 91.9286 45.7514 92.0659 45.6234 92.1614C45.4954 92.2544 45.35 92.301 45.1871 92.301C45.0498 92.301 44.9416 92.2952 44.8624 92.2835C44.7833 92.2719 44.7042 92.251 44.6251 92.2207L44.6425 92.5558C44.7845 92.5814 44.9032 92.5942 44.9986 92.5942C45.2895 92.5942 45.5513 92.5232 45.784 92.3813C46.0167 92.2393 46.1982 92.0403 46.3285 91.7844C46.4612 91.5284 46.5275 91.2375 46.5275 90.9117C46.5275 90.5743 46.4821 90.2962 46.3914 90.0774C46.3029 89.8563 46.1796 89.6934 46.0214 89.5887C45.8654 89.484 45.6851 89.4316 45.4803 89.4316C45.2732 89.4316 45.0858 89.4886 44.9183 89.6027C44.7531 89.7167 44.6146 89.8505 44.5029 90.0041H44.4785L44.5099 89.5259L44.4645 89.477L43.5395 89.5747L43.5115 89.7598L44.0491 89.8924V93.5192L43.5185 93.624L43.4976 93.8264H45.0125L45.0475 93.6135ZM48.2484 92.6186C48.5021 92.6186 48.736 92.55 48.9501 92.4127C49.1642 92.2754 49.334 92.0834 49.4597 91.8367C49.5854 91.59 49.6482 91.3085 49.6482 90.992C49.6482 90.6941 49.5947 90.4253 49.4876 90.1856C49.3806 89.9459 49.227 89.7574 49.0269 89.6201C48.829 89.4828 48.5987 89.4142 48.3357 89.4142C48.0727 89.4142 47.8295 89.4817 47.6061 89.6166C47.3827 89.7516 47.2047 89.9459 47.0721 90.1996C46.9417 90.4509 46.8766 90.7476 46.8766 91.0897C46.8766 91.3899 46.9324 91.6564 47.0441 91.8891C47.1582 92.1195 47.3187 92.2987 47.5259 92.4267C47.7353 92.5546 47.9762 92.6186 48.2484 92.6186ZM48.1856 89.7109C48.3927 89.7109 48.5696 89.7842 48.7162 89.9308C48.8628 90.0751 48.9722 90.2613 49.0443 90.4893C49.1188 90.7174 49.156 90.9536 49.156 91.1979C49.156 91.405 49.1246 91.5959 49.0618 91.7704C48.9989 91.9426 48.9082 92.0799 48.7895 92.1823C48.6708 92.2847 48.5312 92.3359 48.3706 92.3359C48.1565 92.3359 47.9738 92.2672 47.8226 92.1299C47.6713 91.9903 47.5573 91.8065 47.4805 91.5784C47.406 91.3504 47.3688 91.1037 47.3688 90.8384C47.3688 90.6313 47.4002 90.4416 47.463 90.2694C47.5282 90.0972 47.6224 89.9611 47.7458 89.861C47.8691 89.7609 48.0157 89.7109 48.1856 89.7109ZM50.3673 89.8191L51.1946 92.6117L51.4983 92.5558L52.0987 90.3252L52.7654 92.6117L53.0621 92.5558L53.837 89.8121L54.214 89.7004L54.242 89.5119H52.9993L52.9748 89.7039L53.5019 89.8191L52.9399 91.8507L52.8282 91.3201L52.3465 89.6725L51.9486 89.7388L51.3796 91.8158L51.2504 91.2677L50.8281 89.8121L51.2993 89.7004L51.3237 89.5119H49.9868L49.9624 89.7039L50.3673 89.8191ZM55.8267 92.6291C56.0501 92.6291 56.2549 92.5872 56.4411 92.5034C56.6273 92.4197 56.782 92.3056 56.9054 92.1614L56.8391 92.0078C56.7087 92.0962 56.5842 92.159 56.4655 92.1963C56.3469 92.2335 56.2142 92.2521 56.0676 92.2521C55.8489 92.2521 55.665 92.1928 55.5161 92.0741C55.3671 91.9554 55.2554 91.7995 55.181 91.6063C55.1088 91.4132 55.0704 91.2014 55.0658 90.971L56.7553 90.9501C56.7716 90.8896 56.7855 90.8128 56.7972 90.7197C56.8088 90.6243 56.8146 90.5487 56.8146 90.4928C56.8146 90.1391 56.7355 89.8738 56.5772 89.6969C56.4213 89.5201 56.2096 89.4316 55.9419 89.4316C55.7116 89.4316 55.4905 89.4968 55.2787 89.6271C55.0693 89.7551 54.8994 89.9424 54.7691 90.1891C54.6387 90.4358 54.5736 90.7255 54.5736 91.0583C54.5736 91.3981 54.6306 91.6866 54.7446 91.924C54.8587 92.159 55.0099 92.3359 55.1984 92.4546C55.3892 92.5709 55.5987 92.6291 55.8267 92.6291ZM55.7709 89.7004C55.9408 89.7004 56.0746 89.7632 56.1723 89.8889C56.2724 90.0146 56.3224 90.1833 56.3224 90.3951C56.3224 90.5347 56.3143 90.6278 56.298 90.6743L55.0728 90.7546C55.0774 90.5265 55.1111 90.3334 55.174 90.1751C55.2391 90.0169 55.3229 89.8982 55.4253 89.8191C55.53 89.74 55.6452 89.7004 55.7709 89.7004ZM59.0556 92.3115L58.2528 92.2172V90.9047C58.2784 90.7162 58.3214 90.5452 58.3819 90.3916C58.4424 90.2357 58.5146 90.1123 58.5984 90.0216C58.6845 89.9308 58.7741 89.8854 58.8671 89.8854C58.9975 89.8854 59.122 89.9459 59.2407 90.0669C59.3081 90.0204 59.3605 89.968 59.3977 89.9099C59.4373 89.8517 59.4571 89.7935 59.4571 89.7353C59.4571 89.6422 59.4222 89.5631 59.3524 89.498C59.2825 89.4328 59.1883 89.4002 59.0696 89.4002C58.9579 89.4002 58.8474 89.4398 58.738 89.5189C58.6309 89.598 58.5332 89.712 58.4448 89.861C58.3587 90.0076 58.2877 90.1798 58.2318 90.3776H58.183L58.2318 89.5224L58.176 89.463L57.2719 89.5643L57.2405 89.7458L57.799 89.8819V92.2242L57.2579 92.3429L57.23 92.5244H59.0277L59.0556 92.3115ZM60.5148 88.7091C60.6078 88.7091 60.6811 88.6753 60.7347 88.6078C60.7882 88.5403 60.815 88.4507 60.815 88.339C60.815 88.232 60.787 88.1459 60.7312 88.0807C60.6753 88.0156 60.6032 87.983 60.5148 87.983C60.4263 87.983 60.3554 88.0156 60.3018 88.0807C60.2483 88.1459 60.2215 88.232 60.2215 88.339C60.2215 88.4484 60.2471 88.538 60.2983 88.6078C60.3519 88.6753 60.424 88.7091 60.5148 88.7091ZM61.3246 92.5244L61.363 92.3254L60.8045 92.2207V89.484L60.7486 89.4281L59.8445 89.5049L59.8166 89.683L60.3472 89.8296V92.2207L59.8201 92.3324L59.7782 92.5244H61.3246ZM63.255 92.3219L62.7453 92.2242V90.1856C62.8849 90.046 63.0176 89.9471 63.1433 89.8889C63.2689 89.8284 63.4132 89.7982 63.5761 89.7982C63.7506 89.7982 63.8926 89.8598 64.002 89.9832C64.1137 90.1042 64.1695 90.2903 64.1695 90.5417V92.2242L63.6808 92.3429L63.6529 92.5244H65.0946L65.119 92.3219L64.6268 92.2242V90.43C64.6268 90.0949 64.5547 89.8424 64.4104 89.6725C64.2661 89.5026 64.0695 89.4177 63.8205 89.4177C63.6087 89.4177 63.4039 89.4747 63.2061 89.5887C63.0083 89.7027 62.8512 89.8319 62.7348 89.9762H62.7069L62.7418 89.5154L62.6999 89.4665L61.7749 89.5713L61.7505 89.7528L62.2915 89.8889V92.2242L61.7575 92.3429L61.7295 92.5244H63.2201L63.255 92.3219ZM66.6375 93.8753C66.9051 93.8753 67.1576 93.8206 67.3949 93.7112C67.6346 93.6042 67.8266 93.4599 67.9709 93.2784C68.1175 93.0992 68.1908 92.9095 68.1908 92.7094C68.1908 92.5279 68.1536 92.3906 68.0791 92.2975C68.0046 92.2021 67.9011 92.1393 67.7684 92.109C67.6358 92.0787 67.4648 92.0636 67.2553 92.0636H66.7177C66.513 92.0636 66.3629 92.0415 66.2674 91.9973C66.172 91.9531 66.1243 91.8844 66.1243 91.7913C66.1243 91.7378 66.1429 91.6878 66.1802 91.6412C66.2174 91.5947 66.2756 91.533 66.3547 91.4562C66.3873 91.4679 66.4338 91.4795 66.4943 91.4911C66.5572 91.5028 66.6188 91.5086 66.6793 91.5086C66.8515 91.5086 67.0226 91.4632 67.1925 91.3725C67.3647 91.2817 67.5055 91.1572 67.6149 90.999C67.7242 90.8384 67.7789 90.6627 67.7789 90.4719C67.7789 90.3764 67.7615 90.2717 67.7266 90.1577C67.6916 90.0413 67.6579 89.9541 67.6253 89.8959L67.6358 89.8575L68.128 90.0006L68.1699 89.9936L68.292 89.662L68.2362 89.5992C68.1617 89.6062 68.0396 89.6166 67.8697 89.6306C67.6998 89.6422 67.5671 89.6504 67.4717 89.655C67.2646 89.5084 67.0424 89.4351 66.805 89.4351C66.6095 89.4351 66.4257 89.484 66.2535 89.5817C66.0836 89.6795 65.9475 89.811 65.8451 89.9762C65.7427 90.1414 65.6915 90.3183 65.6915 90.5068C65.6915 90.6534 65.7206 90.7895 65.7787 90.9152C65.8392 91.0385 65.9102 91.1409 65.9917 91.2224C66.0755 91.3038 66.1511 91.3573 66.2186 91.3829V91.4004C66.0813 91.4749 65.9579 91.5668 65.8486 91.6762C65.7415 91.7832 65.688 91.8774 65.688 91.9589C65.688 92.0543 65.7182 92.1404 65.7787 92.2172C65.8416 92.294 65.923 92.3557 66.0231 92.4022V92.4267C65.8555 92.5151 65.7147 92.6105 65.6007 92.7129C65.4867 92.8153 65.4297 92.9444 65.4297 93.1004C65.4297 93.2679 65.482 93.4099 65.5868 93.5262C65.6915 93.6426 65.8346 93.7298 66.0161 93.788C66.1976 93.8462 66.4047 93.8753 66.6375 93.8753ZM66.7212 89.6446C66.8399 89.6446 66.9446 89.6876 67.0354 89.7737C67.1285 89.8598 67.1995 89.9727 67.2483 90.1123C67.2995 90.2519 67.3251 90.3986 67.3251 90.5521C67.3251 90.7872 67.2739 90.9664 67.1715 91.0897C67.0691 91.2107 66.9365 91.2712 66.7736 91.2712C66.6596 91.2712 66.5537 91.2328 66.4559 91.156C66.3582 91.0792 66.2802 90.9768 66.2221 90.8489C66.1639 90.7185 66.1348 90.5801 66.1348 90.4335C66.1348 90.1914 66.1825 89.9994 66.2779 89.8575C66.3756 89.7155 66.5234 89.6446 66.7212 89.6446ZM66.9726 92.465C67.1843 92.465 67.3449 92.4802 67.4543 92.5104C67.566 92.5384 67.6416 92.5826 67.6812 92.6431C67.7231 92.7036 67.744 92.7885 67.744 92.8979C67.744 93.0468 67.7033 93.1713 67.6218 93.2714C67.5427 93.3715 67.4357 93.4459 67.3007 93.4948C67.168 93.5437 67.0238 93.5681 66.8678 93.5681C66.2256 93.5681 65.9044 93.3552 65.9044 92.9293C65.9044 92.8246 65.9288 92.7373 65.9777 92.6675C66.0266 92.6 66.0813 92.5477 66.1418 92.5104C66.2023 92.4732 66.2325 92.4581 66.2325 92.465H66.9726ZM70.3446 88.4961V92.1893L69.7581 92.3219L69.7372 92.5244H71.4721L71.514 92.3045L70.8647 92.2102V90.4614L73.2139 90.4579V92.1893L72.638 92.3219L72.6031 92.5244H74.3449L74.3729 92.3045L73.7375 92.2102V88.4891L74.3205 88.3809L74.3519 88.182H72.6066L72.5751 88.3809L73.2139 88.4961V90.1786H70.8647V88.4891L71.4546 88.3809L71.4826 88.182H69.7337L69.7093 88.3809L70.3446 88.4961ZM75.9925 92.6291C76.2159 92.6291 76.4207 92.5872 76.6069 92.5034C76.7931 92.4197 76.9478 92.3056 77.0712 92.1614L77.0048 92.0078C76.8745 92.0962 76.75 92.159 76.6313 92.1963C76.5127 92.2335 76.38 92.2521 76.2334 92.2521C76.0146 92.2521 75.8308 92.1928 75.6819 92.0741C75.5329 91.9554 75.4212 91.7995 75.3468 91.6063C75.2746 91.4132 75.2362 91.2014 75.2316 90.971L76.9211 90.9501C76.9374 90.8896 76.9513 90.8128 76.963 90.7197C76.9746 90.6243 76.9804 90.5487 76.9804 90.4928C76.9804 90.1391 76.9013 89.8738 76.743 89.6969C76.5871 89.5201 76.3754 89.4316 76.1077 89.4316C75.8773 89.4316 75.6563 89.4968 75.4445 89.6271C75.2351 89.7551 75.0652 89.9424 74.9349 90.1891C74.8045 90.4358 74.7394 90.7255 74.7394 91.0583C74.7394 91.3981 74.7964 91.6866 74.9104 91.924C75.0245 92.159 75.1757 92.3359 75.3642 92.4546C75.555 92.5709 75.7645 92.6291 75.9925 92.6291ZM75.9367 89.7004C76.1066 89.7004 76.2404 89.7632 76.3381 89.8889C76.4382 90.0146 76.4882 90.1833 76.4882 90.3951C76.4882 90.5347 76.4801 90.6278 76.4638 90.6743L75.2385 90.7546C75.2432 90.5265 75.2769 90.3334 75.3398 90.1751C75.4049 90.0169 75.4887 89.8982 75.5911 89.8191C75.6958 89.74 75.811 89.7004 75.9367 89.7004ZM78.1079 92.6117C78.2755 92.6117 78.4256 92.5826 78.5582 92.5244C78.6932 92.4639 78.8037 92.3929 78.8898 92.3115C78.9759 92.2277 79.0388 92.1474 79.0783 92.0706H79.1062V92.1195C79.1062 92.2475 79.147 92.358 79.2284 92.4511C79.3122 92.5418 79.4344 92.5872 79.5949 92.5872C79.6578 92.5872 79.7136 92.5826 79.7625 92.5733C79.8114 92.5663 79.8707 92.5535 79.9405 92.5349L80.0103 92.5174L80.0418 92.308L79.8393 92.2696C79.7369 92.2533 79.6601 92.223 79.6089 92.1788C79.56 92.1346 79.5275 92.0776 79.5112 92.0078C79.4972 91.938 79.4902 91.8425 79.4902 91.7215V90.4963C79.4902 90.1309 79.4216 89.8633 79.2843 89.6934C79.147 89.5212 78.9282 89.4351 78.628 89.4351C78.4605 89.4351 78.2906 89.4689 78.1184 89.5363C77.9462 89.6038 77.8042 89.6934 77.6925 89.8051C77.5808 89.9145 77.525 90.0285 77.525 90.1472C77.525 90.2659 77.5634 90.3485 77.6402 90.3951C77.7169 90.4393 77.81 90.4614 77.9194 90.4614C77.931 90.2706 77.9497 90.1216 77.9753 90.0146C78.0009 89.9075 78.0439 89.8261 78.1044 89.7702C78.1673 89.7144 78.258 89.6864 78.3767 89.6864C78.6164 89.6864 78.7874 89.7726 78.8898 89.9448C78.9945 90.117 79.0469 90.3625 79.0469 90.6813V90.9152C78.6815 90.9315 78.3744 90.9862 78.1254 91.0792C77.8787 91.17 77.6937 91.2922 77.5703 91.4458C77.4493 91.597 77.3888 91.7716 77.3888 91.9694C77.3888 92.0997 77.4214 92.2137 77.4866 92.3115C77.5541 92.4092 77.6425 92.4837 77.7519 92.5349C77.8612 92.5861 77.9799 92.6117 78.1079 92.6117ZM79.0469 91.8716C78.9841 91.9833 78.8887 92.0787 78.7607 92.1579C78.6327 92.237 78.4919 92.2766 78.3383 92.2766C78.2452 92.2766 78.1638 92.2556 78.0939 92.2137C78.0241 92.1718 77.9706 92.1171 77.9334 92.0497C77.8985 91.9798 77.881 91.9089 77.881 91.8367C77.881 91.4248 78.2696 91.177 79.0469 91.0932V91.8716ZM81.7976 92.5244L81.8395 92.3254L81.2775 92.2207V88.0423L81.2181 87.9865L80.3036 88.0598L80.2826 88.2413L80.8272 88.3844V92.2207L80.2896 92.3324L80.2547 92.5244H81.7976ZM82.562 91.6482C82.5597 91.9833 82.6144 92.2277 82.7261 92.3813C82.8401 92.5325 83.0077 92.6082 83.2288 92.6082C83.401 92.6082 83.565 92.564 83.721 92.4755C83.8792 92.3848 84.0118 92.2626 84.1189 92.109L84.0526 91.9554C84.0526 91.9577 84.0212 91.9798 83.9583 92.0217C83.8978 92.0613 83.8268 92.0985 83.7454 92.1334C83.6663 92.166 83.5883 92.1823 83.5115 92.1823C83.3975 92.1823 83.3056 92.1614 83.2357 92.1195C83.1659 92.0753 83.1136 91.9996 83.0787 91.8926C83.0461 91.7855 83.0298 91.6354 83.0298 91.4423L83.0403 89.8435H84.0037L84.0316 89.5922H83.0438V88.7963H82.8797C82.7889 89.0221 82.6831 89.2094 82.562 89.3583C82.4434 89.5049 82.3002 89.6166 82.1327 89.6934V89.8331H82.576L82.562 91.6482ZM85.9655 92.3219L85.4593 92.2207V90.1856C85.585 90.0483 85.7107 89.9483 85.8363 89.8854C85.962 89.8226 86.1028 89.7912 86.2587 89.7912C86.4356 89.7912 86.581 89.8505 86.695 89.9692C86.8091 90.0879 86.8661 90.2787 86.8661 90.5417V90.5661L86.8556 92.2242L86.3774 92.3359L86.346 92.5244H87.7806L87.8121 92.3219L87.3164 92.2242V90.4719C87.3164 90.0925 87.2454 89.8214 87.1034 89.6585C86.9638 89.4956 86.7637 89.4142 86.5031 89.4142C86.3146 89.4142 86.1272 89.4654 85.941 89.5678C85.7572 89.6702 85.5908 89.8028 85.4419 89.9657H85.4139L85.4593 89.5957V88.0423L85.4035 87.983L84.4819 88.0563L84.4505 88.2448L84.9986 88.3914V92.2207L84.461 92.3254L84.4226 92.5244H85.9306L85.9655 92.3219ZM91.1736 92.6117C91.404 92.6117 91.6239 92.5733 91.8334 92.4965C92.0451 92.4173 92.2301 92.3196 92.3884 92.2032C92.5466 92.0846 92.6711 91.9647 92.7619 91.8437L92.6607 91.6447C92.4954 91.8123 92.3046 91.9519 92.0882 92.0636C91.8717 92.1753 91.6472 92.2312 91.4145 92.2312C91.105 92.2312 90.8304 92.1544 90.5907 92.0008C90.351 91.8472 90.1625 91.6215 90.0252 91.3236C89.8902 91.0257 89.8227 90.6685 89.8227 90.2519C89.8227 89.8819 89.8832 89.5526 90.0042 89.2641C90.1252 88.9755 90.2893 88.7521 90.4964 88.5939C90.7035 88.4333 90.9304 88.353 91.1771 88.353C91.6053 88.353 91.9171 88.4798 92.1126 88.7335L92.2383 89.5713L92.4756 89.6062L92.5839 88.4368C92.2813 88.2064 91.8729 88.0912 91.3586 88.0912C90.8978 88.0912 90.5092 88.2099 90.1927 88.4473C89.8762 88.6823 89.64 88.9802 89.4841 89.3409C89.3305 89.7016 89.2537 90.0658 89.2537 90.4335C89.2537 90.8779 89.3375 91.2654 89.5051 91.5959C89.6749 91.924 89.9053 92.1753 90.1962 92.3499C90.4894 92.5244 90.8152 92.6117 91.1736 92.6117ZM94.4549 92.6186C94.7085 92.6186 94.9424 92.55 95.1565 92.4127C95.3706 92.2754 95.5405 92.0834 95.6661 91.8367C95.7918 91.59 95.8546 91.3085 95.8546 90.992C95.8546 90.6941 95.8011 90.4253 95.6941 90.1856C95.587 89.9459 95.4334 89.7574 95.2333 89.6201C95.0355 89.4828 94.8051 89.4142 94.5421 89.4142C94.2792 89.4142 94.036 89.4817 93.8126 89.6166C93.5892 89.7516 93.4111 89.9459 93.2785 90.1996C93.1482 90.4509 93.083 90.7476 93.083 91.0897C93.083 91.3899 93.1389 91.6564 93.2506 91.8891C93.3646 92.1195 93.5252 92.2987 93.7323 92.4267C93.9417 92.5546 94.1826 92.6186 94.4549 92.6186ZM94.392 89.7109C94.5992 89.7109 94.776 89.7842 94.9226 89.9308C95.0692 90.0751 95.1786 90.2613 95.2508 90.4893C95.3252 90.7174 95.3625 90.9536 95.3625 91.1979C95.3625 91.405 95.331 91.5959 95.2682 91.7704C95.2054 91.9426 95.1146 92.0799 94.9959 92.1823C94.8773 92.2847 94.7376 92.3359 94.577 92.3359C94.363 92.3359 94.1803 92.2672 94.029 92.1299C93.8777 91.9903 93.7637 91.8065 93.6869 91.5784C93.6124 91.3504 93.5752 91.1037 93.5752 90.8384C93.5752 90.6313 93.6066 90.4416 93.6695 90.2694C93.7346 90.0972 93.8289 89.9611 93.9522 89.861C94.0756 89.7609 94.2222 89.7109 94.392 89.7109ZM97.7082 92.3219L97.209 92.2242V90.1996C97.3068 90.0786 97.4278 89.982 97.5721 89.9099C97.7164 89.8354 97.8665 89.7982 98.0224 89.7982C98.2085 89.7982 98.3552 89.8645 98.4622 89.9971C98.5716 90.1298 98.6263 90.3055 98.6263 90.5242V92.2242L98.162 92.3359L98.1341 92.5244H99.5234L99.5513 92.3219L99.0661 92.2242V90.2205C99.1755 90.1042 99.2942 90.0053 99.4221 89.9238C99.5501 89.8424 99.6921 89.8016 99.848 89.8016C100.046 89.8016 100.197 89.8645 100.302 89.9901C100.409 90.1158 100.462 90.2938 100.462 90.5242V92.2242L100.009 92.3359L99.9876 92.5174H101.373L101.419 92.3149L100.923 92.2207V90.4404C100.923 90.1193 100.859 89.8715 100.731 89.6969C100.603 89.5224 100.393 89.4351 100.099 89.4351C99.8946 89.4351 99.6979 89.491 99.5094 89.6027C99.3232 89.712 99.1696 89.8447 99.0486 90.0006H99.0102C98.9684 89.8121 98.8799 89.669 98.7449 89.5713C98.61 89.4712 98.4506 89.4212 98.2667 89.4212C98.0619 89.4212 97.863 89.477 97.6698 89.5887C97.479 89.6981 97.3207 89.8296 97.1951 89.9832H97.1672L97.2055 89.5189L97.1637 89.47L96.2247 89.5747L96.2037 89.7563L96.7518 89.8959V92.2242L96.2212 92.3359L96.1898 92.5244H97.6733L97.7082 92.3219ZM103.279 92.3219L102.78 92.2242V90.1996C102.878 90.0786 102.999 89.982 103.143 89.9099C103.288 89.8354 103.438 89.7982 103.594 89.7982C103.78 89.7982 103.926 89.8645 104.033 89.9971C104.143 90.1298 104.197 90.3055 104.197 90.5242V92.2242L103.733 92.3359L103.705 92.5244H105.095L105.122 92.3219L104.637 92.2242V90.2205C104.747 90.1042 104.865 90.0053 104.993 89.9238C105.121 89.8424 105.263 89.8016 105.419 89.8016C105.617 89.8016 105.768 89.8645 105.873 89.9901C105.98 90.1158 106.034 90.2938 106.034 90.5242V92.2242L105.58 92.3359L105.559 92.5174H106.945L106.99 92.3149L106.494 92.2207V90.4404C106.494 90.1193 106.43 89.8715 106.302 89.6969C106.174 89.5224 105.964 89.4351 105.671 89.4351C105.466 89.4351 105.269 89.491 105.081 89.6027C104.894 89.712 104.741 89.8447 104.62 90.0006H104.581C104.54 89.8121 104.451 89.669 104.316 89.5713C104.181 89.4712 104.022 89.4212 103.838 89.4212C103.633 89.4212 103.434 89.477 103.241 89.5887C103.05 89.6981 102.892 89.8296 102.766 89.9832H102.738L102.777 89.5189L102.735 89.47L101.796 89.5747L101.775 89.7563L102.323 89.8959V92.2242L101.792 92.3359L101.761 92.5244H103.244L103.279 92.3219ZM107.814 91.5644C107.814 92.2603 108.079 92.6082 108.61 92.6082C108.8 92.6082 108.98 92.5616 109.147 92.4685C109.317 92.3755 109.461 92.2405 109.58 92.0636H109.622V92.1055C109.622 92.2475 109.664 92.365 109.748 92.4581C109.831 92.5512 109.949 92.5977 110.1 92.5977C110.182 92.5977 110.255 92.5919 110.32 92.5802C110.385 92.5686 110.459 92.5512 110.54 92.5279L110.564 92.3219L110.376 92.28C110.243 92.2544 110.153 92.2032 110.104 92.1265C110.055 92.0473 110.03 91.9205 110.03 91.746V89.5329L109.982 89.4735L109.053 89.5573L109.032 89.7667L109.58 89.8924V91.8716C109.489 91.9717 109.382 92.0555 109.259 92.123C109.138 92.1904 109.005 92.2242 108.861 92.2242C108.461 92.2242 108.261 91.9554 108.261 91.4178V89.5329L108.205 89.4735L107.336 89.5468L107.308 89.7318L107.814 89.8819V91.5644ZM112.439 92.3219L111.929 92.2242V90.1856C112.069 90.046 112.202 89.9471 112.327 89.8889C112.453 89.8284 112.597 89.7982 112.76 89.7982C112.935 89.7982 113.077 89.8598 113.186 89.9832C113.298 90.1042 113.354 90.2903 113.354 90.5417V92.2242L112.865 92.3429L112.837 92.5244H114.279L114.303 92.3219L113.811 92.2242V90.43C113.811 90.0949 113.739 89.8424 113.594 89.6725C113.45 89.5026 113.253 89.4177 113.004 89.4177C112.793 89.4177 112.588 89.4747 112.39 89.5887C112.192 89.7027 112.035 89.8319 111.919 89.9762H111.891L111.926 89.5154L111.884 89.4665L110.959 89.5713L110.934 89.7528L111.476 89.8889V92.2242L110.941 92.3429L110.914 92.5244H112.404L112.439 92.3219ZM115.375 88.7091C115.468 88.7091 115.541 88.6753 115.595 88.6078C115.648 88.5403 115.675 88.4507 115.675 88.339C115.675 88.232 115.647 88.1459 115.591 88.0807C115.535 88.0156 115.463 87.983 115.375 87.983C115.286 87.983 115.215 88.0156 115.162 88.0807C115.108 88.1459 115.081 88.232 115.081 88.339C115.081 88.4484 115.107 88.538 115.158 88.6078C115.212 88.6753 115.284 88.7091 115.375 88.7091ZM116.185 92.5244L116.223 92.3254L115.664 92.2207V89.484L115.609 89.4281L114.704 89.5049L114.677 89.683L115.207 89.8296V92.2207L114.68 92.3324L114.638 92.5244H116.185ZM116.991 91.6482C116.989 91.9833 117.043 92.2277 117.155 92.3813C117.269 92.5325 117.437 92.6082 117.658 92.6082C117.83 92.6082 117.994 92.564 118.15 92.4755C118.308 92.3848 118.441 92.2626 118.548 92.109L118.481 91.9554C118.481 91.9577 118.45 91.9798 118.387 92.0217C118.327 92.0613 118.256 92.0985 118.174 92.1334C118.095 92.166 118.017 92.1823 117.94 92.1823C117.826 92.1823 117.734 92.1614 117.665 92.1195C117.595 92.0753 117.542 91.9996 117.507 91.8926C117.475 91.7855 117.459 91.6354 117.459 91.4423L117.469 89.8435H118.433L118.46 89.5922H117.473V88.7963H117.309C117.218 89.0221 117.112 89.2094 116.991 89.3583C116.872 89.5049 116.729 89.6166 116.562 89.6934V89.8331H117.005L116.991 91.6482ZM119.337 93.8474C119.516 93.8474 119.669 93.809 119.797 93.7322C119.928 93.6577 120.045 93.539 120.15 93.3761C120.257 93.2132 120.366 92.991 120.478 92.7094L121.63 89.8296L121.983 89.7039L122 89.5189H120.893L120.855 89.7109L121.309 89.8331L120.506 91.8437L119.755 89.8191L120.199 89.7039L120.22 89.5189H118.883L118.851 89.7144L119.284 89.8296L120.255 92.4825L120.174 92.6954C120.009 93.1143 119.797 93.3238 119.539 93.3238C119.423 93.3238 119.323 93.3086 119.239 93.2784C119.155 93.2505 119.071 93.2039 118.988 93.1388C118.883 93.2295 118.83 93.3435 118.83 93.4808C118.83 93.5483 118.853 93.61 118.897 93.6659C118.941 93.7217 119.002 93.7659 119.078 93.7985C119.155 93.8311 119.241 93.8474 119.337 93.8474Z" fill="#076A60"/>
<defs>
<clipPath id="clip0_8_23">
<rect width="58.259" height="57.9677" fill="white" transform="translate(32.2427)"/>
</clipPath>
</defs>
</svg>
