<svg width="122" height="94" viewBox="0 0 122 94" fill="none" xmlns="http://www.w3.org/2000/svg">
<g clip-path="url(#clip0_8_23)">
<path d="M60.2084 0C44.7052 0.195987 30.9535 12.9009 31.0001 29.3234C31.0452 44.8779 44.391 57.9531 60.252 57.8753C75.2823 57.8006 89.3934 45.483 89.2581 28.6608C89.1258 12.2959 75.175 0.175766 60.2084 0ZM58.2408 54.0691C52.4623 53.6709 47.5268 51.4093 43.2804 47.6917C37.8441 42.9305 35.0443 36.8098 34.8156 29.6096C34.3366 14.094 47.9328 4.19972 58.2408 3.77197V54.0691ZM61.9303 54.0022V3.73309C72.4001 4.19039 85.5016 14.1095 85.4799 28.8816C85.4596 43.0425 73.4935 53.59 61.9303 54.0022Z" fill="#076A60"/>
<path d="M47.4709 45.9621C49.0512 46.9452 50.6486 47.8986 52.2508 48.8459C53.0285 49.3032 53.8187 49.7232 54.6788 50.2007V29.5023H47.0478C47.0124 29.5835 46.9868 29.6686 46.9716 29.7558C46.9716 34.9324 46.9716 40.1074 47.0027 45.2824C47.0027 45.5141 47.2515 45.8252 47.4709 45.9621Z" fill="#076A60"/>
<path d="M47.0539 26.4427H54.6756V7.62172C52.1962 9.11807 49.8226 10.5335 47.477 11.9925C47.2061 12.197 47.0361 12.508 47.0103 12.8465C46.9855 17.1178 46.9979 21.3875 47.0103 25.6572C46.9979 25.9014 47.0321 26.1518 47.0539 26.4427Z" fill="#076A60"/>
<path d="M73.2167 29.4836H65.4005V50.3656C67.8892 48.8879 70.2457 47.4616 72.6334 46.0803C73.128 45.7941 73.2851 45.4752 73.282 44.9184C73.2571 40.0545 73.2649 35.1906 73.2587 30.3251C73.2587 30.0514 73.2322 29.7776 73.2167 29.4836Z" fill="#076A60"/>
<path d="M73.2602 25.1019C73.2602 21.0577 73.2385 17.0229 73.2727 12.9834C73.2727 12.3394 73.0471 11.9925 72.5292 11.6955C70.49 10.5242 68.4663 9.32806 66.4318 8.14591C66.1316 7.9717 65.8096 7.83482 65.4379 7.63573V26.4567H73.2602V25.1019Z" fill="#076A60"/>
</g>
<path d="M11 81.1607C11 81.0353 11.0157 80.9373 11.047 80.8667C11.0862 80.7962 11.1333 80.7531 11.1881 80.7374L11.9759 80.5258L11.7996 80.7139V74.0823L11.9877 74.2822L11 74.0588C11 73.949 11.0157 73.8628 11.047 73.8001C11.0784 73.7374 11.1372 73.6786 11.2234 73.6237H13.5868C13.5868 73.7491 13.5711 73.8471 13.5398 73.9177C13.5084 73.9882 13.4614 74.0313 13.3987 74.047L12.5638 74.2587L12.7637 74.0588V77.1864L12.6814 77.0806H16.6674L16.5851 77.1864V74.0823L16.7733 74.2822L15.7738 74.0588C15.7738 73.949 15.7895 73.8628 15.8208 73.8001C15.8522 73.7374 15.911 73.6786 15.9972 73.6237H18.4076C18.4076 73.7491 18.392 73.8471 18.3606 73.9177C18.3293 73.9882 18.2822 74.0313 18.2195 74.047L17.3847 74.2587L17.5493 74.0588V80.7021L17.3729 80.5022L18.4076 80.7256C18.4076 80.8276 18.392 80.9099 18.3606 80.9726C18.3371 81.0353 18.2783 81.098 18.1842 81.1607H15.7738C15.7738 81.0353 15.7895 80.9373 15.8208 80.8667C15.86 80.7962 15.9071 80.7531 15.9619 80.7374L16.7615 80.5258L16.5851 80.7139V77.4922L16.6674 77.598H12.6814L12.7637 77.4922V80.7021L12.5521 80.5022L13.5868 80.7256C13.5868 80.8276 13.5711 80.9099 13.5398 80.9726C13.5162 81.0353 13.4614 81.098 13.3751 81.1607H11ZM21.9468 81.3018C21.4687 81.3018 21.0493 81.196 20.6887 80.9843C20.336 80.7648 20.0616 80.4631 19.8656 80.079C19.6697 79.6949 19.5717 79.252 19.5717 78.7503C19.5717 78.178 19.6893 77.6646 19.9244 77.21C20.1674 76.7553 20.4888 76.3947 20.8886 76.1282C21.2884 75.8617 21.7234 75.7284 22.1938 75.7284C22.6014 75.7284 22.9541 75.8225 23.252 76.0106C23.5577 76.1909 23.7968 76.4457 23.9692 76.7749C24.1417 77.1041 24.2279 77.4843 24.2279 77.9154C24.2279 78.0644 24.2005 78.1663 24.1456 78.2212C24.0907 78.2682 24.028 78.2917 23.9575 78.2917H20.2537V77.9272L23.4519 77.8449L23.3225 77.9742C23.3382 77.598 23.2912 77.2727 23.1814 76.9983C23.0795 76.724 22.9306 76.5123 22.7346 76.3634C22.5465 76.2066 22.3231 76.1282 22.0644 76.1282C21.6333 76.1282 21.2805 76.3281 21.0062 76.7279C20.7318 77.1277 20.5947 77.692 20.5947 78.421C20.5947 78.8914 20.6613 79.3029 20.7945 79.6557C20.9356 80.0006 21.1394 80.271 21.406 80.467C21.6725 80.6629 21.9939 80.7609 22.3701 80.7609C22.6837 80.7609 22.9855 80.6825 23.2755 80.5258C23.5655 80.3611 23.8242 80.1338 24.0516 79.8438L24.2044 80.1377C24.0398 80.3729 23.836 80.5806 23.593 80.7609C23.35 80.9334 23.0874 81.0666 22.8052 81.1607C22.5308 81.2548 22.2447 81.3018 21.9468 81.3018ZM26.4385 81.3018C26.07 81.3018 25.7643 81.196 25.5213 80.9843C25.2783 80.7648 25.1568 80.4748 25.1568 80.1142C25.1568 79.6674 25.2979 79.3029 25.5801 79.0207C25.8702 78.7385 26.3013 78.5308 26.8735 78.3975L28.4138 78.0448L28.261 78.1741V77.2923C28.261 76.8768 28.1904 76.575 28.0493 76.3869C27.9082 76.1909 27.6887 76.0929 27.3909 76.0929C27.0303 76.0929 26.752 76.2027 26.556 76.4222C26.3601 76.6338 26.2621 76.9434 26.2621 77.3511C26.2229 77.3903 26.168 77.4216 26.0975 77.4451C26.0269 77.4686 25.9564 77.4804 25.8858 77.4804C25.7526 77.4804 25.6467 77.4412 25.5684 77.3628C25.49 77.2844 25.4508 77.1786 25.4508 77.0453C25.4508 76.7867 25.5409 76.5593 25.7212 76.3634C25.9015 76.1674 26.1484 76.0145 26.462 75.9048C26.7834 75.7872 27.14 75.7284 27.532 75.7284C28.112 75.7284 28.5353 75.8734 28.8019 76.1635C29.0762 76.4535 29.2134 76.916 29.2134 77.5509V80.3141C29.2134 80.4474 29.2408 80.5493 29.2957 80.6198C29.3506 80.6904 29.429 80.7256 29.5309 80.7256C29.6171 80.7256 29.7112 80.7021 29.8131 80.6551C29.9228 80.6081 30.0129 80.5571 30.0835 80.5022L30.1658 80.8197C30.0404 80.9687 29.8797 81.0862 29.6837 81.1725C29.4877 81.2587 29.2996 81.3018 29.1193 81.3018C28.8685 81.3018 28.6725 81.2234 28.5314 81.0666C28.3903 80.902 28.3198 80.6708 28.3198 80.3729H28.2727C28.0533 80.6708 27.7828 80.902 27.4614 81.0666C27.14 81.2234 26.799 81.3018 26.4385 81.3018ZM26.8853 80.7492C27.1675 80.7492 27.4379 80.6786 27.6966 80.5375C27.9553 80.3964 28.1708 80.2005 28.3433 79.9496L28.2727 80.1495V78.3858L28.4256 78.4093L27.0852 78.7268C26.7481 78.8052 26.4894 78.9423 26.3091 79.1383C26.1367 79.3264 26.0504 79.5655 26.0504 79.8555C26.0504 80.1299 26.1249 80.3494 26.2738 80.514C26.4228 80.6708 26.6266 80.7492 26.8853 80.7492ZM30.8713 81.1607C30.8713 81.0274 30.887 80.9295 30.9183 80.8667C30.9497 80.804 30.9967 80.7609 31.0594 80.7374L31.7649 80.514L31.6356 80.6786V73.0241L31.7767 73.2004L31.0477 73.0711C30.9301 73.0476 30.8713 72.9104 30.8713 72.6596C31.13 72.6204 31.3495 72.589 31.5297 72.5655C31.71 72.542 31.8825 72.5302 32.0471 72.5302C32.4077 72.5302 32.588 72.7575 32.588 73.2122V80.6551L32.4469 80.5022L33.3993 80.7256C33.3993 80.8432 33.3836 80.9334 33.3523 80.9961C33.3287 81.051 33.2739 81.1058 33.1876 81.1607H30.8713ZM36.0919 81.3018C35.7157 81.3018 35.4335 81.1842 35.2453 80.9491C35.065 80.7139 34.9749 80.3572 34.9749 79.8791V74.8466C35.0454 74.7839 35.1317 74.729 35.2336 74.682C35.3433 74.6271 35.457 74.5801 35.5746 74.5409C35.7 74.5017 35.8176 74.4781 35.9273 74.4703V79.738C35.9273 80.0437 35.9704 80.2671 36.0566 80.4082C36.1507 80.5414 36.3114 80.6081 36.5387 80.6081C36.719 80.6081 36.9111 80.5689 37.1149 80.4905C37.3265 80.4121 37.5303 80.2867 37.7263 80.1142L37.8909 80.4082C37.8125 80.5179 37.6793 80.6433 37.4911 80.7844C37.3108 80.9255 37.0992 81.047 36.8562 81.1489C36.6132 81.2508 36.3584 81.3018 36.0919 81.3018ZM37.4088 76.5045L34.1753 76.4457C34.1753 76.3359 34.1871 76.238 34.2106 76.1517C34.242 76.0577 34.2851 75.991 34.3399 75.9518L37.6322 75.8225C37.6479 75.8617 37.6597 75.9009 37.6675 75.9401C37.6753 75.9714 37.6793 76.0067 37.6793 76.0459C37.6793 76.1713 37.6558 76.2771 37.6087 76.3634C37.5617 76.4418 37.4951 76.4888 37.4088 76.5045ZM38.2789 81.1607C38.2789 80.9099 38.3416 80.7688 38.4671 80.7374L39.1373 80.514L39.0079 80.7139V73.0241L39.149 73.2004L38.4553 73.0711C38.3377 73.0476 38.2789 72.9104 38.2789 72.6596C38.5768 72.6125 38.8002 72.5812 38.9491 72.5655C39.1059 72.542 39.2313 72.5302 39.3254 72.5302C39.5292 72.5302 39.6742 72.5812 39.7605 72.6831C39.8545 72.785 39.9015 72.9496 39.9015 73.1769V76.9748L39.8428 76.9042H39.9603C40.2661 76.5437 40.6227 76.2575 41.0303 76.0459C41.4379 75.8343 41.8338 75.7284 42.2179 75.7284C43.1272 75.7284 43.5819 76.3595 43.5819 77.6215V80.6551L43.4525 80.5022L44.3109 80.7256C44.3109 80.8432 44.2991 80.9334 44.2756 80.9961C44.2521 81.051 44.2011 81.1058 44.1227 81.1607H41.9827C41.9827 80.9099 42.0455 80.7688 42.1709 80.7374L42.7588 80.561L42.6412 80.7609V77.645C42.6412 76.8141 42.3237 76.3986 41.6888 76.3986C41.4693 76.3986 41.2459 76.4418 41.0186 76.528C40.7991 76.6142 40.5953 76.7279 40.4071 76.869C40.219 77.0101 40.0583 77.1629 39.9251 77.3275L39.9603 77.21V80.7021L39.8192 80.5375L40.607 80.7256C40.607 80.8432 40.5914 80.9334 40.56 80.9961C40.5365 81.051 40.4816 81.1058 40.3954 81.1607H38.2789ZM51.5069 81.3018C50.8171 81.3018 50.2095 81.1489 49.6843 80.8432C49.1592 80.5297 48.7476 80.1025 48.4497 79.5616C48.1597 79.0129 48.0147 78.3819 48.0147 77.6685C48.0147 77.0649 48.1166 76.5084 48.3204 75.9989C48.5242 75.4893 48.8064 75.0465 49.167 74.6702C49.5276 74.2861 49.9548 73.9882 50.4486 73.7766C50.9425 73.5649 51.4755 73.4591 52.0477 73.4591C52.4475 73.4591 52.8316 73.5101 53.2 73.612C53.5685 73.706 53.9055 73.8471 54.2112 74.0353L53.9878 75.6814C53.8624 75.6814 53.7605 75.6618 53.6821 75.6226C53.6037 75.5834 53.5606 75.5364 53.5528 75.4815L53.447 74.3175L53.6351 74.6114C53.4391 74.4468 53.1726 74.3175 52.8355 74.2234C52.4985 74.1215 52.1457 74.0705 51.7773 74.0705C51.2286 74.0705 50.7504 74.2038 50.3428 74.4703C49.9352 74.729 49.6216 75.1013 49.4022 75.5873C49.1827 76.0733 49.0729 76.6495 49.0729 77.3158C49.0729 77.9978 49.1827 78.5935 49.4022 79.103C49.6295 79.6125 49.943 80.0084 50.3428 80.2906C50.7426 80.5728 51.2051 80.7139 51.7303 80.7139C52.1379 80.7139 52.5181 80.6316 52.8708 80.467C53.2314 80.3024 53.4979 80.0868 53.6704 79.8203L53.4587 80.2788L53.5998 78.668C53.7723 78.668 53.8977 78.6836 53.9761 78.715C54.0545 78.7464 54.1054 78.7934 54.1289 78.8561L54.1995 80.3847C53.8859 80.6669 53.4862 80.8903 53.0001 81.0549C52.5141 81.2195 52.0164 81.3018 51.5069 81.3018ZM57.774 81.3018C57.045 81.3018 56.4688 81.0745 56.0455 80.6198C55.6222 80.1652 55.4106 79.5577 55.4106 78.7973C55.4106 78.2094 55.5321 77.6842 55.7751 77.2217C56.0259 76.7592 56.3669 76.3947 56.798 76.1282C57.2292 75.8617 57.723 75.7284 58.2796 75.7284C58.7656 75.7284 59.1849 75.8343 59.5377 76.0459C59.8904 76.2497 60.1648 76.5397 60.3608 76.916C60.5567 77.2923 60.6547 77.7352 60.6547 78.2447C60.6547 78.8404 60.5332 79.3695 60.2902 79.832C60.0472 80.2867 59.7062 80.6473 59.2672 80.9138C58.8361 81.1725 58.3384 81.3018 57.774 81.3018ZM57.9974 80.902C58.5226 80.902 58.9263 80.6904 59.2085 80.2671C59.4985 79.8438 59.6435 79.252 59.6435 78.4916C59.6435 77.7312 59.5102 77.1472 59.2437 76.7396C58.9772 76.332 58.5892 76.1282 58.0797 76.1282C57.5545 76.1282 57.1469 76.3399 56.8568 76.7631C56.5668 77.1786 56.4218 77.7744 56.4218 78.5504C56.4218 79.3108 56.555 79.8947 56.8215 80.3024C57.0959 80.7021 57.4878 80.902 57.9974 80.902ZM61.6659 81.1607C61.6659 80.9099 61.7286 80.7688 61.854 80.7374L62.5243 80.514L62.3949 80.6786V76.3516L62.536 76.528L61.8423 76.3986C61.7247 76.3751 61.6659 76.238 61.6659 75.9871C61.9638 75.9401 62.1872 75.9087 62.3361 75.893C62.4929 75.8695 62.6222 75.8578 62.7241 75.8578C62.928 75.8578 63.073 75.9087 63.1592 76.0106C63.2454 76.1125 63.2885 76.2771 63.2885 76.5045V76.9395L63.2415 76.9042H63.3473C63.6452 76.5437 63.9901 76.2575 64.382 76.0459C64.7818 75.8343 65.162 75.7284 65.5226 75.7284C65.9616 75.7284 66.2869 75.8852 66.4985 76.1988C66.7102 76.5123 66.816 76.9866 66.816 77.6215V80.7021L66.6749 80.5375L67.4744 80.7256C67.4744 80.8432 67.4588 80.9334 67.4274 80.9961C67.4039 81.051 67.3529 81.1058 67.2746 81.1607H65.2169C65.2169 80.9099 65.2796 80.7688 65.405 80.7374L65.9929 80.561L65.8636 80.7256V77.645C65.8636 76.8141 65.5696 76.3986 64.9817 76.3986C64.7622 76.3986 64.5427 76.4457 64.3233 76.5397C64.1038 76.626 63.9 76.7475 63.7118 76.9042C63.5315 77.0532 63.3787 77.2178 63.2533 77.3981L63.3473 77.1747V80.7021L63.2062 80.5375L64.0058 80.7256C64.0058 80.8432 63.9901 80.9334 63.9588 80.9961C63.9352 81.051 63.8804 81.1058 63.7941 81.1607H61.6659ZM68.6855 81.1607C68.6855 80.9099 68.7482 80.7688 68.8737 80.7374L69.4616 80.561L69.3322 80.7256V77.645C69.3322 76.8141 69.0383 76.3986 68.4504 76.3986C68.129 76.3986 67.8115 76.4966 67.498 76.6926C67.1922 76.8807 66.9414 77.112 66.7454 77.3863L66.6161 76.9042H66.7925C67.0982 76.5437 67.447 76.2575 67.8389 76.0459C68.2387 75.8343 68.6189 75.7284 68.9795 75.7284C69.4263 75.7284 69.7555 75.8852 69.9672 76.1988C70.1788 76.5123 70.2846 76.9866 70.2846 77.6215V80.6551L70.1435 80.5022L71.0136 80.7256C71.0136 80.8432 70.998 80.9334 70.9666 80.9961C70.9431 81.051 70.8922 81.1058 70.8138 81.1607H68.6855ZM72.0013 81.1607C72.0013 80.9099 72.064 80.7688 72.1895 80.7374L72.8597 80.514L72.7303 80.6786V76.3516L72.8714 76.528L72.1777 76.3986C72.0601 76.3751 72.0013 76.238 72.0013 75.9871C72.2992 75.9401 72.5226 75.9087 72.6715 75.893C72.8283 75.8695 72.9577 75.8578 73.0596 75.8578C73.2634 75.8578 73.4084 75.9087 73.4946 76.0106C73.5808 76.1125 73.624 76.2771 73.624 76.5045V76.9395L73.5769 76.9042H73.6828C73.9806 76.5437 74.3255 76.2575 74.7175 76.0459C75.1172 75.8343 75.4974 75.7284 75.858 75.7284C76.297 75.7284 76.6223 75.8852 76.8339 76.1988C77.0456 76.5123 77.1514 76.9866 77.1514 77.6215V80.7021L77.0103 80.5375L77.8099 80.7256C77.8099 80.8432 77.7942 80.9334 77.7628 80.9961C77.7393 81.051 77.6884 81.1058 77.61 81.1607H75.5523C75.5523 80.9099 75.615 80.7688 75.7404 80.7374L76.3283 80.561L76.199 80.7256V77.645C76.199 76.8141 75.905 76.3986 75.3171 76.3986C75.0976 76.3986 74.8782 76.4457 74.6587 76.5397C74.4392 76.626 74.2354 76.7475 74.0472 76.9042C73.867 77.0532 73.7141 77.2178 73.5887 77.3981L73.6828 77.1747V80.7021L73.5417 80.5375L74.3412 80.7256C74.3412 80.8432 74.3255 80.9334 74.2942 80.9961C74.2707 81.051 74.2158 81.1058 74.1296 81.1607H72.0013ZM79.021 81.1607C79.021 80.9099 79.0837 80.7688 79.2091 80.7374L79.797 80.561L79.6676 80.7256V77.645C79.6676 76.8141 79.3737 76.3986 78.7858 76.3986C78.4644 76.3986 78.1469 76.4966 77.8334 76.6926C77.5277 76.8807 77.2768 77.112 77.0809 77.3863L76.9515 76.9042H77.1279C77.4336 76.5437 77.7824 76.2575 78.1744 76.0459C78.5742 75.8343 78.9543 75.7284 79.3149 75.7284C79.7617 75.7284 80.091 75.8852 80.3026 76.1988C80.5142 76.5123 80.6201 76.9866 80.6201 77.6215V80.6551L80.479 80.5022L81.3491 80.7256C81.3491 80.8432 81.3334 80.9334 81.302 80.9961C81.2785 81.051 81.2276 81.1058 81.1492 81.1607H79.021ZM84.2768 81.3018C83.83 81.3018 83.4851 81.1568 83.2421 80.8667C82.9991 80.5689 82.8776 80.1025 82.8776 79.4675V76.4104L83.054 76.5868L82.325 76.4574C82.2701 76.4496 82.227 76.4143 82.1957 76.3516C82.1643 76.2811 82.1486 76.1792 82.1486 76.0459C82.4465 76.0067 82.6699 75.9793 82.8188 75.9636C82.9756 75.9401 83.101 75.9283 83.1951 75.9283C83.4067 75.9283 83.5635 75.9793 83.6654 76.0812C83.7752 76.1831 83.83 76.3438 83.83 76.5633V79.444C83.83 79.8673 83.9123 80.1809 84.077 80.3847C84.2494 80.5806 84.5003 80.6786 84.8295 80.6786C85.0411 80.6786 85.2371 80.6433 85.4174 80.5728C85.6055 80.5022 85.7701 80.4082 85.9112 80.2906C86.0602 80.1652 86.1856 80.028 86.2875 79.8791L86.2052 80.079V76.4104L86.3816 76.5868L85.6408 76.4574C85.5859 76.4496 85.5428 76.4143 85.5115 76.3516C85.4879 76.2811 85.4762 76.1792 85.4762 76.0459C85.7741 76.0067 85.9975 75.9793 86.1464 75.9636C86.3032 75.9401 86.4247 75.9283 86.5109 75.9283C86.7304 75.9283 86.8911 75.9793 86.993 76.0812C87.0949 76.1831 87.1458 76.3438 87.1458 76.5633V80.3141C87.1458 80.4474 87.1733 80.5493 87.2281 80.6198C87.2909 80.6904 87.3732 80.7256 87.4751 80.7256C87.5613 80.7256 87.6514 80.7061 87.7455 80.6669C87.8474 80.6198 87.9376 80.565 88.0159 80.5022L88.11 80.8197C87.9767 80.9687 87.8121 81.0862 87.6162 81.1725C87.4202 81.2587 87.2321 81.3018 87.0518 81.3018C86.8088 81.3018 86.6167 81.2234 86.4756 81.0666C86.3345 80.902 86.264 80.6708 86.264 80.3729H86.2052C85.6722 80.9922 85.0294 81.3018 84.2768 81.3018ZM89.0271 81.1607C89.0271 80.9099 89.0899 80.7688 89.2153 80.7374L89.8855 80.514L89.7562 80.7139V76.3516L89.8972 76.528L89.2035 76.3986C89.0859 76.3751 89.0271 76.238 89.0271 75.9871C89.325 75.9401 89.5484 75.9087 89.6974 75.893C89.8541 75.8695 89.9835 75.8578 90.0854 75.8578C90.2892 75.8578 90.4342 75.9087 90.5204 76.0106C90.6067 76.1125 90.6498 76.2771 90.6498 76.5045V76.9395L90.5792 76.9042H90.7086C91.0221 76.5437 91.3788 76.2575 91.7786 76.0459C92.1862 75.8343 92.582 75.7284 92.9661 75.7284C93.8754 75.7284 94.3301 76.3595 94.3301 77.6215V80.6551L94.189 80.5022L95.0591 80.7256C95.0591 80.8432 95.0473 80.9334 95.0238 80.9961C95.0003 81.051 94.9493 81.1058 94.8709 81.1607H92.7427C92.7427 80.9099 92.8054 80.7688 92.9309 80.7374L93.507 80.561L93.3894 80.7609V77.645C93.3894 76.8141 93.0759 76.3986 92.4488 76.3986C92.2136 76.3986 91.9784 76.4457 91.7433 76.5397C91.516 76.626 91.3043 76.7475 91.1083 76.9042C90.9124 77.0532 90.7478 77.2178 90.6145 77.3981L90.7086 77.1747V80.7021L90.5675 80.5375L91.367 80.7256C91.367 80.8432 91.3513 80.9334 91.32 80.9961C91.2965 81.051 91.2416 81.1058 91.1554 81.1607H89.0271ZM96.0468 81.1607C96.0468 80.9099 96.1095 80.7688 96.2349 80.7374L96.9404 80.514L96.811 80.6786V76.3046L96.9521 76.481L96.2231 76.3516C96.1056 76.3359 96.0468 76.1988 96.0468 75.9401C96.3133 75.9009 96.5328 75.8734 96.7052 75.8578C96.8855 75.8343 97.0619 75.8225 97.2343 75.8225C97.5949 75.8225 97.7752 76.0459 97.7752 76.4927V80.6551L97.6341 80.5022L98.5748 80.7256C98.5748 80.8432 98.5591 80.9334 98.5277 80.9961C98.5042 81.051 98.4494 81.1058 98.3631 81.1607H96.0468ZM97.2461 74.6584C97.058 74.6584 96.9129 74.6075 96.811 74.5056C96.7091 74.3958 96.6582 74.2547 96.6582 74.0823C96.6582 73.9098 96.717 73.7687 96.8346 73.659C96.96 73.5493 97.0972 73.4944 97.2461 73.4944C97.4342 73.4944 97.5792 73.5493 97.6811 73.659C97.7909 73.7609 97.8458 73.902 97.8458 74.0823C97.8458 74.2469 97.7831 74.3841 97.6576 74.4938C97.5401 74.6036 97.4029 74.6584 97.2461 74.6584ZM101.291 81.3018C100.915 81.3018 100.632 81.1842 100.444 80.9491C100.264 80.7139 100.174 80.3572 100.174 79.8791V74.8466C100.244 74.7839 100.331 74.729 100.433 74.682C100.542 74.6271 100.656 74.5801 100.774 74.5409C100.899 74.5017 101.017 74.4781 101.126 74.4703V79.738C101.126 80.0437 101.169 80.2671 101.256 80.4082C101.35 80.5414 101.51 80.6081 101.738 80.6081C101.918 80.6081 102.11 80.5689 102.314 80.4905C102.526 80.4121 102.729 80.2867 102.925 80.1142L103.09 80.4082C103.012 80.5179 102.878 80.6433 102.69 80.7844C102.51 80.9255 102.298 81.047 102.055 81.1489C101.812 81.2508 101.557 81.3018 101.291 81.3018ZM102.608 76.5045L99.3743 76.4457C99.3743 76.3359 99.3861 76.238 99.4096 76.1517C99.441 76.0577 99.4841 75.991 99.5389 75.9518L102.831 75.8225C102.847 75.8617 102.859 75.9009 102.866 75.9401C102.874 75.9714 102.878 76.0067 102.878 76.0459C102.878 76.1713 102.855 76.2771 102.808 76.3634C102.761 76.4418 102.694 76.4888 102.608 76.5045ZM103.713 84.3354C103.494 84.3354 103.321 84.2884 103.196 84.1943C103.078 84.1081 103.019 83.9983 103.019 83.8651C103.019 83.818 103.027 83.7632 103.043 83.7005C103.059 83.6378 103.082 83.579 103.113 83.5241H103.36C103.713 83.5241 104.007 83.481 104.242 83.3948C104.477 83.3164 104.681 83.1831 104.854 82.995C105.026 82.8068 105.187 82.5482 105.336 82.2189C105.492 81.8975 105.661 81.4938 105.841 81.0078L105.794 81.5605L103.737 76.4457L103.948 76.5985L103.066 76.3869C103.066 76.2693 103.082 76.1831 103.113 76.1282C103.145 76.0655 103.2 76.0067 103.278 75.9518H105.418C105.418 76.2027 105.355 76.3477 105.23 76.3869L104.524 76.5868L104.689 76.3869L106.323 80.4905H106.053L107.605 76.4457L107.676 76.5985L106.853 76.3869C106.853 76.2458 106.864 76.1478 106.888 76.0929C106.919 76.0302 106.978 75.9832 107.064 75.9518H108.84C108.84 76.0851 108.824 76.187 108.793 76.2575C108.761 76.3203 108.714 76.3595 108.652 76.3751L107.981 76.5868L108.193 76.3751L106.312 81.2665C105.951 82.1993 105.543 82.944 105.089 83.5006C104.634 84.0571 104.176 84.3354 103.713 84.3354Z" fill="#076A60"/>
<path d="M1.91989 92.6117C2.15027 92.6117 2.37019 92.5733 2.57963 92.4965C2.7914 92.4173 2.97641 92.3196 3.13465 92.2032C3.2929 92.0846 3.4174 91.9647 3.50816 91.8437L3.40693 91.6447C3.2417 91.8123 3.05087 91.9519 2.83445 92.0636C2.61803 92.1753 2.39346 92.2312 2.16075 92.2312C1.85124 92.2312 1.57663 92.1544 1.33694 92.0008C1.09724 91.8472 0.908746 91.6215 0.771446 91.3236C0.636472 91.0257 0.568985 90.6685 0.568985 90.2519C0.568985 89.8819 0.62949 89.5526 0.750501 89.2641C0.871512 88.9755 1.03558 88.7521 1.24269 88.5939C1.44981 88.4333 1.6767 88.353 1.92338 88.353C2.35157 88.353 2.66341 88.4798 2.85889 88.7335L2.98455 89.5713L3.22192 89.6062L3.33013 88.4368C3.0276 88.2064 2.61919 88.0912 2.10489 88.0912C1.64412 88.0912 1.25549 88.2099 0.938999 88.4473C0.622509 88.6823 0.386305 88.9802 0.230386 89.3409C0.0767955 89.7016 0 90.0658 0 90.4335C0 90.8779 0.0837769 91.2654 0.251331 91.5959C0.421212 91.924 0.651598 92.1753 0.94249 92.3499C1.23571 92.5244 1.56151 92.6117 1.91989 92.6117ZM5.20115 92.6186C5.45481 92.6186 5.68868 92.55 5.90278 92.4127C6.11688 92.2754 6.28676 92.0834 6.41242 91.8367C6.53809 91.59 6.60092 91.3085 6.60092 90.992C6.60092 90.6941 6.5474 90.4253 6.44035 90.1856C6.3333 89.9459 6.17971 89.7574 5.97958 89.6201C5.78177 89.4828 5.55138 89.4142 5.28842 89.4142C5.02545 89.4142 4.78226 89.4817 4.55886 89.6166C4.33545 89.7516 4.15743 89.9459 4.02478 90.1996C3.89446 90.4509 3.8293 90.7476 3.8293 91.0897C3.8293 91.3899 3.88515 91.6564 3.99686 91.8891C4.11089 92.1195 4.27146 92.2987 4.47857 92.4267C4.68801 92.5546 4.92887 92.6186 5.20115 92.6186ZM5.13832 89.7109C5.34543 89.7109 5.52229 89.7842 5.6689 89.9308C5.81551 90.0751 5.92489 90.2613 5.99703 90.4893C6.0715 90.7174 6.10873 90.9536 6.10873 91.1979C6.10873 91.405 6.07731 91.5959 6.01448 91.7704C5.95165 91.9426 5.86089 92.0799 5.74221 92.1823C5.62352 92.2847 5.4839 92.3359 5.32332 92.3359C5.10923 92.3359 4.92655 92.2672 4.77528 92.1299C4.62402 91.9903 4.50999 91.8065 4.43319 91.5784C4.35873 91.3504 4.32149 91.1037 4.32149 90.8384C4.32149 90.6313 4.35291 90.4416 4.41574 90.2694C4.4809 90.0972 4.57515 89.9611 4.69849 89.861C4.82183 89.7609 4.96843 89.7109 5.13832 89.7109ZM8.46147 92.3219L7.95182 92.2242V90.1856C8.09145 90.046 8.2241 89.9471 8.34976 89.8889C8.47543 89.8284 8.61971 89.7982 8.78261 89.7982C8.95715 89.7982 9.0991 89.8598 9.20848 89.9832C9.32018 90.1042 9.37603 90.2903 9.37603 90.5417V92.2242L8.88733 92.3429L8.85941 92.5244H10.3011L10.3255 92.3219L9.83331 92.2242V90.43C9.83331 90.0949 9.76117 89.8424 9.61689 89.6725C9.47261 89.5026 9.27596 89.4177 9.02696 89.4177C8.81519 89.4177 8.6104 89.4747 8.4126 89.5887C8.21479 89.7027 8.05771 89.8319 7.94135 89.9762H7.91342L7.94833 89.5154L7.90644 89.4665L6.98141 89.5713L6.95697 89.7528L7.49803 89.8889V92.2242L6.96395 92.3429L6.93603 92.5244H8.42656L8.46147 92.3219ZM12.1965 92.3219L11.6869 92.2242V90.1856C11.8265 90.046 11.9592 89.9471 12.0848 89.8889C12.2105 89.8284 12.3548 89.7982 12.5177 89.7982C12.6922 89.7982 12.8342 89.8598 12.9435 89.9832C13.0552 90.1042 13.1111 90.2903 13.1111 90.5417V92.2242L12.6224 92.3429L12.5945 92.5244H14.0361L14.0606 92.3219L13.5684 92.2242V90.43C13.5684 90.0949 13.4962 89.8424 13.3519 89.6725C13.2077 89.5026 13.011 89.4177 12.762 89.4177C12.5502 89.4177 12.3455 89.4747 12.1476 89.5887C11.9498 89.7027 11.7928 89.8319 11.6764 89.9762H11.6485L11.6834 89.5154L11.6415 89.4665L10.7165 89.5713L10.692 89.7528L11.2331 89.8889V92.2242L10.699 92.3429L10.6711 92.5244H12.1616L12.1965 92.3219ZM15.6733 92.6291C15.8967 92.6291 16.1015 92.5872 16.2876 92.5034C16.4738 92.4197 16.6285 92.3056 16.7519 92.1614L16.6856 92.0078C16.5552 92.0962 16.4307 92.159 16.3121 92.1963C16.1934 92.2335 16.0607 92.2521 15.9141 92.2521C15.6954 92.2521 15.5115 92.1928 15.3626 92.0741C15.2136 91.9554 15.1019 91.7995 15.0275 91.6063C14.9553 91.4132 14.9169 91.2014 14.9123 90.971L16.6018 90.9501C16.6181 90.8896 16.632 90.8128 16.6437 90.7197C16.6553 90.6243 16.6611 90.5487 16.6611 90.4928C16.6611 90.1391 16.582 89.8738 16.4238 89.6969C16.2678 89.5201 16.0561 89.4316 15.7885 89.4316C15.5581 89.4316 15.337 89.4968 15.1252 89.6271C14.9158 89.7551 14.7459 89.9424 14.6156 90.1891C14.4853 90.4358 14.4201 90.7255 14.4201 91.0583C14.4201 91.3981 14.4771 91.6866 14.5911 91.924C14.7052 92.159 14.8564 92.3359 15.0449 92.4546C15.2358 92.5709 15.4452 92.6291 15.6733 92.6291ZM15.6174 89.7004C15.7873 89.7004 15.9211 89.7632 16.0188 89.8889C16.1189 90.0146 16.1689 90.1833 16.1689 90.3951C16.1689 90.5347 16.1608 90.6278 16.1445 90.6743L14.9193 90.7546C14.9239 90.5265 14.9577 90.3334 15.0205 90.1751C15.0857 90.0169 15.1694 89.8982 15.2718 89.8191C15.3765 89.74 15.4917 89.7004 15.6174 89.7004ZM18.3681 92.6291C18.5124 92.6291 18.6555 92.607 18.7974 92.5628C18.9394 92.5209 19.0662 92.465 19.1779 92.3952C19.2896 92.3254 19.3757 92.2498 19.4362 92.1683L19.3629 92.0078C19.1372 92.1916 18.8824 92.2835 18.5985 92.2835C18.389 92.2835 18.2075 92.2219 18.0539 92.0985C17.9003 91.9729 17.7828 91.8018 17.7014 91.5854C17.6199 91.3666 17.5792 91.1211 17.5792 90.8489C17.5792 90.6092 17.6118 90.4032 17.6769 90.231C17.7421 90.0565 17.8305 89.9238 17.9422 89.8331C18.0539 89.7423 18.1796 89.6969 18.3192 89.6969C18.4751 89.6969 18.6031 89.7528 18.7032 89.8645C18.8033 89.9762 18.8894 90.1333 18.9615 90.3357C19.1826 90.2985 19.2931 90.1833 19.2931 89.9901C19.2931 89.8924 19.2652 89.8005 19.2093 89.7144C19.1535 89.6283 19.0651 89.5585 18.944 89.5049C18.8254 89.4514 18.6729 89.4246 18.4868 89.4246C18.2331 89.4246 17.9992 89.4945 17.7851 89.6341C17.5734 89.7714 17.4046 89.968 17.279 90.224C17.1533 90.48 17.0905 90.7755 17.0905 91.1107C17.0905 91.3922 17.1417 91.6482 17.2441 91.8786C17.3465 92.109 17.4942 92.2917 17.6874 92.4267C17.8805 92.5616 18.1074 92.6291 18.3681 92.6291ZM20.1483 91.6482C20.146 91.9833 20.2007 92.2277 20.3124 92.3813C20.4264 92.5325 20.594 92.6082 20.8151 92.6082C20.9873 92.6082 21.1513 92.564 21.3073 92.4755C21.4655 92.3848 21.5981 92.2626 21.7052 92.109L21.6389 91.9554C21.6389 91.9577 21.6075 91.9798 21.5446 92.0217C21.4841 92.0613 21.4131 92.0985 21.3317 92.1334C21.2526 92.166 21.1746 92.1823 21.0978 92.1823C20.9838 92.1823 20.8919 92.1614 20.822 92.1195C20.7522 92.0753 20.6999 91.9996 20.665 91.8926C20.6324 91.7855 20.6161 91.6354 20.6161 91.4423L20.6266 89.8435H21.59L21.6179 89.5922H20.6301V88.7963H20.466C20.3752 89.0221 20.2694 89.2094 20.1483 89.3583C20.0297 89.5049 19.8865 89.6166 19.719 89.6934V89.8331H20.1623L20.1483 91.6482ZM22.7419 88.7091C22.835 88.7091 22.9083 88.6753 22.9618 88.6078C23.0154 88.5403 23.0421 88.4507 23.0421 88.339C23.0421 88.232 23.0142 88.1459 22.9584 88.0807C22.9025 88.0156 22.8304 87.983 22.7419 87.983C22.6535 87.983 22.5825 88.0156 22.529 88.0807C22.4755 88.1459 22.4487 88.232 22.4487 88.339C22.4487 88.4484 22.4743 88.538 22.5255 88.6078C22.579 88.6753 22.6512 88.7091 22.7419 88.7091ZM23.5518 92.5244L23.5902 92.3254L23.0317 92.2207V89.484L22.9758 89.4281L22.0717 89.5049L22.0438 89.683L22.5744 89.8296V92.2207L22.0473 92.3324L22.0054 92.5244H23.5518ZM25.4821 92.3219L24.9725 92.2242V90.1856C25.1121 90.046 25.2448 89.9471 25.3704 89.8889C25.4961 89.8284 25.6404 89.7982 25.8033 89.7982C25.9778 89.7982 26.1198 89.8598 26.2291 89.9832C26.3408 90.1042 26.3967 90.2903 26.3967 90.5417V92.2242L25.908 92.3429L25.8801 92.5244H27.3217L27.3462 92.3219L26.854 92.2242V90.43C26.854 90.0949 26.7818 89.8424 26.6376 89.6725C26.4933 89.5026 26.2966 89.4177 26.0476 89.4177C25.8359 89.4177 25.6311 89.4747 25.4333 89.5887C25.2355 89.7027 25.0784 89.8319 24.962 89.9762H24.9341L24.969 89.5154L24.9271 89.4665L24.0021 89.5713L23.9776 89.7528L24.5187 89.8889V92.2242L23.9846 92.3429L23.9567 92.5244H25.4472L25.4821 92.3219ZM28.8646 93.8753C29.1322 93.8753 29.3847 93.8206 29.6221 93.7112C29.8618 93.6042 30.0538 93.4599 30.1981 93.2784C30.3447 93.0992 30.418 92.9095 30.418 92.7094C30.418 92.5279 30.3808 92.3906 30.3063 92.2975C30.2318 92.2021 30.1283 92.1393 29.9956 92.109C29.863 92.0787 29.6919 92.0636 29.4825 92.0636H28.9449C28.7401 92.0636 28.59 92.0415 28.4946 91.9973C28.3992 91.9531 28.3515 91.8844 28.3515 91.7913C28.3515 91.7378 28.3701 91.6878 28.4073 91.6412C28.4446 91.5947 28.5028 91.533 28.5819 91.4562C28.6145 91.4679 28.661 91.4795 28.7215 91.4911C28.7843 91.5028 28.846 91.5086 28.9065 91.5086C29.0787 91.5086 29.2498 91.4632 29.4196 91.3725C29.5919 91.2817 29.7327 91.1572 29.842 90.999C29.9514 90.8384 30.0061 90.6627 30.0061 90.4719C30.0061 90.3764 29.9886 90.2717 29.9537 90.1577C29.9188 90.0413 29.8851 89.9541 29.8525 89.8959L29.863 89.8575L30.3552 90.0006L30.397 89.9936L30.5192 89.662L30.4634 89.5992C30.3889 89.6062 30.2667 89.6166 30.0968 89.6306C29.927 89.6422 29.7943 89.6504 29.6989 89.655C29.4918 89.5084 29.2696 89.4351 29.0322 89.4351C28.8367 89.4351 28.6529 89.484 28.4806 89.5817C28.3108 89.6795 28.1746 89.811 28.0722 89.9762C27.9698 90.1414 27.9186 90.3183 27.9186 90.5068C27.9186 90.6534 27.9477 90.7895 28.0059 90.9152C28.0664 91.0385 28.1374 91.1409 28.2188 91.2224C28.3026 91.3038 28.3783 91.3573 28.4457 91.3829V91.4004C28.3084 91.4749 28.1851 91.5668 28.0757 91.6762C27.9687 91.7832 27.9152 91.8774 27.9152 91.9589C27.9152 92.0543 27.9454 92.1404 28.0059 92.2172C28.0687 92.294 28.1502 92.3557 28.2503 92.4022V92.4267C28.0827 92.5151 27.9419 92.6105 27.8279 92.7129C27.7139 92.8153 27.6568 92.9444 27.6568 93.1004C27.6568 93.2679 27.7092 93.4099 27.8139 93.5262C27.9186 93.6426 28.0618 93.7298 28.2433 93.788C28.4248 93.8462 28.6319 93.8753 28.8646 93.8753ZM28.9484 89.6446C29.0671 89.6446 29.1718 89.6876 29.2626 89.7737C29.3557 89.8598 29.4266 89.9727 29.4755 90.1123C29.5267 90.2519 29.5523 90.3986 29.5523 90.5521C29.5523 90.7872 29.5011 90.9664 29.3987 91.0897C29.2963 91.2107 29.1637 91.2712 29.0008 91.2712C28.8867 91.2712 28.7809 91.2328 28.6831 91.156C28.5854 91.0792 28.5074 90.9768 28.4492 90.8489C28.3911 90.7185 28.362 90.5801 28.362 90.4335C28.362 90.1914 28.4097 89.9994 28.5051 89.8575C28.6028 89.7155 28.7506 89.6446 28.9484 89.6446ZM29.1997 92.465C29.4115 92.465 29.5721 92.4802 29.6815 92.5104C29.7932 92.5384 29.8688 92.5826 29.9083 92.6431C29.9502 92.7036 29.9712 92.7885 29.9712 92.8979C29.9712 93.0468 29.9305 93.1713 29.849 93.2714C29.7699 93.3715 29.6628 93.4459 29.5279 93.4948C29.3952 93.5437 29.2509 93.5681 29.095 93.5681C28.4527 93.5681 28.1316 93.3552 28.1316 92.9293C28.1316 92.8246 28.156 92.7373 28.2049 92.6675C28.2538 92.6 28.3084 92.5477 28.3689 92.5104C28.4295 92.4732 28.4597 92.4581 28.4597 92.465H29.1997ZM30.9276 93.5646C31.2953 93.4576 31.5501 93.3051 31.6921 93.1073C31.8341 92.9095 31.905 92.7047 31.905 92.493C31.905 92.3324 31.8771 92.1974 31.8213 92.0881C31.7677 91.9787 31.6979 91.8972 31.6118 91.8437C31.528 91.7902 31.4408 91.7634 31.35 91.7634C31.2499 91.7634 31.1615 91.7972 31.0847 91.8646C31.0102 91.9298 30.973 92.0194 30.973 92.1334C30.973 92.173 30.9823 92.2207 31.0009 92.2766C31.0312 92.2696 31.0649 92.2661 31.1022 92.2661C31.2139 92.2661 31.307 92.308 31.3814 92.3917C31.4559 92.4732 31.4931 92.5756 31.4931 92.6989C31.4931 93.0038 31.2837 93.2249 30.8648 93.3622L30.9276 93.5646ZM34.0169 88.5066V92.1893L33.427 92.3219L33.406 92.5244H36.792L36.8967 91.4318L36.6803 91.3934L36.3801 92.2626H34.5335V90.4509H35.5912L35.6785 91.1002L35.9089 91.0618L36.0241 89.7039L35.7727 89.7423L35.6331 90.1926H34.5335V88.4298H36.2894L36.3941 89.2641L36.628 89.2955L36.7362 88.182H33.4165L33.3851 88.3879L34.0169 88.5066ZM38.7398 92.3219L38.2407 92.2242V90.1996C38.3384 90.0786 38.4594 89.982 38.6037 89.9099C38.748 89.8354 38.8981 89.7982 39.054 89.7982C39.2402 89.7982 39.3868 89.8645 39.4938 89.9971C39.6032 90.1298 39.6579 90.3055 39.6579 90.5242V92.2242L39.1936 92.3359L39.1657 92.5244H40.555L40.5829 92.3219L40.0977 92.2242V90.2205C40.2071 90.1042 40.3258 90.0053 40.4538 89.9238C40.5818 89.8424 40.7237 89.8016 40.8796 89.8016C41.0774 89.8016 41.2287 89.8645 41.3334 89.9901C41.4405 90.1158 41.494 90.2938 41.494 90.5242V92.2242L41.0402 92.3359L41.0193 92.5174H42.4051L42.4504 92.3149L41.9548 92.2207V90.4404C41.9548 90.1193 41.8908 89.8715 41.7628 89.6969C41.6348 89.5224 41.4242 89.4351 41.131 89.4351C40.9262 89.4351 40.7295 89.491 40.541 89.6027C40.3549 89.712 40.2013 89.8447 40.0803 90.0006H40.0419C40 89.8121 39.9115 89.669 39.7766 89.5713C39.6416 89.4712 39.4822 89.4212 39.2983 89.4212C39.0936 89.4212 38.8946 89.477 38.7014 89.5887C38.5106 89.6981 38.3524 89.8296 38.2267 89.9832H38.1988L38.2372 89.5189L38.1953 89.47L37.2563 89.5747L37.2353 89.7563L37.7834 89.8959V92.2242L37.2528 92.3359L37.2214 92.5244H38.7049L38.7398 92.3219ZM44.3145 93.6135L43.7699 93.5227V90.2135C43.8886 90.0902 44.0061 89.9901 44.1225 89.9133C44.2412 89.8366 44.3727 89.7982 44.5169 89.7982C44.7799 89.7982 44.9754 89.9122 45.1034 90.1402C45.2337 90.3683 45.2989 90.6929 45.2989 91.1141C45.2989 91.3585 45.2628 91.5703 45.1906 91.7495C45.1185 91.9286 45.0184 92.0659 44.8904 92.1614C44.7625 92.2544 44.617 92.301 44.4541 92.301C44.3168 92.301 44.2086 92.2952 44.1295 92.2835C44.0504 92.2719 43.9712 92.251 43.8921 92.2207L43.9096 92.5558C44.0515 92.5814 44.1702 92.5942 44.2656 92.5942C44.5565 92.5942 44.8183 92.5232 45.051 92.3813C45.2837 92.2393 45.4653 92.0403 45.5956 91.7844C45.7282 91.5284 45.7945 91.2375 45.7945 90.9117C45.7945 90.5743 45.7492 90.2962 45.6584 90.0774C45.57 89.8563 45.4466 89.6934 45.2884 89.5887C45.1325 89.484 44.9521 89.4316 44.7473 89.4316C44.5402 89.4316 44.3529 89.4886 44.1853 89.6027C44.0201 89.7167 43.8816 89.8505 43.7699 90.0041H43.7455L43.7769 89.5259L43.7315 89.477L42.8065 89.5747L42.7786 89.7598L43.3161 89.8924V93.5192L42.7856 93.624L42.7646 93.8264H44.2796L44.3145 93.6135ZM47.5155 92.6186C47.7691 92.6186 48.003 92.55 48.2171 92.4127C48.4312 92.2754 48.6011 92.0834 48.7267 91.8367C48.8524 91.59 48.9152 91.3085 48.9152 90.992C48.9152 90.6941 48.8617 90.4253 48.7547 90.1856C48.6476 89.9459 48.494 89.7574 48.2939 89.6201C48.0961 89.4828 47.8657 89.4142 47.6027 89.4142C47.3398 89.4142 47.0966 89.4817 46.8732 89.6166C46.6498 89.7516 46.4717 89.9459 46.3391 90.1996C46.2088 90.4509 46.1436 90.7476 46.1436 91.0897C46.1436 91.3899 46.1995 91.6564 46.3112 91.8891C46.4252 92.1195 46.5858 92.2987 46.7929 92.4267C47.0023 92.5546 47.2432 92.6186 47.5155 92.6186ZM47.4526 89.7109C47.6597 89.7109 47.8366 89.7842 47.9832 89.9308C48.1298 90.0751 48.2392 90.2613 48.3113 90.4893C48.3858 90.7174 48.423 90.9536 48.423 91.1979C48.423 91.405 48.3916 91.5959 48.3288 91.7704C48.266 91.9426 48.1752 92.0799 48.0565 92.1823C47.9378 92.2847 47.7982 92.3359 47.6376 92.3359C47.4235 92.3359 47.2409 92.2672 47.0896 92.1299C46.9383 91.9903 46.8243 91.8065 46.7475 91.5784C46.673 91.3504 46.6358 91.1037 46.6358 90.8384C46.6358 90.6313 46.6672 90.4416 46.73 90.2694C46.7952 90.0972 46.8895 89.9611 47.0128 89.861C47.1361 89.7609 47.2827 89.7109 47.4526 89.7109ZM49.6343 89.8191L50.4616 92.6117L50.7653 92.5558L51.3657 90.3252L52.0324 92.6117L52.3291 92.5558L53.1041 89.8121L53.4811 89.7004L53.509 89.5119H52.2663L52.2419 89.7039L52.769 89.8191L52.207 91.8507L52.0953 91.3201L51.6135 89.6725L51.2156 89.7388L50.6466 91.8158L50.5175 91.2677L50.0951 89.8121L50.5663 89.7004L50.5908 89.5119H49.2538L49.2294 89.7039L49.6343 89.8191ZM55.0938 92.6291C55.3172 92.6291 55.522 92.5872 55.7081 92.5034C55.8943 92.4197 56.0491 92.3056 56.1724 92.1614L56.1061 92.0078C55.9758 92.0962 55.8513 92.159 55.7326 92.1963C55.6139 92.2335 55.4812 92.2521 55.3346 92.2521C55.1159 92.2521 54.932 92.1928 54.7831 92.0741C54.6342 91.9554 54.5225 91.7995 54.448 91.6063C54.3759 91.4132 54.3375 91.2014 54.3328 90.971L56.0223 90.9501C56.0386 90.8896 56.0526 90.8128 56.0642 90.7197C56.0758 90.6243 56.0816 90.5487 56.0816 90.4928C56.0816 90.1391 56.0025 89.8738 55.8443 89.6969C55.6884 89.5201 55.4766 89.4316 55.209 89.4316C54.9786 89.4316 54.7575 89.4968 54.5457 89.6271C54.3363 89.7551 54.1664 89.9424 54.0361 90.1891C53.9058 90.4358 53.8406 90.7255 53.8406 91.0583C53.8406 91.3981 53.8976 91.6866 54.0117 91.924C54.1257 92.159 54.2769 92.3359 54.4654 92.4546C54.6563 92.5709 54.8657 92.6291 55.0938 92.6291ZM55.0379 89.7004C55.2078 89.7004 55.3416 89.7632 55.4394 89.8889C55.5394 90.0146 55.5895 90.1833 55.5895 90.3951C55.5895 90.5347 55.5813 90.6278 55.565 90.6743L54.3398 90.7546C54.3444 90.5265 54.3782 90.3334 54.441 90.1751C54.5062 90.0169 54.59 89.8982 54.6923 89.8191C54.7971 89.74 54.9123 89.7004 55.0379 89.7004ZM58.3227 92.3115L57.5198 92.2172V90.9047C57.5454 90.7162 57.5885 90.5452 57.649 90.3916C57.7095 90.2357 57.7816 90.1123 57.8654 90.0216C57.9515 89.9308 58.0411 89.8854 58.1342 89.8854C58.2645 89.8854 58.389 89.9459 58.5077 90.0669C58.5752 90.0204 58.6275 89.968 58.6648 89.9099C58.7043 89.8517 58.7241 89.7935 58.7241 89.7353C58.7241 89.6422 58.6892 89.5631 58.6194 89.498C58.5496 89.4328 58.4553 89.4002 58.3366 89.4002C58.2249 89.4002 58.1144 89.4398 58.005 89.5189C57.898 89.598 57.8002 89.712 57.7118 89.861C57.6257 90.0076 57.5547 90.1798 57.4989 90.3776H57.45L57.4989 89.5224L57.443 89.463L56.5389 89.5643L56.5075 89.7458L57.066 89.8819V92.2242L56.525 92.3429L56.497 92.5244H58.2948L58.3227 92.3115ZM59.7818 88.7091C59.8749 88.7091 59.9482 88.6753 60.0017 88.6078C60.0552 88.5403 60.082 88.4507 60.082 88.339C60.082 88.232 60.0541 88.1459 59.9982 88.0807C59.9424 88.0156 59.8702 87.983 59.7818 87.983C59.6934 87.983 59.6224 88.0156 59.5689 88.0807C59.5153 88.1459 59.4886 88.232 59.4886 88.339C59.4886 88.4484 59.5142 88.538 59.5654 88.6078C59.6189 88.6753 59.691 88.7091 59.7818 88.7091ZM60.5916 92.5244L60.63 92.3254L60.0715 92.2207V89.484L60.0157 89.4281L59.1116 89.5049L59.0836 89.683L59.6142 89.8296V92.2207L59.0871 92.3324L59.0452 92.5244H60.5916ZM62.522 92.3219L62.0123 92.2242V90.1856C62.152 90.046 62.2846 89.9471 62.4103 89.8889C62.536 89.8284 62.6802 89.7982 62.8431 89.7982C63.0177 89.7982 63.1596 89.8598 63.269 89.9832C63.3807 90.1042 63.4366 90.2903 63.4366 90.5417V92.2242L62.9479 92.3429L62.9199 92.5244H64.3616L64.386 92.3219L63.8938 92.2242V90.43C63.8938 90.0949 63.8217 89.8424 63.6774 89.6725C63.5331 89.5026 63.3365 89.4177 63.0875 89.4177C62.8757 89.4177 62.6709 89.4747 62.4731 89.5887C62.2753 89.7027 62.1182 89.8319 62.0019 89.9762H61.974L62.0089 89.5154L61.967 89.4665L61.0419 89.5713L61.0175 89.7528L61.5586 89.8889V92.2242L61.0245 92.3429L60.9966 92.5244H62.4871L62.522 92.3219ZM65.9045 93.8753C66.1721 93.8753 66.4246 93.8206 66.662 93.7112C66.9017 93.6042 67.0937 93.4599 67.2379 93.2784C67.3845 93.0992 67.4578 92.9095 67.4578 92.7094C67.4578 92.5279 67.4206 92.3906 67.3461 92.2975C67.2717 92.2021 67.1681 92.1393 67.0355 92.109C66.9028 92.0787 66.7318 92.0636 66.5223 92.0636H65.9848C65.78 92.0636 65.6299 92.0415 65.5345 91.9973C65.4391 91.9531 65.3913 91.8844 65.3913 91.7913C65.3913 91.7378 65.41 91.6878 65.4472 91.6412C65.4844 91.5947 65.5426 91.533 65.6217 91.4562C65.6543 91.4679 65.7009 91.4795 65.7614 91.4911C65.8242 91.5028 65.8859 91.5086 65.9464 91.5086C66.1186 91.5086 66.2896 91.4632 66.4595 91.3725C66.6317 91.2817 66.7725 91.1572 66.8819 90.999C66.9913 90.8384 67.0459 90.6627 67.0459 90.4719C67.0459 90.3764 67.0285 90.2717 66.9936 90.1577C66.9587 90.0413 66.9249 89.9541 66.8924 89.8959L66.9028 89.8575L67.395 90.0006L67.4369 89.9936L67.5591 89.662L67.5032 89.5992C67.4288 89.6062 67.3066 89.6166 67.1367 89.6306C66.9668 89.6422 66.8342 89.6504 66.7388 89.655C66.5316 89.5084 66.3094 89.4351 66.072 89.4351C65.8766 89.4351 65.6927 89.484 65.5205 89.5817C65.3506 89.6795 65.2145 89.811 65.1121 89.9762C65.0097 90.1414 64.9585 90.3183 64.9585 90.5068C64.9585 90.6534 64.9876 90.7895 65.0458 90.9152C65.1063 91.0385 65.1773 91.1409 65.2587 91.2224C65.3425 91.3038 65.4181 91.3573 65.4856 91.3829V91.4004C65.3483 91.4749 65.225 91.5668 65.1156 91.6762C65.0085 91.7832 64.955 91.8774 64.955 91.9589C64.955 92.0543 64.9853 92.1404 65.0458 92.2172C65.1086 92.294 65.1901 92.3557 65.2901 92.4022V92.4267C65.1226 92.5151 64.9818 92.6105 64.8677 92.7129C64.7537 92.8153 64.6967 92.9444 64.6967 93.1004C64.6967 93.2679 64.7491 93.4099 64.8538 93.5262C64.9585 93.6426 65.1016 93.7298 65.2831 93.788C65.4647 93.8462 65.6718 93.8753 65.9045 93.8753ZM65.9883 89.6446C66.1069 89.6446 66.2117 89.6876 66.3024 89.7737C66.3955 89.8598 66.4665 89.9727 66.5154 90.1123C66.5666 90.2519 66.5922 90.3986 66.5922 90.5521C66.5922 90.7872 66.541 90.9664 66.4386 91.0897C66.3362 91.2107 66.2035 91.2712 66.0406 91.2712C65.9266 91.2712 65.8207 91.2328 65.723 91.156C65.6252 91.0792 65.5473 90.9768 65.4891 90.8489C65.4309 90.7185 65.4018 90.5801 65.4018 90.4335C65.4018 90.1914 65.4495 89.9994 65.5449 89.8575C65.6427 89.7155 65.7905 89.6446 65.9883 89.6446ZM66.2396 92.465C66.4514 92.465 66.6119 92.4802 66.7213 92.5104C66.833 92.5384 66.9086 92.5826 66.9482 92.6431C66.9901 92.7036 67.011 92.7885 67.011 92.8979C67.011 93.0468 66.9703 93.1713 66.8889 93.2714C66.8097 93.3715 66.7027 93.4459 66.5677 93.4948C66.4351 93.5437 66.2908 93.5681 66.1349 93.5681C65.4926 93.5681 65.1714 93.3552 65.1714 92.9293C65.1714 92.8246 65.1959 92.7373 65.2447 92.6675C65.2936 92.6 65.3483 92.5477 65.4088 92.5104C65.4693 92.4732 65.4996 92.4581 65.4996 92.465H66.2396ZM69.6116 88.4961V92.1893L69.0252 92.3219L69.0042 92.5244H70.7391L70.781 92.3045L70.1317 92.2102V90.4614L72.481 90.4579V92.1893L71.905 92.3219L71.8701 92.5244H73.612L73.6399 92.3045L73.0046 92.2102V88.4891L73.5875 88.3809L73.6189 88.182H71.8736L71.8422 88.3809L72.481 88.4961V90.1786H70.1317V88.4891L70.7217 88.3809L70.7496 88.182H69.0007L68.9763 88.3809L69.6116 88.4961ZM75.2596 92.6291C75.483 92.6291 75.6878 92.5872 75.8739 92.5034C76.0601 92.4197 76.2149 92.3056 76.3382 92.1614L76.2719 92.0078C76.1416 92.0962 76.0171 92.159 75.8984 92.1963C75.7797 92.2335 75.647 92.2521 75.5004 92.2521C75.2817 92.2521 75.0978 92.1928 74.9489 92.0741C74.8 91.9554 74.6883 91.7995 74.6138 91.6063C74.5416 91.4132 74.5033 91.2014 74.4986 90.971L76.1881 90.9501C76.2044 90.8896 76.2184 90.8128 76.23 90.7197C76.2416 90.6243 76.2474 90.5487 76.2474 90.4928C76.2474 90.1391 76.1683 89.8738 76.0101 89.6969C75.8542 89.5201 75.6424 89.4316 75.3748 89.4316C75.1444 89.4316 74.9233 89.4968 74.7115 89.6271C74.5021 89.7551 74.3322 89.9424 74.2019 90.1891C74.0716 90.4358 74.0064 90.7255 74.0064 91.0583C74.0064 91.3981 74.0634 91.6866 74.1775 91.924C74.2915 92.159 74.4427 92.3359 74.6312 92.4546C74.8221 92.5709 75.0315 92.6291 75.2596 92.6291ZM75.2037 89.7004C75.3736 89.7004 75.5074 89.7632 75.6051 89.8889C75.7052 90.0146 75.7552 90.1833 75.7552 90.3951C75.7552 90.5347 75.7471 90.6278 75.7308 90.6743L74.5056 90.7546C74.5102 90.5265 74.544 90.3334 74.6068 90.1751C74.672 90.0169 74.7557 89.8982 74.8581 89.8191C74.9629 89.74 75.078 89.7004 75.2037 89.7004ZM77.3749 92.6117C77.5425 92.6117 77.6926 92.5826 77.8252 92.5244C77.9602 92.4639 78.0707 92.3929 78.1569 92.3115C78.243 92.2277 78.3058 92.1474 78.3454 92.0706H78.3733V92.1195C78.3733 92.2475 78.414 92.358 78.4955 92.4511C78.5792 92.5418 78.7014 92.5872 78.862 92.5872C78.9248 92.5872 78.9807 92.5826 79.0295 92.5733C79.0784 92.5663 79.1377 92.5535 79.2076 92.5349L79.2774 92.5174L79.3088 92.308L79.1063 92.2696C79.0039 92.2533 78.9271 92.223 78.8759 92.1788C78.8271 92.1346 78.7945 92.0776 78.7782 92.0078C78.7642 91.938 78.7573 91.8425 78.7573 91.7215V90.4963C78.7573 90.1309 78.6886 89.8633 78.5513 89.6934C78.414 89.5212 78.1953 89.4351 77.8951 89.4351C77.7275 89.4351 77.5576 89.4689 77.3854 89.5363C77.2132 89.6038 77.0712 89.6934 76.9595 89.8051C76.8478 89.9145 76.792 90.0285 76.792 90.1472C76.792 90.2659 76.8304 90.3485 76.9072 90.3951C76.984 90.4393 77.0771 90.4614 77.1864 90.4614C77.1981 90.2706 77.2167 90.1216 77.2423 90.0146C77.2679 89.9075 77.3109 89.8261 77.3714 89.7702C77.4343 89.7144 77.525 89.6864 77.6437 89.6864C77.8834 89.6864 78.0545 89.7726 78.1569 89.9448C78.2616 90.117 78.3139 90.3625 78.3139 90.6813V90.9152C77.9486 90.9315 77.6414 90.9862 77.3924 91.0792C77.1457 91.17 76.9607 91.2922 76.8374 91.4458C76.7164 91.597 76.6559 91.7716 76.6559 91.9694C76.6559 92.0997 76.6884 92.2137 76.7536 92.3115C76.8211 92.4092 76.9095 92.4837 77.0189 92.5349C77.1283 92.5861 77.2469 92.6117 77.3749 92.6117ZM78.3139 91.8716C78.2511 91.9833 78.1557 92.0787 78.0277 92.1579C77.8997 92.237 77.7589 92.2766 77.6053 92.2766C77.5122 92.2766 77.4308 92.2556 77.361 92.2137C77.2912 92.1718 77.2376 92.1171 77.2004 92.0497C77.1655 91.9798 77.148 91.9089 77.148 91.8367C77.148 91.4248 77.5367 91.177 78.3139 91.0932V91.8716ZM81.0646 92.5244L81.1065 92.3254L80.5445 92.2207V88.0423L80.4852 87.9865L79.5706 88.0598L79.5496 88.2413L80.0942 88.3844V92.2207L79.5566 92.3324L79.5217 92.5244H81.0646ZM81.8291 91.6482C81.8268 91.9833 81.8814 92.2277 81.9931 92.3813C82.1072 92.5325 82.2747 92.6082 82.4958 92.6082C82.668 92.6082 82.8321 92.564 82.988 92.4755C83.1462 92.3848 83.2789 92.2626 83.3859 92.109L83.3196 91.9554C83.3196 91.9577 83.2882 91.9798 83.2254 92.0217C83.1648 92.0613 83.0939 92.0985 83.0124 92.1334C82.9333 92.166 82.8553 92.1823 82.7785 92.1823C82.6645 92.1823 82.5726 92.1614 82.5028 92.1195C82.433 92.0753 82.3806 91.9996 82.3457 91.8926C82.3131 91.7855 82.2968 91.6354 82.2968 91.4423L82.3073 89.8435H83.2707L83.2987 89.5922H82.3108V88.7963H82.1467C82.056 89.0221 81.9501 89.2094 81.8291 89.3583C81.7104 89.5049 81.5673 89.6166 81.3997 89.6934V89.8331H81.843L81.8291 91.6482ZM85.2325 92.3219L84.7264 92.2207V90.1856C84.852 90.0483 84.9777 89.9483 85.1034 89.8854C85.229 89.8226 85.3698 89.7912 85.5257 89.7912C85.7026 89.7912 85.848 89.8505 85.9621 89.9692C86.0761 90.0879 86.1331 90.2787 86.1331 90.5417V90.5661L86.1226 92.2242L85.6444 92.3359L85.613 92.5244H87.0477L87.0791 92.3219L86.5834 92.2242V90.4719C86.5834 90.0925 86.5124 89.8214 86.3705 89.6585C86.2309 89.4956 86.0307 89.4142 85.7701 89.4142C85.5816 89.4142 85.3942 89.4654 85.2081 89.5678C85.0242 89.6702 84.8578 89.8028 84.7089 89.9657H84.681L84.7264 89.5957V88.0423L84.6705 87.983L83.749 88.0563L83.7175 88.2448L84.2656 88.3914V92.2207L83.728 92.3254L83.6896 92.5244H85.1976L85.2325 92.3219ZM90.4406 92.6117C90.671 92.6117 90.8909 92.5733 91.1004 92.4965C91.3122 92.4173 91.4972 92.3196 91.6554 92.2032C91.8137 92.0846 91.9382 91.9647 92.0289 91.8437L91.9277 91.6447C91.7625 91.8123 91.5716 91.9519 91.3552 92.0636C91.1388 92.1753 90.9142 92.2312 90.6815 92.2312C90.372 92.2312 90.0974 92.1544 89.8577 92.0008C89.618 91.8472 89.4295 91.6215 89.2922 91.3236C89.1572 91.0257 89.0897 90.6685 89.0897 90.2519C89.0897 89.8819 89.1502 89.5526 89.2713 89.2641C89.3923 88.9755 89.5563 88.7521 89.7634 88.5939C89.9706 88.4333 90.1975 88.353 90.4441 88.353C90.8723 88.353 91.1842 88.4798 91.3796 88.7335L91.5053 89.5713L91.7427 89.6062L91.8509 88.4368C91.5484 88.2064 91.1399 88.0912 90.6256 88.0912C90.1649 88.0912 89.7762 88.2099 89.4598 88.4473C89.1433 88.6823 88.9071 88.9802 88.7511 89.3409C88.5975 89.7016 88.5208 90.0658 88.5208 90.4335C88.5208 90.8779 88.6045 91.2654 88.7721 91.5959C88.942 91.924 89.1724 92.1753 89.4632 92.3499C89.7565 92.5244 90.0823 92.6117 90.4406 92.6117ZM93.7219 92.6186C93.9756 92.6186 94.2094 92.55 94.4235 92.4127C94.6376 92.2754 94.8075 92.0834 94.9332 91.8367C95.0588 91.59 95.1217 91.3085 95.1217 90.992C95.1217 90.6941 95.0681 90.4253 94.9611 90.1856C94.854 89.9459 94.7005 89.7574 94.5003 89.6201C94.3025 89.4828 94.0721 89.4142 93.8092 89.4142C93.5462 89.4142 93.303 89.4817 93.0796 89.6166C92.8562 89.7516 92.6782 89.9459 92.5455 90.1996C92.4152 90.4509 92.3501 90.7476 92.3501 91.0897C92.3501 91.3899 92.4059 91.6564 92.5176 91.8891C92.6316 92.1195 92.7922 92.2987 92.9993 92.4267C93.2088 92.5546 93.4496 92.6186 93.7219 92.6186ZM93.6591 89.7109C93.8662 89.7109 94.043 89.7842 94.1897 89.9308C94.3363 90.0751 94.4456 90.2613 94.5178 90.4893C94.5923 90.7174 94.6295 90.9536 94.6295 91.1979C94.6295 91.405 94.5981 91.5959 94.5352 91.7704C94.4724 91.9426 94.3816 92.0799 94.263 92.1823C94.1443 92.2847 94.0046 92.3359 93.8441 92.3359C93.63 92.3359 93.4473 92.2672 93.296 92.1299C93.1448 91.9903 93.0307 91.8065 92.9539 91.5784C92.8795 91.3504 92.8422 91.1037 92.8422 90.8384C92.8422 90.6313 92.8737 90.4416 92.9365 90.2694C93.0017 90.0972 93.0959 89.9611 93.2192 89.861C93.3426 89.7609 93.4892 89.7109 93.6591 89.7109ZM96.9752 92.3219L96.4761 92.2242V90.1996C96.5738 90.0786 96.6948 89.982 96.8391 89.9099C96.9834 89.8354 97.1335 89.7982 97.2894 89.7982C97.4756 89.7982 97.6222 89.8645 97.7292 89.9971C97.8386 90.1298 97.8933 90.3055 97.8933 90.5242V92.2242L97.429 92.3359L97.4011 92.5244H98.7904L98.8183 92.3219L98.3331 92.2242V90.2205C98.4425 90.1042 98.5612 90.0053 98.6892 89.9238C98.8172 89.8424 98.9591 89.8016 99.115 89.8016C99.3128 89.8016 99.4641 89.8645 99.5688 89.9901C99.6759 90.1158 99.7294 90.2938 99.7294 90.5242V92.2242L99.2756 92.3359L99.2547 92.5174H100.64L100.686 92.3149L100.19 92.2207V90.4404C100.19 90.1193 100.126 89.8715 99.9982 89.6969C99.8702 89.5224 99.6596 89.4351 99.3664 89.4351C99.1616 89.4351 98.9649 89.491 98.7764 89.6027C98.5903 89.712 98.4367 89.8447 98.3157 90.0006H98.2773C98.2354 89.8121 98.1469 89.669 98.012 89.5713C97.877 89.4712 97.7176 89.4212 97.5338 89.4212C97.329 89.4212 97.13 89.477 96.9368 89.5887C96.746 89.6981 96.5878 89.8296 96.4621 89.9832H96.4342L96.4726 89.5189L96.4307 89.47L95.4917 89.5747L95.4707 89.7563L96.0188 89.8959V92.2242L95.4882 92.3359L95.4568 92.5244H96.9403L96.9752 92.3219ZM102.546 92.3219L102.047 92.2242V90.1996C102.145 90.0786 102.266 89.982 102.41 89.9099C102.555 89.8354 102.705 89.7982 102.861 89.7982C103.047 89.7982 103.193 89.8645 103.3 89.9971C103.41 90.1298 103.464 90.3055 103.464 90.5242V92.2242L103 92.3359L102.972 92.5244H104.362L104.389 92.3219L103.904 92.2242V90.2205C104.014 90.1042 104.132 90.0053 104.26 89.9238C104.388 89.8424 104.53 89.8016 104.686 89.8016C104.884 89.8016 105.035 89.8645 105.14 89.9901C105.247 90.1158 105.301 90.2938 105.301 90.5242V92.2242L104.847 92.3359L104.826 92.5174H106.212L106.257 92.3149L105.761 92.2207V90.4404C105.761 90.1193 105.697 89.8715 105.569 89.6969C105.441 89.5224 105.231 89.4351 104.938 89.4351C104.733 89.4351 104.536 89.491 104.348 89.6027C104.161 89.712 104.008 89.8447 103.887 90.0006H103.848C103.807 89.8121 103.718 89.669 103.583 89.5713C103.448 89.4712 103.289 89.4212 103.105 89.4212C102.9 89.4212 102.701 89.477 102.508 89.5887C102.317 89.6981 102.159 89.8296 102.033 89.9832H102.005L102.044 89.5189L102.002 89.47L101.063 89.5747L101.042 89.7563L101.59 89.8959V92.2242L101.059 92.3359L101.028 92.5244H102.511L102.546 92.3219ZM107.081 91.5644C107.081 92.2603 107.346 92.6082 107.877 92.6082C108.068 92.6082 108.247 92.5616 108.414 92.4685C108.584 92.3755 108.728 92.2405 108.847 92.0636H108.889V92.1055C108.889 92.2475 108.931 92.365 109.015 92.4581C109.098 92.5512 109.216 92.5977 109.367 92.5977C109.449 92.5977 109.522 92.5919 109.587 92.5802C109.652 92.5686 109.726 92.5512 109.807 92.5279L109.831 92.3219L109.643 92.28C109.51 92.2544 109.42 92.2032 109.371 92.1265C109.322 92.0473 109.297 91.9205 109.297 91.746V89.5329L109.249 89.4735L108.32 89.5573L108.299 89.7667L108.847 89.8924V91.8716C108.756 91.9717 108.649 92.0555 108.526 92.123C108.405 92.1904 108.272 92.2242 108.128 92.2242C107.728 92.2242 107.528 91.9554 107.528 91.4178V89.5329L107.472 89.4735L106.603 89.5468L106.575 89.7318L107.081 89.8819V91.5644ZM111.706 92.3219L111.196 92.2242V90.1856C111.336 90.046 111.469 89.9471 111.594 89.8889C111.72 89.8284 111.864 89.7982 112.027 89.7982C112.202 89.7982 112.344 89.8598 112.453 89.9832C112.565 90.1042 112.621 90.2903 112.621 90.5417V92.2242L112.132 92.3429L112.104 92.5244H113.546L113.57 92.3219L113.078 92.2242V90.43C113.078 90.0949 113.006 89.8424 112.861 89.6725C112.717 89.5026 112.521 89.4177 112.271 89.4177C112.06 89.4177 111.855 89.4747 111.657 89.5887C111.459 89.7027 111.302 89.8319 111.186 89.9762H111.158L111.193 89.5154L111.151 89.4665L110.226 89.5713L110.202 89.7528L110.743 89.8889V92.2242L110.208 92.3429L110.181 92.5244H111.671L111.706 92.3219ZM114.642 88.7091C114.735 88.7091 114.808 88.6753 114.862 88.6078C114.915 88.5403 114.942 88.4507 114.942 88.339C114.942 88.232 114.914 88.1459 114.858 88.0807C114.802 88.0156 114.73 87.983 114.642 87.983C114.553 87.983 114.482 88.0156 114.429 88.0807C114.375 88.1459 114.348 88.232 114.348 88.339C114.348 88.4484 114.374 88.538 114.425 88.6078C114.479 88.6753 114.551 88.7091 114.642 88.7091ZM115.452 92.5244L115.49 92.3254L114.931 92.2207V89.484L114.876 89.4281L113.971 89.5049L113.944 89.683L114.474 89.8296V92.2207L113.947 92.3324L113.905 92.5244H115.452ZM116.258 91.6482C116.256 91.9833 116.31 92.2277 116.422 92.3813C116.536 92.5325 116.704 92.6082 116.925 92.6082C117.097 92.6082 117.261 92.564 117.417 92.4755C117.575 92.3848 117.708 92.2626 117.815 92.109L117.748 91.9554C117.748 91.9577 117.717 91.9798 117.654 92.0217C117.594 92.0613 117.523 92.0985 117.441 92.1334C117.362 92.166 117.284 92.1823 117.207 92.1823C117.093 92.1823 117.001 92.1614 116.932 92.1195C116.862 92.0753 116.809 91.9996 116.775 91.8926C116.742 91.7855 116.726 91.6354 116.726 91.4423L116.736 89.8435H117.7L117.727 89.5922H116.74V88.7963H116.576C116.485 89.0221 116.379 89.2094 116.258 89.3583C116.139 89.5049 115.996 89.6166 115.829 89.6934V89.8331H116.272L116.258 91.6482ZM118.604 93.8474C118.783 93.8474 118.936 93.809 119.064 93.7322C119.195 93.6577 119.312 93.539 119.417 93.3761C119.524 93.2132 119.633 92.991 119.745 92.7094L120.897 89.8296L121.25 89.7039L121.267 89.5189H120.16L120.122 89.7109L120.576 89.8331L119.773 91.8437L119.023 89.8191L119.466 89.7039L119.487 89.5189H118.15L118.118 89.7144L118.551 89.8296L119.522 92.4825L119.441 92.6954C119.276 93.1143 119.064 93.3238 118.806 93.3238C118.69 93.3238 118.59 93.3086 118.506 93.2784C118.422 93.2505 118.338 93.2039 118.255 93.1388C118.15 93.2295 118.097 93.3435 118.097 93.4808C118.097 93.5483 118.12 93.61 118.164 93.6659C118.208 93.7217 118.269 93.7659 118.345 93.7985C118.422 93.8311 118.508 93.8474 118.604 93.8474Z" fill="#076A60"/>
<defs>
<clipPath id="clip0_8_23">
<rect width="58.259" height="57.9677" fill="white" transform="translate(31)"/>
</clipPath>
</defs>
</svg>
